<svg width="60" height="60" viewBox="0 0 60 60" fill="none" xmlns="http://www.w3.org/2000/svg">
<g clip-path="url(#clip0_3859_31443)">
<circle cx="30" cy="30" r="30" fill="#F4F7FB"/>
<circle cx="30" cy="30" r="16.0625" fill="#111828"/>
<path fill-rule="evenodd" clip-rule="evenodd" d="M24.8633 27.4179C24.8633 25.386 26.5105 23.7388 28.5424 23.7388H33.7677C33.9334 23.7388 34.0677 23.8731 34.0677 24.0388V25.5794C34.0677 25.7451 33.9334 25.8794 33.7677 25.8794H28.5424C27.6927 25.8794 27.0039 26.5682 27.0039 27.4179C27.0039 28.2676 27.6927 28.9565 28.5424 28.9565H31.4857C33.5028 28.9565 35.138 30.5917 35.138 32.6088C35.138 34.626 33.5028 36.2612 31.4857 36.2612H26.2336C26.0679 36.2612 25.9336 36.1269 25.9336 35.9612V34.4206C25.9336 34.2549 26.0679 34.1206 26.2336 34.1206H31.4857C32.3206 34.1206 32.9974 33.4438 32.9974 32.6088C32.9974 31.7739 32.3206 31.097 31.4857 31.097H28.5424C26.5105 31.097 24.8633 29.4498 24.8633 27.4179Z" fill="#F4F7FB"/>
<path fill-rule="evenodd" clip-rule="evenodd" d="M29.2297 38.2814C29.064 38.2814 28.9297 38.1471 28.9297 37.9814L28.9297 22.0187C28.9297 21.8531 29.064 21.7187 29.2297 21.7187L30.7703 21.7187C30.9359 21.7187 31.0703 21.8531 31.0703 22.0187L31.0703 37.9814C31.0703 38.1471 30.9359 38.2814 30.7703 38.2814L29.2297 38.2814Z" fill="#F4F7FB"/>
</g>
<defs>
<clipPath id="clip0_3859_31443">
<rect width="60" height="60" fill="white"/>
</clipPath>
</defs>
</svg>
