<svg width="44" height="48" viewBox="0 0 44 48" fill="none" xmlns="http://www.w3.org/2000/svg">
<g clip-path="url(#clip0_3717_23494)">
<ellipse cx="21.9997" cy="25.6071" rx="21.0583" ry="21.081" fill="#F4F7FB"/>
<path d="M18.3434 40.2735L18.3435 40.274C18.6808 41.7495 19.1536 43.8169 19.492 45.2921C19.5116 45.3776 19.5574 45.4475 19.6144 45.494C19.6708 45.5399 19.7357 45.5615 19.7983 45.5617C19.7984 45.5617 19.7984 45.5617 19.7985 45.5617L24.1965 45.5617C24.2589 45.5617 24.3237 45.5402 24.38 45.4943C24.4369 45.4479 24.4825 45.3782 24.5021 45.2928L18.3434 40.2735ZM18.3434 40.2735C18.3303 40.2164 18.33 40.1566 18.3424 40.0993C18.3548 40.042 18.3791 39.9906 18.4116 39.9485C18.4439 39.9064 18.4829 39.8752 18.524 39.8548C18.5649 39.8344 18.608 39.8246 18.6505 39.8247H18.651M18.3434 40.2735L18.651 39.8247M18.651 39.8247H25.3428M18.651 39.8247H25.3428M25.3428 39.8247C25.3853 39.8247 25.4285 39.8346 25.4694 39.855C25.5106 39.8755 25.5497 39.9068 25.5821 39.9489C25.6146 39.9912 25.639 40.0426 25.6515 40.1C25.664 40.1575 25.6636 40.2174 25.6506 40.2747L26.7487 40.525M25.3428 39.8247L25.3433 38.6984C25.561 38.6985 25.7758 38.7493 25.9717 38.8469C26.1676 38.9445 26.3396 39.0865 26.4748 39.2621C26.6099 39.4378 26.7047 39.6426 26.7522 39.8613C26.7996 40.08 26.7984 40.3068 26.7487 40.525M26.7487 40.525C26.6083 41.1384 26.4448 41.8531 26.2781 42.5814C26.0388 43.6276 25.793 44.7019 25.5999 45.5444L24.5021 45.2928C24.6951 44.4505 24.9407 43.3771 25.1799 42.3315C25.3466 41.6028 25.5102 40.8877 25.6508 40.2736L26.7487 40.525Z" fill="#111828" stroke="#111828" stroke-width="2.25257"/>
<path d="M18.0059 34.1732L20.5424 40.8943" stroke="#111828" stroke-width="1.80206" stroke-miterlimit="10"/>
<path d="M26.0746 34.1732L23.5391 40.8943" stroke="#111828" stroke-width="1.80206" stroke-miterlimit="10"/>
<path d="M9.14966 27.2947C3.13118 19.4512 5.48263 8.09251 14.1202 3.28271C19.0191 0.554776 24.9807 0.554684 29.8796 3.28262C38.5172 8.0924 40.8678 19.4512 34.8486 27.2941L29.0606 34.8356C28.549 35.5022 27.7565 35.893 26.9163 35.893H17.0804C16.24 35.893 15.4474 35.5021 14.9359 34.8354L9.14966 27.2947Z" fill="#FC5761"/>
</g>
<defs>
<clipPath id="clip0_3717_23494">
<rect width="44" height="48" fill="white"/>
</clipPath>
</defs>
</svg>
