<svg width="18" height="18" viewBox="0 0 18 18" fill="none" xmlns="http://www.w3.org/2000/svg">
<g clip-path="url(#clip0_3817_27073)">
<path d="M0.75 13.5582V7.71646H17.25V13.611C17.25 14.7749 16.8344 15.6541 16.1305 16.2538C15.4125 16.8656 14.318 17.25 12.8628 17.25H5.12733C3.69214 17.25 2.60032 16.8596 1.8793 16.2373C1.17068 15.6258 0.75 14.7312 0.75 13.5582Z" stroke="#B7C0D2" stroke-width="1.5"/>
<path d="M0.00488281 6.96649C0.0177275 6.40297 0.0671302 5.28457 0.160007 4.92457C0.634273 2.89993 2.2448 1.61354 4.54697 1.43018H13.4592C15.7416 1.62314 17.3719 2.91817 17.8462 4.92457C17.9381 5.27497 17.9875 6.40201 18.0003 6.96649H0.00488281Z" fill="#B7C0D2"/>
<path d="M5.30172 4.40639C5.73641 4.40639 6.06242 4.09055 6.06242 3.66719V0.740159C6.06242 0.3168 5.73641 0 5.30172 0C4.86703 0 4.54102 0.3168 4.54102 0.740159V3.66719C4.54102 4.09055 4.86703 4.40639 5.30172 4.40639" fill="#B7C0D2"/>
<path d="M12.6943 4.40639C13.1191 4.40639 13.455 4.09055 13.455 3.66719V0.740159C13.455 0.3168 13.1191 0 12.6943 0C12.2596 0 11.9336 0.3168 11.9336 0.740159V3.66719C11.9336 4.09055 12.2596 4.40639 12.6943 4.40639" fill="#B7C0D2"/>
</g>
<defs>
<clipPath id="clip0_3817_27073">
<rect width="18.0003" height="18" fill="white"/>
</clipPath>
</defs>
</svg>
