<svg width="18" height="18" viewBox="0 0 18 18" fill="none" xmlns="http://www.w3.org/2000/svg">
<g clip-path="url(#clip0_3817_27072)">
<path d="M14.5648 3L12.2363 3.77544L15.6653 11.8926" stroke="#B7C0D2" stroke-width="1.5" stroke-miterlimit="10" stroke-linecap="round" stroke-linejoin="round"/>
<path d="M6.68722 4.33578H4.80115H3.70117" stroke="#B7C0D2" stroke-width="1.5" stroke-miterlimit="10" stroke-linecap="round" stroke-linejoin="round"/>
<path d="M8.33313 11.9499L5.0332 4.33582" stroke="#B7C0D2" stroke-width="1.5" stroke-miterlimit="10" stroke-linecap="round" stroke-linejoin="round"/>
<path d="M2.33398 11.6194L6.19107 7.00618L12.9426 5.45142L8.33421 11.95L2.33398 11.6194Z" stroke="#B7C0D2" stroke-width="1.5" stroke-miterlimit="10" stroke-linecap="round" stroke-linejoin="round"/>
<path d="M3.15246 15C4.89352 15 6.30492 13.5808 6.30492 11.8302C6.30492 10.0796 4.89352 8.66039 3.15246 8.66039C1.41141 8.66039 0 10.0796 0 11.8302C0 13.5808 1.41141 15 3.15246 15Z" fill="#B7C0D2"/>
<path d="M14.8478 15C16.5888 15 18.0002 13.5808 18.0002 11.8302C18.0002 10.0796 16.5888 8.6604 14.8478 8.6604C13.1067 8.6604 11.6953 10.0796 11.6953 11.8302C11.6953 13.5808 13.1067 15 14.8478 15Z" fill="#B7C0D2"/>
</g>
<defs>
<clipPath id="clip0_3817_27072">
<rect width="18" height="18" fill="white"/>
</clipPath>
</defs>
</svg>
