<svg width="592" height="392" viewBox="0 0 592 392" fill="none" xmlns="http://www.w3.org/2000/svg">
<g clip-path="url(#clip0_3852_30438)">
<path d="M38.4578 7.77167C38.483 3.18223 43.4419 0.319238 47.4291 2.5921L102.484 33.9754C107.424 36.7917 106.04 44.2604 100.418 45.1192L71.1049 49.5972C69.6167 49.8245 68.2684 50.603 67.3274 51.7781L48.7927 74.9253C45.2381 79.3644 38.0779 76.8288 38.1092 71.1421L38.4578 7.77167Z" fill="#FC5761"/>
<path d="M78.2422 65.8795C124.58 141.04 276.319 285.108 512.576 260.099" stroke="white" stroke-width="2" stroke-linecap="round" stroke-dasharray="12 12"/>
<path fill-rule="evenodd" clip-rule="evenodd" d="M560.98 108.983H545.866L563.98 133.01L467.273 373.215H498.621L588.767 149.465C591.053 143.828 591.598 137.645 590.335 131.7C587.14 118.233 574.929 108.782 560.98 108.983Z" fill="#E1E6F1"/>
<path fill-rule="evenodd" clip-rule="evenodd" d="M166.218 373.215L263.498 129.943C268.419 117.649 282.311 109.263 298.086 108.987L298.89 108.98H571.086C576.594 108.98 581.744 111.703 584.833 116.255C587.807 120.638 588.498 126.165 586.718 131.127L586.502 131.697L489.912 373.215H369.653V394.575H28.6521C13.7125 394.575 1.60156 389.994 1.60156 375.08V373.215H166.218Z" fill="white"/>
<path fill-rule="evenodd" clip-rule="evenodd" d="M558.208 130.054H290.149L201.523 352.407H469.582L558.208 130.054V130.054Z" fill="#E1E6F1"/>
<path fill-rule="evenodd" clip-rule="evenodd" d="M347.664 372.208H498.933V377.29C498.933 386.836 488.974 394.575 476.688 394.575H347.664V372.104L347.664 372.208Z" fill="#E1E6F1"/>
<path d="M489.912 373.215H1.60156" stroke="#000001" stroke-width="2" stroke-linecap="round" stroke-linejoin="round"/>
<path d="M489.912 373.215H1.60156" stroke="#B7C0D2" stroke-width="2" stroke-linecap="round" stroke-linejoin="round"/>
<path d="M288.193 79.9927C292.085 76.6011 297.882 76.6011 301.774 79.9927L433.112 194.453L156.855 194.453L288.193 79.9927Z" fill="#CE4049"/>
<path d="M155.105 199.456C155.105 194.224 159.347 189.982 164.58 189.982L425.323 189.982C430.555 189.982 434.797 194.224 434.797 199.456L434.797 247.892L155.105 247.892L155.105 199.456Z" fill="#CE4049"/>
<path d="M186.707 117.912C186.707 114.107 189.792 111.022 193.597 111.022L396.309 111.022C400.114 111.022 403.199 114.107 403.199 117.912L403.199 274.857C403.199 278.663 400.114 281.748 396.309 281.748L193.597 281.748C189.792 281.748 186.707 278.663 186.707 274.857L186.707 117.912Z" fill="white"/>
<rect x="214.477" y="142.453" width="118.969" height="11.8426" rx="3.44513" fill="#E1E6F1"/>
<rect opacity="0.4" x="214.477" y="165.492" width="160.953" height="11.8426" rx="3.44513" fill="#E1E6F1"/>
<rect opacity="0.4" x="214.477" y="188.531" width="102.279" height="11.8426" rx="3.44513" fill="#E1E6F1"/>
<path d="M155.105 197.682C155.105 194.314 158.797 192.25 161.666 194.013L285.934 270.357C291.465 273.755 298.437 273.755 303.968 270.357L428.236 194.013C431.106 192.25 434.797 194.314 434.797 197.682L434.797 344.518C434.797 348.323 431.712 351.408 427.907 351.408L161.996 351.408C158.19 351.408 155.105 348.323 155.105 344.518L155.105 197.682Z" fill="#FC5761"/>
<rect x="358.871" y="263.358" width="45.9316" height="10.3456" rx="1.72257" fill="#CE4049"/>
<rect x="342.094" y="282.378" width="62.7145" height="10.3456" rx="1.72257" fill="#CE4049"/>
</g>
<defs>
<clipPath id="clip0_3852_30438">
<rect width="592" height="392" fill="white"/>
</clipPath>
</defs>
</svg>
