<svg width="16" height="16" viewBox="0 0 16 16" fill="none" xmlns="http://www.w3.org/2000/svg">
<g clip-path="url(#clip0_3808_26527)">
<path d="M7.1982 0.481727C7.55612 -0.160575 8.44388 -0.160576 8.8018 0.481726L10.7939 4.05664C10.925 4.29193 11.1447 4.45877 11.3993 4.51639L15.2677 5.39197C15.9628 5.54929 16.2371 6.43178 15.7633 6.98606L13.126 10.0711C12.9525 10.2741 12.8686 10.5441 12.8948 10.815L13.2935 14.931C13.3651 15.6705 12.6469 16.2159 11.9962 15.9162L8.37417 14.2479C8.13578 14.1381 7.86422 14.1381 7.62583 14.2479L4.00383 15.9162C3.35307 16.2159 2.63486 15.6705 2.70649 14.931L3.10521 10.815C3.13145 10.5441 3.04753 10.2741 2.87396 10.0711L0.236725 6.98606C-0.237105 6.43178 0.0372265 5.54929 0.732263 5.39197L4.60068 4.51639C4.85529 4.45877 5.07499 4.29193 5.2061 4.05664L7.1982 0.481727Z" fill="#B7C0D2"/>
</g>
<defs>
<clipPath id="clip0_3808_26527">
<rect width="16" height="16" fill="white"/>
</clipPath>
</defs>
</svg>
