<svg width="622" height="468" viewBox="0 0 622 468" fill="none" xmlns="http://www.w3.org/2000/svg">
<g clip-path="url(#clip0_3859_31640)">
<path d="M104.248 354.221V379.469H176.296V235.524L249.275 256.547V303.747H281.09L310.112 274.78V171.021H324.792V138.779H352.609V82.3466H360.245V138.779H388.062V171.021H401.811V252.342H455.16L467.323 264.491L489.068 242.771V95.3192L574.951 71.022V-0.0102539H657.3V36.4355H713.441L786.906 109.813V478.324H56.5056V374.335L104.248 354.221Z" fill="#E1E6F1"/>
<path d="M545.931 14.6804L510.852 47.9444V205.502H545.931H581.01V47.9444L545.931 14.6804Z" fill="#ABBDE3"/>
<path d="M657.271 47.9441H581.008V205.502H657.271V47.9441Z" fill="white"/>
<path d="M622.192 14.6804H545.93L581.009 47.9444H657.271L622.192 14.6804Z" fill="#0A1F48"/>
<path d="M549.1 36.5862H538.68V64.1988H549.1V36.5862Z" fill="#0A1F48"/>
<path d="M532.536 86.7859H520.363V99.6902H532.536V86.7859Z" fill="#0A1F48"/>
<path d="M565.645 86.7859H553.473V99.6902H565.645V86.7859Z" fill="#0A1F48"/>
<path d="M624.735 91.7195H620.309V168.004H624.735V91.7195Z" fill="#0A1F48"/>
<path d="M648.92 68.1565C650.181 64.1473 650.512 59.9047 649.89 55.749C649.267 51.5932 647.707 47.6329 645.327 44.1669C642.947 40.701 639.809 37.82 636.15 35.7414C632.491 33.6628 628.407 32.441 624.206 32.1681C619.719 31.8856 615.23 32.6932 611.124 34.5217C607.018 36.3503 603.417 39.1451 600.63 42.6669C597.843 46.1887 595.953 50.3324 595.122 54.7429C594.292 59.1534 594.544 63.6992 595.859 67.9908C596.925 71.295 597.32 74.7784 597.019 78.2366C596.718 81.6949 595.728 85.0583 594.107 88.1296C591.464 93.0163 590.136 98.5037 590.253 104.056C590.37 109.608 591.928 115.035 594.775 119.806C597.621 124.577 601.659 128.53 606.494 131.278C611.329 134.026 616.795 135.476 622.359 135.485C627.923 135.494 633.393 134.062 638.237 131.33C643.081 128.597 647.132 124.658 649.994 119.896C652.856 115.133 654.431 109.712 654.567 104.16C654.702 98.6085 653.392 93.1169 650.765 88.2216C649.135 85.168 648.132 81.8202 647.815 78.3747C647.499 74.9292 647.874 71.4552 648.92 68.1565V68.1565Z" fill="#FC5761"/>
<path d="M552.231 224.425C552.218 220.535 551.204 216.712 549.287 213.324C547.371 209.936 544.615 207.096 541.284 205.075C537.952 203.054 534.157 201.92 530.261 201.782C526.365 201.644 522.499 202.507 519.033 204.287C516.349 199.867 512.547 196.23 508.009 193.742C503.471 191.253 498.357 190 493.18 190.108C488.004 190.216 482.947 191.682 478.517 194.358C474.088 197.034 470.442 200.827 467.945 205.354C467.41 205.354 466.894 205.446 466.359 205.502C463.267 203.82 459.801 202.941 456.28 202.947C452.759 202.954 449.296 203.844 446.209 205.536C443.123 207.228 440.513 209.668 438.62 212.632C436.726 215.595 435.61 218.986 435.374 222.493C428.472 222.916 421.967 225.855 417.094 230.753C412.221 235.65 409.321 242.164 408.945 249.056H576.779C575.525 243.015 572.535 237.469 568.176 233.095C563.817 228.721 558.276 225.709 552.231 224.425Z" fill="#CE4049"/>
<path d="M980.208 409.864H232.316L377.336 265.119C382.969 259.504 389.655 255.051 397.012 252.016C404.37 248.98 412.255 247.422 420.216 247.429H792.4C808.448 247.433 823.838 253.796 835.189 265.119L980.208 409.864Z" fill="#446089"/>
<path d="M576.817 167.636V249.038H486.574V167.636L531.686 147.994L576.817 167.636Z" fill="white"/>
<path d="M640.177 167.636H576.824V249.056H640.177V167.636Z" fill="#ABBDE3"/>
<path d="M531.707 147.994H595.041L640.172 167.636H576.819L531.707 147.994Z" fill="#0A1F48"/>
<path d="M543.734 213.528H515.977V249.037H543.734V213.528Z" fill="#0A1F48"/>
<path d="M604.281 185.952H590.707V195.8H604.281V185.952Z" fill="#0A1F48"/>
<path d="M630.105 185.952H616.531V195.8H630.105V185.952Z" fill="#0A1F48"/>
<path d="M604.281 208.042H590.707V217.891H604.281V208.042Z" fill="#0A1F48"/>
<path d="M630.105 208.042H616.531V217.891H630.105V208.042Z" fill="#0A1F48"/>
<path d="M475.953 185.252H472.246V249.037H475.953V185.252Z" fill="#0A1F48"/>
<path d="M474.109 219.842C489.438 219.842 501.866 207.438 501.866 192.137C501.866 176.836 489.438 164.432 474.109 164.432C458.779 164.432 446.352 176.836 446.352 192.137C446.352 207.438 458.779 219.842 474.109 219.842Z" fill="#FC5761"/>
<path d="M713.225 231.071C713.209 228.191 712.455 225.364 711.035 222.857C709.614 220.351 707.575 218.248 705.111 216.75C702.648 215.252 699.841 214.408 696.958 214.298C694.075 214.189 691.211 214.817 688.64 216.123C686.651 212.842 683.829 210.142 680.461 208.297C677.092 206.451 673.296 205.524 669.454 205.61C665.612 205.696 661.861 206.791 658.578 208.786C655.296 210.78 652.599 213.603 650.758 216.97L649.578 217.081C647.284 215.833 644.712 215.182 642.1 215.186C639.488 215.191 636.919 215.852 634.63 217.108C632.341 218.364 630.405 220.175 629.002 222.374C627.598 224.573 626.771 227.089 626.597 229.69C621.48 230.007 616.657 232.188 613.043 235.818C609.429 239.449 607.276 244.277 606.992 249.387H731.41C730.49 244.901 728.28 240.779 725.051 237.526C721.821 234.273 717.712 232.03 713.225 231.071V231.071Z" fill="#FC5761"/>
<path d="M316.656 237.772H237.793V410.571H316.656V237.772Z" fill="#ABBDE3"/>
<path d="M316.659 410.553H370.402V237.753H316.659V410.553Z" fill="#D6E3FD"/>
<path d="M316.656 278.178H237.793V284.271H316.656V278.178Z" fill="white"/>
<path d="M316.659 284.271H370.402V278.178H316.659V284.271Z" fill="#ABBDE3"/>
<path d="M259.688 267.538V250.344H250.134V267.538H259.688Z" fill="#0A1F48"/>
<path d="M303.953 267.538V250.344H294.399V267.538H303.953Z" fill="#0A1F48"/>
<path d="M281.934 267.538V250.344H272.38V267.538H281.934Z" fill="#0A1F48"/>
<path d="M316.656 325.837H237.793V331.931H316.656V325.837Z" fill="white"/>
<path d="M316.659 331.931H370.402V325.837H316.659V331.931Z" fill="#ABBDE3"/>
<path d="M259.688 315.197V298.004H250.134V315.197H259.688Z" fill="#0A1F48"/>
<path d="M303.953 315.197V298.004H294.4V315.197H303.953Z" fill="#0A1F48"/>
<path d="M281.934 315.197V298.004H272.38V315.197H281.934Z" fill="#0A1F48"/>
<path d="M316.656 376H237.793V382.093H316.656V376Z" fill="white"/>
<path d="M316.659 382.094H370.402V376H316.659V382.094Z" fill="#ABBDE3"/>
<path d="M259.688 365.378V348.185H250.134V365.378H259.688Z" fill="#0A1F48"/>
<path d="M303.93 365.36V348.167H294.376V365.36H303.93Z" fill="#0A1F48"/>
<path d="M281.914 365.379V348.185H272.36V365.379H281.914Z" fill="#0A1F48"/>
<path d="M430.178 257.671H358.969V413.664H430.178V257.671Z" fill="white"/>
<path d="M430.159 413.682H478.684V257.69H430.159V413.682Z" fill="#ABBDE3"/>
<path d="M384.789 269.452H372.211V281.97H384.789V269.452Z" fill="#0A1F48"/>
<path d="M413.598 269.452H401.02V281.97H413.598V269.452Z" fill="#0A1F48"/>
<path d="M384.789 298.372H372.211V310.89H384.789V298.372Z" fill="#0A1F48"/>
<path d="M413.598 298.372H401.02V310.89H413.598V298.372Z" fill="#0A1F48"/>
<path d="M384.789 327.31H372.211V339.828H384.789V327.31Z" fill="#0A1F48"/>
<path d="M413.598 327.31H401.02V339.828H413.598V327.31Z" fill="#0A1F48"/>
<path d="M384.789 356.248H372.211V368.766H384.789V356.248Z" fill="#0A1F48"/>
<path d="M413.598 356.248H401.02V368.766H413.598V356.248Z" fill="#0A1F48"/>
<path d="M384.789 385.168H372.211V397.685H384.789V385.168Z" fill="#0A1F48"/>
<path d="M413.598 385.168H401.02V397.685H413.598V385.168Z" fill="#0A1F48"/>
<path d="M1105.38 404.091H1066.78C1056.8 404.093 1046.91 402.129 1037.68 398.313C1028.46 394.498 1020.08 388.905 1013.02 381.854L978.366 347.265C960.874 329.836 937.166 320.051 912.45 320.057H650.556C644.94 320.053 639.379 321.172 634.204 323.349C629.029 325.527 624.343 328.718 620.424 332.734C616.506 336.749 613.434 341.509 611.39 346.73C609.346 351.952 608.371 357.529 608.524 363.133V366.428C608.687 372.266 607.675 378.077 605.549 383.518C603.422 388.959 600.224 393.919 596.144 398.105C592.064 402.291 587.184 405.618 581.793 407.888C576.402 410.159 570.61 411.328 564.758 411.326H230.77C225.763 411.322 220.804 412.304 216.177 414.215C211.55 416.126 207.346 418.929 203.806 422.463L189.678 436.619C183.84 442.439 175.927 445.71 167.676 445.713H151.87C146.069 445.713 140.505 448.013 136.403 452.107C132.301 456.202 129.996 461.755 129.996 467.545V474.504H1158.85V457.457C1158.85 443.305 1153.21 429.734 1143.19 419.727C1133.16 409.72 1119.56 404.096 1105.38 404.091V404.091Z" fill="#1D3860"/>
<path d="M532.63 280.829H488.754V474.485H532.63V280.829Z" fill="white"/>
<path d="M488.753 474.504V280.829H438.993V350.1H398.879V474.504H488.753Z" fill="#D6E3FD"/>
<path d="M477.649 290.401H449.449V294.746H477.649V290.401Z" fill="#0A1F48"/>
<path d="M477.649 314.479H449.449V318.824H477.649V314.479Z" fill="#0A1F48"/>
<path d="M477.649 338.539H449.449V342.884H477.649V338.539Z" fill="#0A1F48"/>
<path d="M477.634 362.617H409.91V366.962H477.634V362.617Z" fill="#0A1F48"/>
<path d="M477.634 386.677H409.91V391.022H477.634V386.677Z" fill="#0A1F48"/>
<path d="M477.634 410.755H409.91V415.1H477.634V410.755Z" fill="#0A1F48"/>
<path d="M477.634 434.815H409.91V439.159H477.634V434.815Z" fill="#0A1F48"/>
<path d="M477.634 458.893H409.91V463.237H477.634V458.893Z" fill="#0A1F48"/>
<path d="M500.709 399.084H496.301V475.056H500.709V399.084Z" fill="#0A1F48"/>
<path d="M521.88 430.609C534.787 417.726 534.787 396.84 521.88 383.957C508.973 371.074 488.047 371.074 475.14 383.957C462.233 396.84 462.233 417.726 475.14 430.609C488.047 443.491 508.973 443.491 521.88 430.609Z" fill="#FC5761"/>
<path d="M616.952 231.42H540.652V474.503H616.952V231.42Z" fill="#D6E3FD"/>
<path d="M653.912 259.696L616.934 231.42V474.503H653.912V259.696Z" fill="white"/>
<path d="M593.274 255.812H554.285V263.672H593.274V255.812Z" fill="#0A1F48"/>
<path d="M593.274 276.006H554.285V283.866H593.274V276.006Z" fill="#0A1F48"/>
<path d="M593.274 296.2H554.285V304.06H593.274V296.2Z" fill="#0A1F48"/>
<path d="M593.274 316.32H554.285V324.181H593.274V316.32Z" fill="#0A1F48"/>
<path d="M593.274 336.514H554.285V344.375H593.274V336.514Z" fill="#0A1F48"/>
<path d="M593.274 356.708H554.285V364.569H593.274V356.708Z" fill="#0A1F48"/>
<path d="M593.274 376.921H554.285V384.781H593.274V376.921Z" fill="#0A1F48"/>
<path d="M593.274 396.894H554.285V404.754H593.274V396.894Z" fill="#0A1F48"/>
<path d="M593.274 417.088H554.285V424.948H593.274V417.088Z" fill="#0A1F48"/>
<path d="M593.274 437.282H554.285V445.142H593.274V437.282Z" fill="#0A1F48"/>
<path d="M661.643 449.891C661.627 446.002 660.611 442.182 658.693 438.796C656.775 435.411 654.019 432.573 650.688 430.554C647.357 428.536 643.563 427.404 639.669 427.266C635.775 427.129 631.91 427.992 628.445 429.771C625.757 425.365 621.958 421.74 617.425 419.26C612.893 416.78 607.788 415.532 602.621 415.64C597.454 415.748 592.405 417.209 587.981 419.876C583.557 422.543 579.913 426.324 577.413 430.839C576.878 430.839 576.343 430.931 575.827 431.004C572.739 429.313 569.274 428.426 565.752 428.426C562.23 428.425 558.764 429.311 555.676 431.001C552.588 432.69 549.976 435.13 548.082 438.094C546.189 441.058 545.074 444.451 544.842 447.959C537.961 448.403 531.482 451.351 526.632 456.242C521.782 461.134 518.897 467.631 518.523 474.503H686.136C684.884 468.472 681.903 462.934 677.554 458.564C673.205 454.194 667.677 451.181 661.643 449.891V449.891Z" fill="#FC5761"/>
<path d="M395.135 474.504H165.277L196.907 447.241C205.304 440.008 216.026 436.029 227.118 436.03H261.237C268.222 436.036 274.92 438.802 279.865 443.725L286.173 450.039C290.979 454.829 297.492 457.523 304.284 457.531H365.147C369.279 457.527 373.371 458.337 377.188 459.917C381.006 461.497 384.472 463.814 387.389 466.735L395.135 474.504Z" fill="#142949"/>
<path d="M105.031 242.831C107.756 243.298 108.968 246.526 107.225 248.671L83.1383 278.314C80.9786 280.972 76.6777 279.414 76.7211 275.989L76.9476 258.116C76.9591 257.209 76.6293 256.331 76.0238 255.657L64.0854 242.352C61.7981 239.804 64.0096 235.799 67.3851 236.378L105.031 242.831Z" fill="#FC5761"/>
<path d="M66.6837 258.156C36.0578 261.918 -17.9238 286.423 11.1568 354.348C47.5074 439.255 19.1789 508.229 -132.839 500.384" stroke="#111828" stroke-width="2" stroke-linecap="round" stroke-dasharray="8.43 8.43"/>
</g>
<defs>
<clipPath id="clip0_3859_31640">
<rect width="622" height="468" fill="white"/>
</clipPath>
</defs>
</svg>
