<svg width="628" height="398" viewBox="0 0 628 398" fill="none" xmlns="http://www.w3.org/2000/svg">
<g clip-path="url(#clip0_3843_30274)">
<mask id="mask0_3843_30274" style="mask-type:alpha" maskUnits="userSpaceOnUse" x="-27" y="-82" width="1257" height="480">
<rect x="-27" y="-82" width="1256" height="480" rx="12" fill="#111828"/>
</mask>
<g mask="url(#mask0_3843_30274)">
<path d="M627.64 7.82451C627.617 3.64616 623.102 1.03963 619.472 3.1089L563.521 35.0031C559.023 37.5671 560.283 44.3668 565.402 45.1487L595.682 49.7744C597.037 49.9813 598.265 50.6901 599.121 51.7599L618.268 75.6708C621.504 79.7123 628.022 77.4038 627.994 72.2264L627.64 7.82451Z" fill="#FC5761"/>
<path d="M588.488 65.7744C542.881 139.75 393.533 281.548 161 256.933" stroke="white" stroke-width="2" stroke-linecap="round" stroke-dasharray="14 14"/>
<path d="M7.43324 52.1998C3.39131 51.1406 -0.294888 54.8268 0.764351 58.8687L17.0906 121.168C18.4031 126.176 25.2973 126.719 27.3772 121.978L39.6824 93.9259C40.233 92.6708 41.2353 91.6685 42.4905 91.1179L70.542 78.8127C75.2834 76.7328 74.7408 69.8386 69.7324 68.5261L7.43324 52.1998Z" fill="#FC5761"/>
<path d="M51.0667 100.997C66.7285 112.493 92.1538 151.681 68.5612 216.461C39.0705 297.435 45.5685 377.41 126.543 406.401" stroke="white" stroke-width="2.5" stroke-linecap="round" stroke-dasharray="14 14"/>
<path fill-rule="evenodd" clip-rule="evenodd" d="M137.797 547.163L343.514 547.163C362.927 547.21 378.75 531.631 378.969 512.255L381.992 36.0717C382.02 26.7903 378.333 17.8823 371.75 11.3272C365.167 4.77221 356.234 1.11327 346.936 1.1636L141.218 1.1636C121.809 1.11647 105.992 16.6989 105.785 36.0717L102.762 512.255C102.728 521.534 106.41 530.442 112.99 536.998C119.569 543.553 128.5 547.213 137.797 547.163V547.163Z" fill="#E1E6F1"/>
<path fill-rule="evenodd" clip-rule="evenodd" d="M167.184 547.163L372.901 547.163C392.314 547.21 408.137 531.631 408.356 512.255L411.379 36.0717C411.407 26.7903 407.72 17.8823 401.137 11.3272C394.554 4.77221 385.621 1.11327 376.323 1.1636L170.605 1.1636C151.196 1.11647 135.379 16.6989 135.171 36.0717L132.149 512.255C132.115 521.534 135.797 530.442 142.377 536.998C148.956 543.553 157.887 547.213 167.184 547.163Z" fill="white"/>
<path fill-rule="evenodd" clip-rule="evenodd" d="M174.677 15.5166L216.03 15.5166L216.03 22.8293C216.03 29.6568 221.575 35.1917 228.415 35.1917L315.131 35.1917C321.972 35.1917 327.517 29.6568 327.517 22.8293L327.517 15.5166L368.891 15.5166C375.34 15.511 381.526 18.0656 386.086 22.6172C390.646 27.1687 393.205 33.3436 393.199 39.7804L393.199 508.651C393.205 515.088 390.646 521.262 386.086 525.814C381.526 530.365 375.34 532.92 368.891 532.914L174.677 532.914C168.226 532.92 162.038 530.366 157.475 525.815C152.911 521.264 150.347 515.089 150.347 508.651L150.347 39.7804C150.347 33.3416 152.911 27.1669 157.475 22.6159C162.038 18.065 168.226 15.511 174.677 15.5166Z" fill="#E1E6F1"/>
<rect width="147" height="21" transform="matrix(-1 0 0 1 354.738 15.5225)" fill="#E1E6F1"/>
<rect x="240.797" y="25.6494" width="70.5432" height="24.25" rx="12.125" fill="white"/>
<circle cx="297.633" cy="37.6494" r="7" fill="#E1E6F1"/>
<path d="M360.618 100.431C355.797 96.2291 348.615 96.229 343.794 100.43L181.095 242.222L523.316 242.222L360.618 100.431Z" fill="#CE4049"/>
<path d="M525.48 248.419C525.48 241.937 520.226 236.683 513.744 236.683L190.741 236.683C184.259 236.683 179.004 241.937 179.004 248.419L179.004 308.421L525.48 308.421L525.48 248.419Z" fill="#CE4049"/>
<path d="M486.336 147.404C486.336 142.69 482.514 138.869 477.8 138.869L226.685 138.869C221.971 138.869 218.15 142.69 218.15 147.404L218.15 341.825C218.15 346.539 221.971 350.36 226.685 350.36L477.8 350.36C482.514 350.36 486.336 346.539 486.336 341.825L486.336 147.404Z" fill="white"/>
<rect width="147.376" height="14.6704" rx="4.26776" transform="matrix(-1 -5.18986e-09 -5.18986e-09 1 451.934 177.805)" fill="#E1E6F1"/>
<rect opacity="0.4" width="199.385" height="14.6704" rx="4.26776" transform="matrix(-1 -5.18986e-09 -5.18986e-09 1 451.934 206.346)" fill="#E1E6F1"/>
<rect opacity="0.4" width="126.701" height="14.6704" rx="4.26776" transform="matrix(-1 -5.18986e-09 -5.18986e-09 1 451.934 234.887)" fill="#E1E6F1"/>
<path d="M525.48 246.221C525.48 242.049 520.908 239.492 517.353 241.676L363.412 336.25C356.561 340.459 347.924 340.459 341.072 336.25L187.132 241.676C183.577 239.492 179.004 242.049 179.004 246.221L179.004 428.119C179.004 432.833 182.826 436.654 187.54 436.654L516.945 436.654C521.659 436.654 525.48 432.833 525.48 428.119L525.48 246.221Z" fill="#FC5761"/>
<rect width="56.8991" height="12.816" rx="2.13388" transform="matrix(-1 -5.18986e-09 -5.18986e-09 1 273.059 327.58)" fill="#CE4049"/>
<rect width="77.6894" height="12.816" rx="2.13388" transform="matrix(-1 -5.18986e-09 -5.18986e-09 1 293.848 351.142)" fill="#CE4049"/>
</g>
</g>
<defs>
<clipPath id="clip0_3843_30274">
<rect width="628" height="398" fill="white"/>
</clipPath>
</defs>
</svg>
