<svg width="14" height="16" viewBox="0 0 14 16" fill="none" xmlns="http://www.w3.org/2000/svg">
<g clip-path="url(#clip0_3723_22581)">
<path d="M6.9946 0C10.8345 0 14 2.97431 14 6.65421C14 8.50855 13.3058 10.2301 12.1631 11.6893C10.9025 13.2988 9.34883 14.7012 7.59998 15.8019C7.19972 16.0563 6.83848 16.0755 6.39919 15.8019C4.64037 14.7012 3.08666 13.2988 1.83688 11.6893C0.693398 10.2301 0 8.50855 0 6.65421C0 2.97431 3.16555 0 6.9946 0ZM6.9946 4.62147C5.72489 4.62147 4.68936 5.63824 4.68936 6.8614C4.68936 8.09416 5.72489 9.06374 6.9946 9.06374C8.26514 9.06374 9.31064 8.09416 9.31064 6.8614C9.31064 5.63824 8.26514 4.62147 6.9946 4.62147Z" fill="#FC5761"/>
</g>
<defs>
<clipPath id="clip0_3723_22581">
<rect width="14" height="16" fill="white"/>
</clipPath>
</defs>
</svg>
