<svg width="16" height="16" viewBox="0 0 16 16" fill="none" xmlns="http://www.w3.org/2000/svg">
<g clip-path="url(#clip0_3723_22582)">
<path d="M8 0C12.424 0 16 3.584 16 8C16 12.424 12.424 16 8 16C3.584 16 0 12.424 0 8C0 3.584 3.584 0 8 0ZM7.72 3.944C7.392 3.944 7.12 4.208 7.12 4.544V8.584C7.12 8.792 7.232 8.984 7.416 9.096L10.552 10.968C10.648 11.024 10.752 11.056 10.864 11.056C11.064 11.056 11.264 10.952 11.376 10.76C11.544 10.48 11.456 10.112 11.168 9.936L8.32 8.24V4.544C8.32 4.208 8.048 3.944 7.72 3.944Z" fill="#FC5761"/>
</g>
<defs>
<clipPath id="clip0_3723_22582">
<rect width="16" height="16" fill="white"/>
</clipPath>
</defs>
</svg>
