<svg width="42" height="48" viewBox="0 0 42 48" fill="none" xmlns="http://www.w3.org/2000/svg">
<g clip-path="url(#clip0_3717_23491)">
<circle cx="21" cy="23.9188" r="21" fill="#F4F7FB"/>
<path d="M19.7794 0C19.4337 0 19.1022 0.142469 18.8577 0.396053C18.6132 0.649637 18.4759 0.993578 18.4759 1.3522V11.4231C18.4759 11.7817 18.3385 12.1257 18.094 12.3793C17.8496 12.6328 17.5181 12.7753 17.1724 12.7753H16.5886C16.4172 12.776 16.2473 12.7415 16.0888 12.6738C15.9304 12.6061 15.7865 12.5065 15.6653 12.3808C15.5441 12.2551 15.4481 12.1058 15.3828 11.9414C15.3175 11.777 15.2843 11.6009 15.285 11.4231V1.3522C15.285 0.993578 15.1477 0.649637 14.9032 0.396053C14.6588 0.142469 14.3272 0 13.9814 0H13.7197C13.5485 0 13.3791 0.0350028 13.221 0.102956C13.0628 0.17091 12.9191 0.270491 12.798 0.396053C12.677 0.521615 12.5809 0.670686 12.5154 0.834741C12.4499 0.998796 12.4163 1.17463 12.4163 1.3522V11.4231C12.4163 11.7817 12.279 12.1257 12.0345 12.3793C11.79 12.6328 11.4584 12.7753 11.1127 12.7753H10.5239C10.1782 12.7753 9.84653 12.6328 9.60207 12.3793C9.35761 12.1257 9.2203 11.7817 9.2203 11.4231V1.3522C9.2203 1.17463 9.18665 0.998796 9.12114 0.834741C9.05564 0.670686 8.95958 0.521615 8.83853 0.396053C8.71749 0.270491 8.57375 0.17091 8.4156 0.102956C8.25745 0.0350027 8.08804 0 7.91685 0C7.74567 0 7.57614 0.0350027 7.41798 0.102956C7.25983 0.17091 7.1161 0.270491 6.99505 0.396053C6.87401 0.521615 6.77795 0.670686 6.71244 0.834741C6.64693 0.998796 6.61328 1.17463 6.61328 1.3522V13.6263C6.61303 15.8544 7.45928 17.9928 8.96866 19.578C10.2765 20.9583 11.1338 22.7296 11.4198 24.6422C11.6493 26.1968 11.6966 27.7745 11.5607 29.3409L10.4987 44.2776C10.4679 44.7535 10.5316 45.2308 10.6859 45.6801C10.8403 46.1294 11.0821 46.541 11.3962 46.8894C11.7102 47.2378 12.0898 47.5155 12.5116 47.7054C12.9334 47.8953 13.3883 47.9933 13.8481 47.9933C14.3079 47.9933 14.7628 47.8953 15.1846 47.7054C15.6064 47.5155 15.986 47.2378 16.3001 46.8894C16.6141 46.541 16.8558 46.1294 17.0102 45.6801C17.1645 45.2308 17.2284 44.7535 17.1975 44.2776L16.1355 29.3409C15.9988 27.7743 16.0478 26.1963 16.2815 24.6422C16.5651 22.7288 17.4228 20.9569 18.7326 19.578C20.2388 17.991 21.0829 15.8533 21.0829 13.6263V1.3522C21.0829 0.993578 20.9456 0.649637 20.7012 0.396053C20.4567 0.142469 20.1251 0 19.7794 0Z" fill="#111828"/>
<path d="M30.6655 1.57479e-07H30.4139C29.9603 -0.000144977 29.5119 0.10003 29.0986 0.293797C28.6853 0.487565 28.3166 0.770491 28.0171 1.12373C27.7175 1.47696 27.494 1.89237 27.3614 2.34228C27.2288 2.7922 27.1902 3.26627 27.2481 3.73288L28.4259 13.2817C28.4633 13.582 28.4429 13.8871 28.366 14.1792C28.2892 14.4714 28.1572 14.7448 27.9779 14.9837L25.6376 18.0796C24.4618 19.6388 23.8223 21.561 23.8207 23.5406V24.851C23.7988 30.3095 24.7669 35.7236 26.6743 40.811C28.1137 44.5961 30.0313 48 32.2609 48C32.4779 47.996 32.6919 47.947 32.8904 47.8559C33.0888 47.7648 33.2676 47.6333 33.4163 47.4693C33.565 47.3054 33.6806 47.1122 33.7562 46.9011C33.8317 46.6901 33.8657 46.4655 33.8563 46.2406V3.31C33.8563 2.87533 33.7739 2.44491 33.6135 2.04332C33.4531 1.64174 33.218 1.27686 32.9217 0.969499C32.6254 0.662139 32.2736 0.418301 31.8865 0.251958C31.4994 0.0856161 31.0845 1.57479e-07 30.6655 1.57479e-07Z" fill="#FC5761"/>
</g>
<defs>
<clipPath id="clip0_3717_23491">
<rect width="42" height="48" fill="white"/>
</clipPath>
</defs>
</svg>
