<svg width="14" height="16" viewBox="0 0 14 16" fill="none" xmlns="http://www.w3.org/2000/svg">
<g clip-path="url(#clip0_3719_23275)">
<path fill-rule="evenodd" clip-rule="evenodd" d="M13.9325 11.3559L13.3345 6.53784C12.9702 4.81861 11.9391 4.11111 10.9561 4.11111H3.058C2.06128 4.11111 0.995823 4.76909 0.686497 6.53784L0.0815925 11.3559C-0.41333 14.8934 1.40826 15.7778 3.78663 15.7778H10.2344C12.6059 15.7778 14.3725 14.4972 13.9325 11.3559ZM4.74186 8.11561C4.36223 8.11561 4.05447 7.79886 4.05447 7.40811C4.05447 7.01737 4.36223 6.70062 4.74186 6.70062C5.1215 6.70062 5.42925 7.01737 5.42925 7.40811C5.42925 7.79886 5.1215 8.11561 4.74186 8.11561ZM8.55707 7.40811C8.55707 7.79886 8.86483 8.11561 9.24446 8.11561C9.6241 8.11561 9.93186 7.79886 9.93186 7.40811C9.93186 7.01737 9.6241 6.70062 9.24446 6.70062C8.86483 6.70062 8.55707 7.01737 8.55707 7.40811Z" fill="#FC5761"/>
<path d="M10.8686 3.93559C10.871 3.99592 10.8594 4.05599 10.8347 4.11112H9.71694C9.69529 4.05507 9.68382 3.99564 9.68306 3.93559C9.68306 2.4442 8.46989 1.23519 6.97336 1.23519C5.47683 1.23519 4.26365 2.4442 4.26365 3.93559C4.2739 3.99365 4.2739 4.05306 4.26365 4.11112H3.1188C3.10854 4.05306 3.10854 3.99365 3.1188 3.93559C3.20578 1.86016 4.91944 0.222229 7.00384 0.222229C9.08825 0.222229 10.8019 1.86016 10.8889 3.93559H10.8686Z" fill="#111828"/>
</g>
<defs>
<clipPath id="clip0_3719_23275">
<rect width="14" height="16" fill="white"/>
</clipPath>
</defs>
</svg>
