<svg width="18" height="16" viewBox="0 0 18 16" fill="none" xmlns="http://www.w3.org/2000/svg">
<g clip-path="url(#clip0_3811_25531)">
<path d="M8.99495 0C12.7251 0 15.8002 2.97431 15.8002 6.65421C15.8002 8.50855 15.1258 10.2301 14.0158 11.6893C12.7912 13.2988 11.2819 14.7012 9.58303 15.8019C9.1942 16.0563 8.84329 16.0755 8.41656 15.8019C6.70798 14.7012 5.19867 13.2988 3.9846 11.6893C2.87378 10.2301 2.2002 8.50855 2.2002 6.65421C2.2002 2.97431 5.2753 0 8.99495 0ZM8.99495 4.62147C7.76152 4.62147 6.75558 5.63824 6.75558 6.8614C6.75558 8.09416 7.76152 9.06374 8.99495 9.06374C10.2292 9.06374 11.2448 8.09416 11.2448 6.8614C11.2448 5.63824 10.2292 4.62147 8.99495 4.62147Z" fill="#FC5761"/>
</g>
<defs>
<clipPath id="clip0_3811_25531">
<rect width="18" height="16" fill="white"/>
</clipPath>
</defs>
</svg>
