<svg width="208" height="34" viewBox="0 0 208 34" fill="none" xmlns="http://www.w3.org/2000/svg">
<g clip-path="url(#clip0_3910_37445)">
<path d="M24.5854 5.29769C26.9069 4.68933 29.024 6.80646 28.4156 9.1279L23.0896 29.4515C22.3358 32.3279 18.3762 32.6396 17.1816 29.9165L13.5922 21.7339C13.276 21.013 12.7003 20.4373 11.9794 20.1211L3.79686 16.5317C1.07372 15.3372 1.38537 11.3776 4.26186 10.6237L24.5854 5.29769Z" fill="#FC5761"/>
<path d="M46.5108 7.17979V21.8433H54.0207V25H43.1758V7.17979H46.5108ZM61.6591 25.3564C60.4541 25.3564 59.334 25.0594 58.2987 24.4654C57.2804 23.8544 56.4658 23.0398 55.8548 22.0215C55.2608 20.9862 54.9638 19.8661 54.9638 18.6611C54.9638 17.4561 55.2608 16.3445 55.8548 15.3262C56.4658 14.2909 57.2804 13.4763 58.2987 12.8823C59.334 12.2713 60.4541 11.9658 61.6591 11.9658C62.8641 11.9658 63.9758 12.2713 64.994 12.8823C66.0293 13.4763 66.844 14.2909 67.438 15.3262C68.0489 16.3445 68.3544 17.4561 68.3544 18.6611C68.3544 19.8661 68.0489 20.9862 67.438 22.0215C66.844 23.0398 66.0293 23.8544 64.994 24.4654C63.9758 25.0594 62.8641 25.3564 61.6591 25.3564ZM61.6337 22.1997C62.2786 22.1997 62.8726 22.0469 63.4157 21.7414C63.9588 21.419 64.3916 20.9862 64.714 20.4431C65.0365 19.9 65.1977 19.306 65.1977 18.6611C65.1977 18.0162 65.0365 17.4222 64.714 16.8791C64.3916 16.336 63.9588 15.9032 63.4157 15.5807C62.8726 15.2583 62.2786 15.0971 61.6337 15.0971C60.9887 15.0971 60.3947 15.2583 59.8516 15.5807C59.3086 15.9032 58.8758 16.336 58.5533 16.8791C58.2478 17.4222 58.0951 18.0162 58.0951 18.6611C58.0951 19.306 58.2478 19.9 58.5533 20.4431C58.8758 20.9862 59.3086 21.419 59.8516 21.7414C60.3947 22.0469 60.9887 22.1997 61.6337 22.1997ZM81.7997 22.5306C81.1718 23.3962 80.3826 24.0835 79.4322 24.5927C78.4818 25.1018 77.455 25.3564 76.3518 25.3564C75.1469 25.3564 74.0267 25.0594 72.9915 24.4654C71.9732 23.8544 71.1585 23.0398 70.5476 22.0215C69.9535 20.9862 69.6565 19.8661 69.6565 18.6611C69.6565 17.4561 69.9535 16.3445 70.5476 15.3262C71.1585 14.2909 71.9732 13.4763 72.9915 12.8823C74.0267 12.2713 75.1469 11.9658 76.3518 11.9658C77.438 11.9658 78.4563 12.2204 79.4067 12.7295C80.3572 13.2217 81.1463 13.8921 81.7743 14.7406L79.1776 16.4972C78.38 15.5638 77.438 15.0971 76.3518 15.0971C75.7069 15.0971 75.1129 15.2583 74.5698 15.5807C74.0267 15.9032 73.594 16.336 73.2715 16.8791C72.949 17.4222 72.7878 18.0162 72.7878 18.6611C72.7878 19.306 72.949 19.9 73.2715 20.4431C73.594 20.9862 74.0267 21.419 74.5698 21.7414C75.1129 22.0469 75.7069 22.1997 76.3518 22.1997C77.438 22.1997 78.38 21.733 79.1776 20.7995L81.7997 22.5306ZM93.2266 12.2713H96.3833V25H93.2266V23.7526C92.6325 24.2617 91.9791 24.6606 91.2663 24.9491C90.5705 25.2206 89.8322 25.3564 89.0515 25.3564C87.7617 25.3564 86.6331 25.0679 85.6657 24.4909C84.6983 23.9138 83.9516 23.1161 83.4254 22.0979C82.9163 21.0796 82.6617 19.934 82.6617 18.6611C82.6617 17.3882 82.9163 16.2426 83.4254 15.2243C83.9516 14.206 84.6983 13.4084 85.6657 12.8313C86.6331 12.2373 87.7617 11.9403 89.0515 11.9403C89.8322 11.9403 90.5705 12.0846 91.2663 12.3731C91.9791 12.6447 92.6325 13.035 93.2266 13.5441V12.2713ZM89.4589 22.327C90.1547 22.327 90.7826 22.1742 91.3427 21.8687C91.9197 21.5463 92.3695 21.105 92.6919 20.5449C93.0314 19.9849 93.2011 19.3484 93.2011 18.6356C93.2011 17.5664 92.8362 16.6924 92.1064 16.0135C91.3936 15.3347 90.5111 14.9952 89.4589 14.9952C88.3896 14.9952 87.5071 15.3431 86.8113 16.039C86.1324 16.7178 85.793 17.5919 85.793 18.6611C85.793 19.7303 86.1324 20.6128 86.8113 21.3087C87.5071 21.9875 88.3896 22.327 89.4589 22.327ZM102.414 21.4105C102.414 21.682 102.482 21.8772 102.618 21.996C102.754 22.1148 102.966 22.1742 103.254 22.1742C103.475 22.1742 103.738 22.1488 104.044 22.0979V25C103.416 25.1018 102.83 25.1527 102.287 25.1527C101.303 25.1527 100.547 24.8982 100.021 24.389C99.5122 23.8629 99.2576 22.9379 99.2576 21.6142V7.17979H102.414V21.4105ZM109.955 7.17979V21.8433H117.465V25H106.621V7.17979H109.955ZM121.447 10.1583C120.853 10.1583 120.386 9.99708 120.047 9.67462C119.707 9.35216 119.537 8.91089 119.537 8.35083C119.537 7.77379 119.707 7.32405 120.047 7.00159C120.386 6.67912 120.853 6.51789 121.447 6.51789C122.041 6.51789 122.507 6.67912 122.847 7.00159C123.186 7.32405 123.356 7.77379 123.356 8.35083C123.356 8.89392 123.178 9.33518 122.821 9.67462C122.482 9.99708 122.024 10.1583 121.447 10.1583ZM119.843 25V12.2713H123V25H119.843ZM128.558 15.8353C128.558 16.1917 128.753 16.4633 129.144 16.65C129.551 16.8197 130.188 16.9979 131.053 17.1846C132.037 17.3882 132.861 17.6173 133.523 17.8719C134.184 18.1265 134.753 18.5338 135.228 19.0939C135.72 19.637 135.966 20.3752 135.966 21.3087C135.966 22.1403 135.712 22.8616 135.203 23.4726C134.711 24.0835 134.049 24.5503 133.217 24.8727C132.385 25.1782 131.477 25.3309 130.493 25.3309C129.152 25.3309 127.998 25.0764 127.031 24.5672C126.08 24.0581 125.376 23.3283 124.918 22.3779L127.515 21.0286C127.973 22.1997 128.966 22.7852 130.493 22.7852C131.155 22.7852 131.724 22.6579 132.199 22.4033C132.674 22.1488 132.912 21.7839 132.912 21.3087C132.912 20.9014 132.691 20.6043 132.25 20.4177C131.825 20.214 131.13 19.9934 130.162 19.7558C129.161 19.5182 128.346 19.2806 127.718 19.043C127.09 18.8054 126.547 18.4405 126.089 17.9483C125.631 17.4391 125.402 16.7688 125.402 15.9371C125.402 15.1225 125.631 14.4182 126.089 13.8242C126.547 13.2132 127.167 12.7465 127.947 12.424C128.728 12.1016 129.585 11.9403 130.519 11.9403C131.622 11.9403 132.606 12.1694 133.472 12.6277C134.354 13.0859 135.033 13.7393 135.508 14.5879L132.937 15.8862C132.496 14.9358 131.69 14.4606 130.519 14.4606C129.925 14.4606 129.449 14.5879 129.093 14.8425C128.737 15.0801 128.558 15.411 128.558 15.8353ZM142.32 20.6468C142.32 21.2238 142.456 21.6226 142.728 21.8433C142.999 22.0639 143.432 22.1742 144.026 22.1742C144.382 22.1742 144.773 22.1488 145.197 22.0979V25C144.399 25.0849 143.737 25.1273 143.211 25.1273C141.854 25.1273 140.835 24.8218 140.156 24.2108C139.494 23.5829 139.164 22.4627 139.164 20.8504V15.0971H136.771V12.2713H139.164V9.14001L142.32 8.0708V12.2713H145.146V15.0971H142.32V20.6468ZM149.365 10.1583C148.771 10.1583 148.305 9.99708 147.965 9.67462C147.626 9.35216 147.456 8.91089 147.456 8.35083C147.456 7.77379 147.626 7.32405 147.965 7.00159C148.305 6.67912 148.771 6.51789 149.365 6.51789C149.959 6.51789 150.426 6.67912 150.766 7.00159C151.105 7.32405 151.275 7.77379 151.275 8.35083C151.275 8.89392 151.096 9.33518 150.74 9.67462C150.401 9.99708 149.942 10.1583 149.365 10.1583ZM147.762 25V12.2713H150.918V25H147.762ZM160.542 11.9403C161.289 11.9403 162.044 12.1016 162.808 12.424C163.588 12.7295 164.25 13.2896 164.793 14.1042C165.353 14.9189 165.633 16.0135 165.633 17.3882V25H162.477V17.3882C162.477 16.4378 162.205 15.7589 161.662 15.3516C161.136 14.9273 160.516 14.7152 159.804 14.7152C159.091 14.7152 158.48 14.9698 157.971 15.4789C157.478 15.9711 157.232 16.7688 157.232 17.8719V25H154.076V12.2713H157.232V13.3405C157.691 12.9162 158.2 12.5768 158.76 12.3222C159.32 12.0676 159.914 11.9403 160.542 11.9403ZM178.152 12.2713H181.308V24.3636C181.308 25.5685 181.003 26.6293 180.392 27.5457C179.798 28.4622 178.966 29.1665 177.897 29.6587C176.828 30.1679 175.631 30.4224 174.308 30.4224C172.831 30.4224 171.49 30.1339 170.285 29.5569C169.08 28.9968 168.232 28.2586 167.739 27.3421L170.438 25.7892C170.693 26.2814 171.168 26.6887 171.864 27.0111C172.559 27.3506 173.4 27.5203 174.384 27.5203C175.47 27.5203 176.37 27.2233 177.082 26.6293C177.795 26.0522 178.152 25.297 178.152 24.3636V23.778C177.575 24.2872 176.93 24.6775 176.217 24.9491C175.504 25.2206 174.766 25.3564 174.002 25.3564C172.712 25.3564 171.584 25.0679 170.616 24.4909C169.649 23.9138 168.902 23.1161 168.376 22.0979C167.867 21.0796 167.612 19.934 167.612 18.6611C167.612 17.3882 167.867 16.2426 168.376 15.2243C168.902 14.206 169.649 13.4084 170.616 12.8313C171.584 12.2373 172.712 11.9403 174.002 11.9403C174.766 11.9403 175.496 12.0846 176.191 12.3731C176.904 12.6447 177.558 13.0265 178.152 13.5187V12.2713ZM174.409 22.327C175.105 22.327 175.733 22.1742 176.293 21.8687C176.87 21.5463 177.32 21.105 177.642 20.5449C177.982 19.9849 178.152 19.3484 178.152 18.6356C178.152 17.5664 177.787 16.6924 177.057 16.0135C176.344 15.3347 175.462 14.9952 174.409 14.9952C173.34 14.9952 172.458 15.3431 171.762 16.039C171.083 16.7178 170.743 17.5919 170.743 18.6611C170.743 19.7303 171.083 20.6128 171.762 21.3087C172.458 21.9875 173.34 22.327 174.409 22.327ZM200.36 16.0644L206.139 25H202.167L198.043 18.6102L193.919 25H189.948L195.727 16.0644L189.973 7.17979H193.945L198.043 13.5187L202.142 7.17979H206.113L200.36 16.0644Z" fill="white"/>
</g>
<defs>
<clipPath id="clip0_3910_37445">
<rect width="208" height="34" fill="white"/>
</clipPath>
</defs>
</svg>
