<svg width="212" height="36" viewBox="0 0 212 36" fill="none" xmlns="http://www.w3.org/2000/svg">
<g clip-path="url(#clip0_3712_22781)">
<path d="M24.2476 5.98243C26.6315 5.35768 28.8057 7.53184 28.1809 9.91581L22.7114 30.7868C21.9373 33.7408 17.871 34.0608 16.6443 31.2643L12.9582 22.8613C12.6335 22.1211 12.0423 21.5299 11.302 21.2051L2.89903 17.519C0.102542 16.2923 0.422581 12.2261 3.37655 11.4519L24.2476 5.98243Z" fill="#FC5761"/>
<path d="M46.7636 8.69978V23.7582H54.4758V27H43.3388V8.69978H46.7636ZM62.32 27.366C61.0826 27.366 59.9323 27.061 58.8691 26.451C57.8234 25.8236 56.9868 24.987 56.3594 23.9412C55.7493 22.8781 55.4443 21.7278 55.4443 20.4904C55.4443 19.2529 55.7493 18.1113 56.3594 17.0656C56.9868 16.0024 57.8234 15.1659 58.8691 14.5559C59.9323 13.9284 61.0826 13.6147 62.32 13.6147C63.5574 13.6147 64.699 13.9284 65.7448 14.5559C66.8079 15.1659 67.6445 16.0024 68.2545 17.0656C68.8819 18.1113 69.1957 19.2529 69.1957 20.4904C69.1957 21.7278 68.8819 22.8781 68.2545 23.9412C67.6445 24.987 66.8079 25.8236 65.7448 26.451C64.699 27.061 63.5574 27.366 62.32 27.366ZM62.2939 24.1243C62.9562 24.1243 63.5662 23.9674 64.1239 23.6537C64.6816 23.3225 65.126 22.8781 65.4572 22.3204C65.7883 21.7627 65.9539 21.1526 65.9539 20.4904C65.9539 19.8281 65.7883 19.218 65.4572 18.6603C65.126 18.1026 64.6816 17.6582 64.1239 17.327C63.5662 16.9959 62.9562 16.8303 62.2939 16.8303C61.6316 16.8303 61.0216 16.9959 60.4638 17.327C59.9061 17.6582 59.4617 18.1026 59.1305 18.6603C58.8168 19.218 58.66 19.8281 58.66 20.4904C58.66 21.1526 58.8168 21.7627 59.1305 22.3204C59.4617 22.8781 59.9061 23.3225 60.4638 23.6537C61.0216 23.9674 61.6316 24.1243 62.2939 24.1243ZM83.0031 24.4641C82.3583 25.353 81.5478 26.0588 80.5718 26.5817C79.5958 27.1046 78.5414 27.366 77.4085 27.366C76.171 27.366 75.0207 27.061 73.9576 26.451C72.9119 25.8236 72.0753 24.987 71.4478 23.9412C70.8378 22.8781 70.5328 21.7278 70.5328 20.4904C70.5328 19.2529 70.8378 18.1113 71.4478 17.0656C72.0753 16.0024 72.9119 15.1659 73.9576 14.5559C75.0207 13.9284 76.171 13.6147 77.4085 13.6147C78.5239 13.6147 79.5697 13.8761 80.5457 14.399C81.5217 14.9044 82.3321 15.5929 82.977 16.4643L80.3104 18.2682C79.4912 17.3096 78.5239 16.8303 77.4085 16.8303C76.7462 16.8303 76.1362 16.9959 75.5785 17.327C75.0207 17.6582 74.5763 18.1026 74.2452 18.6603C73.914 19.218 73.7484 19.8281 73.7484 20.4904C73.7484 21.1526 73.914 21.7627 74.2452 22.3204C74.5763 22.8781 75.0207 23.3225 75.5785 23.6537C76.1362 23.9674 76.7462 24.1243 77.4085 24.1243C78.5239 24.1243 79.4912 23.645 80.3104 22.6864L83.0031 24.4641ZM94.7377 13.9284H97.9795V27H94.7377V25.719C94.1277 26.2418 93.4567 26.6514 92.7247 26.9477C92.0101 27.2266 91.252 27.366 90.4503 27.366C89.1257 27.366 87.9667 27.0697 86.9732 26.4771C85.9798 25.8846 85.2129 25.0654 84.6726 24.0197C84.1498 22.974 83.8883 21.7975 83.8883 20.4904C83.8883 19.1832 84.1498 18.0067 84.6726 16.961C85.2129 15.9153 85.9798 15.0961 86.9732 14.5036C87.9667 13.8936 89.1257 13.5886 90.4503 13.5886C91.252 13.5886 92.0101 13.7367 92.7247 14.033C93.4567 14.3118 94.1277 14.7127 94.7377 15.2356V13.9284ZM90.8685 24.255C91.5831 24.255 92.228 24.0981 92.8031 23.7844C93.3957 23.4532 93.8576 23.0001 94.1887 22.4249C94.5373 21.8498 94.7116 21.1962 94.7116 20.4642C94.7116 19.3662 94.3369 18.4686 93.5874 17.7715C92.8554 17.0743 91.9491 16.7257 90.8685 16.7257C89.7705 16.7257 88.8642 17.083 88.1497 17.7976C87.4525 18.4948 87.1039 19.3923 87.1039 20.4904C87.1039 21.5884 87.4525 22.4947 88.1497 23.2092C88.8642 23.9064 89.7705 24.255 90.8685 24.255ZM104.173 23.3138C104.173 23.5927 104.243 23.7931 104.382 23.9151C104.522 24.0371 104.739 24.0981 105.036 24.0981C105.262 24.0981 105.532 24.072 105.846 24.0197V27C105.201 27.1046 104.6 27.1569 104.042 27.1569C103.031 27.1569 102.256 26.8954 101.716 26.3726C101.193 25.8323 100.931 24.8824 100.931 23.523V8.69978H104.173V23.3138ZM111.917 8.69978V23.7582H119.63V27H108.493V8.69978H111.917ZM123.718 11.7585C123.108 11.7585 122.629 11.593 122.28 11.2618C121.932 10.9307 121.757 10.4775 121.757 9.90236C121.757 9.30979 121.932 8.84792 122.28 8.51678C122.629 8.18563 123.108 8.02006 123.718 8.02006C124.328 8.02006 124.807 8.18563 125.156 8.51678C125.505 8.84792 125.679 9.30979 125.679 9.90236C125.679 10.4601 125.496 10.9132 125.13 11.2618C124.781 11.593 124.311 11.7585 123.718 11.7585ZM122.071 27V13.9284H125.313V27H122.071ZM131.021 17.5885C131.021 17.9545 131.222 18.2333 131.622 18.425C132.041 18.5993 132.694 18.7823 133.583 18.974C134.594 19.1832 135.439 19.4185 136.119 19.6799C136.799 19.9413 137.383 20.3596 137.871 20.9348C138.376 21.4925 138.629 22.2507 138.629 23.2092C138.629 24.0633 138.367 24.804 137.845 25.4314C137.339 26.0588 136.659 26.5381 135.805 26.8693C134.951 27.183 134.019 27.3399 133.008 27.3399C131.631 27.3399 130.446 27.0784 129.453 26.5556C128.477 26.0327 127.753 25.2833 127.283 24.3073L129.949 22.9217C130.42 24.1243 131.439 24.7255 133.008 24.7255C133.688 24.7255 134.272 24.5948 134.76 24.3334C135.248 24.072 135.492 23.6972 135.492 23.2092C135.492 22.7909 135.265 22.4859 134.812 22.2942C134.376 22.0851 133.662 21.8585 132.668 21.6145C131.64 21.3705 130.803 21.1265 130.158 20.8825C129.514 20.6385 128.956 20.2638 128.485 19.7583C128.015 19.2355 127.779 18.547 127.779 17.693C127.779 16.8564 128.015 16.1332 128.485 15.5231C128.956 14.8957 129.592 14.4164 130.394 14.0853C131.195 13.7541 132.076 13.5886 133.034 13.5886C134.167 13.5886 135.178 13.8238 136.067 14.2944C136.973 14.765 137.67 15.436 138.158 16.3074L135.518 17.6407C135.065 16.6647 134.237 16.1767 133.034 16.1767C132.424 16.1767 131.936 16.3074 131.57 16.5689C131.204 16.8129 131.021 17.1527 131.021 17.5885ZM145.154 22.5295C145.154 23.1221 145.293 23.5317 145.572 23.7582C145.851 23.9848 146.295 24.0981 146.905 24.0981C147.271 24.0981 147.672 24.072 148.108 24.0197V27C147.289 27.0871 146.609 27.1307 146.069 27.1307C144.675 27.1307 143.629 26.817 142.932 26.1896C142.252 25.5447 141.912 24.3944 141.912 22.7387V16.8303H139.455V13.9284H141.912V10.7128L145.154 9.61479V13.9284H148.056V16.8303H145.154V22.5295ZM152.389 11.7585C151.779 11.7585 151.299 11.593 150.951 11.2618C150.602 10.9307 150.428 10.4775 150.428 9.90236C150.428 9.30979 150.602 8.84792 150.951 8.51678C151.299 8.18563 151.779 8.02006 152.389 8.02006C152.999 8.02006 153.478 8.18563 153.827 8.51678C154.175 8.84792 154.349 9.30979 154.349 9.90236C154.349 10.4601 154.166 10.9132 153.8 11.2618C153.452 11.593 152.981 11.7585 152.389 11.7585ZM150.742 27V13.9284H153.983V27H150.742ZM163.866 13.5886C164.633 13.5886 165.409 13.7541 166.193 14.0853C166.995 14.399 167.674 14.9741 168.232 15.8107C168.807 16.6473 169.095 17.7715 169.095 19.1832V27H165.853V19.1832C165.853 18.2072 165.574 17.51 165.017 17.0917C164.476 16.656 163.84 16.4382 163.108 16.4382C162.376 16.4382 161.749 16.6996 161.226 17.2225C160.72 17.7279 160.468 18.547 160.468 19.6799V27H157.226V13.9284H160.468V15.0264C160.938 14.5907 161.461 14.2421 162.036 13.9807C162.611 13.7193 163.221 13.5886 163.866 13.5886ZM181.95 13.9284H185.192V26.3464C185.192 27.5839 184.878 28.6732 184.251 29.6143C183.641 30.5555 182.787 31.2788 181.689 31.7842C180.591 32.3071 179.362 32.5685 178.003 32.5685C176.486 32.5685 175.11 32.2722 173.872 31.6796C172.635 31.1045 171.763 30.3463 171.258 29.4052L174.029 27.8104C174.29 28.3159 174.778 28.7342 175.493 29.0653C176.208 29.4139 177.07 29.5882 178.081 29.5882C179.197 29.5882 180.12 29.2832 180.852 28.6732C181.584 28.0806 181.95 27.305 181.95 26.3464V25.7451C181.358 26.268 180.695 26.6689 179.963 26.9477C179.231 27.2266 178.473 27.366 177.689 27.366C176.364 27.366 175.205 27.0697 174.212 26.4771C173.219 25.8846 172.452 25.0654 171.911 24.0197C171.388 22.974 171.127 21.7975 171.127 20.4904C171.127 19.1832 171.388 18.0067 171.911 16.961C172.452 15.9153 173.219 15.0961 174.212 14.5036C175.205 13.8936 176.364 13.5886 177.689 13.5886C178.473 13.5886 179.223 13.7367 179.937 14.033C180.669 14.3118 181.34 14.704 181.95 15.2094V13.9284ZM178.107 24.255C178.822 24.255 179.467 24.0981 180.042 23.7844C180.634 23.4532 181.096 23.0001 181.427 22.4249C181.776 21.8498 181.95 21.1962 181.95 20.4642C181.95 19.3662 181.576 18.4686 180.826 17.7715C180.094 17.0743 179.188 16.7257 178.107 16.7257C177.009 16.7257 176.103 17.083 175.388 17.7976C174.691 18.4948 174.343 19.3923 174.343 20.4904C174.343 21.5884 174.691 22.4947 175.388 23.2092C176.103 23.9064 177.009 24.255 178.107 24.255ZM204.757 17.8237L210.691 27H206.613L202.378 20.4381L198.143 27H194.064L199.999 17.8237L194.09 8.69978H198.169L202.378 15.2094L206.587 8.69978H210.665L204.757 17.8237Z" fill="#111828"/>
</g>
<defs>
<clipPath id="clip0_3712_22781">
<rect width="212" height="36" fill="white"/>
</clipPath>
</defs>
</svg>
