<svg width="60" height="60" viewBox="0 0 60 60" fill="none" xmlns="http://www.w3.org/2000/svg">
<g clip-path="url(#clip0_3822_26943)">
<circle cx="30" cy="30" r="30" fill="#FFEFF0"/>
<mask id="mask0_3822_26943" style="mask-type:alpha" maskUnits="userSpaceOnUse" x="0" y="0" width="60" height="60">
<circle cx="30" cy="30" r="30" fill="#FFEFF0"/>
</mask>
<g mask="url(#mask0_3822_26943)">
<path d="M41.0674 13.5482C41.9964 13.6738 42.9342 13.7491 43.8499 13.9381C45.2501 14.2335 46.6384 14.5791 48.0238 14.9351C48.308 14.997 48.5641 15.1505 48.7527 15.3719C48.9413 15.5933 49.052 15.8705 49.068 16.1609C49.1271 16.7148 48.8036 17.2391 48.1907 17.5123C45.7065 18.6215 43.2119 19.7056 40.4515 20.2004C40.5201 20.2502 40.5945 20.2913 40.673 20.323C43.9799 20.9566 46.8762 22.4926 49.5687 24.4392C50.8802 25.3904 52.0898 26.4833 53.326 27.5408C53.8622 27.9972 53.9862 28.5747 53.7588 29.1285C53.5313 29.6824 53.0203 29.9851 52.3335 29.963C49.7696 29.8803 47.2085 29.7577 44.6889 29.2245C43.6284 29.0015 42.5783 28.7356 41.6109 28.0828C41.159 28.6736 40.5032 28.6441 39.8386 28.6367C38.9302 28.6278 38.0219 28.6485 37.1136 28.6278C36.737 28.619 36.3633 28.52 35.9867 28.4934C35.7367 28.4938 35.4869 28.5116 35.2394 28.5466C36.0665 29.2688 36.8433 29.8995 37.57 30.5848C40.4131 33.2654 42.6462 36.4202 44.5559 39.8039C48.1006 46.0809 50.5686 52.7788 52.2774 59.7692C52.5108 60.7204 52.2479 61.2461 51.3691 61.6567C48.7239 62.8944 46.0875 62.6906 43.4571 61.6139C42.7806 61.3362 42.5576 60.7824 42.5192 60.0882C42.4528 58.8816 42.3966 57.669 42.2475 56.4697C41.6862 52.0019 40.3969 47.7351 38.5684 43.6277C36.2888 38.5513 33.3143 33.8167 29.7304 29.5598C29.7008 29.5258 29.661 29.5007 29.6772 29.5155C28.9387 30.4474 28.2741 31.4636 27.4278 32.2847C26.4524 33.2496 25.5555 34.2907 24.7457 35.3981C24.2864 36.0096 23.7783 36.5797 23.3116 37.1882C22.96 37.646 22.5731 38.0227 21.9602 38.033C21.6057 40.2913 20.3961 42.1182 19.216 43.9408C18.448 45.1312 17.5736 46.2507 16.7569 47.4086C16.3537 47.9802 15.8471 48.3052 15.1322 48.1324C14.5104 47.9847 14.1279 47.481 14.125 46.6244C14.1161 44.5729 14.0689 42.5126 14.2239 40.47C14.4086 37.875 15.0779 35.3377 16.1971 32.9892C17.0405 31.2272 18.2235 29.7208 19.6059 28.3605C19.7382 28.2457 19.8778 28.1396 20.0239 28.043L19.9545 27.9366C19.6591 27.9366 19.3755 27.9248 19.0875 27.9366C18.4022 27.9662 17.7184 28.0134 17.0345 28.0385C16.8764 28.0624 16.7147 28.036 16.5723 27.9632C16.0967 27.5925 15.7275 27.8672 15.2962 28.0725C13.8281 28.7681 12.2419 29.062 10.6512 29.291C9.35887 29.4756 8.05768 29.5952 6.75797 29.7119C5.99144 29.7798 5.49076 29.5051 5.25297 28.9513C4.97678 28.3088 5.18502 27.7697 5.6473 27.3045C8.28365 24.6223 11.1991 22.3449 14.7468 20.9684C16.8173 20.1548 19.0562 19.8632 21.266 20.1191C22.7119 20.2831 24.1372 20.6435 25.5639 20.9477C25.8224 21.0024 25.9287 20.9595 26.0557 20.7498C27.385 18.5447 29.3168 16.9939 31.482 15.6854C33.5376 14.4159 35.8881 13.7033 38.3025 13.6176C38.3956 13.6041 38.4872 13.5813 38.5758 13.5497L41.0674 13.5482Z" fill="#FC5761"/>
</g>
</g>
<defs>
<clipPath id="clip0_3822_26943">
<rect width="60" height="60" fill="white"/>
</clipPath>
</defs>
</svg>
