<svg width="14" height="18" viewBox="0 0 14 18" fill="none" xmlns="http://www.w3.org/2000/svg">
<g clip-path="url(#clip0_3817_27071)">
<path d="M12.8116 6.8068C12.8116 10.1546 10.1088 12.8636 6.78081 12.8636C3.45279 12.8636 0.75 10.1546 0.75 6.8068C0.75 3.45901 3.45279 0.75 6.78081 0.75C10.1088 0.75 12.8116 3.45901 12.8116 6.8068Z" stroke="#B7C0D2" stroke-width="1.5" stroke-linecap="round" stroke-linejoin="round"/>
<path d="M6.78343 9.86351C8.46521 9.86351 9.82857 8.49493 9.82857 6.80669C9.82857 5.11846 8.46521 3.74988 6.78343 3.74988C5.10164 3.74988 3.73828 5.11846 3.73828 6.80669C3.73828 8.49493 5.10164 9.86351 6.78343 9.86351Z" fill="#B7C0D2"/>
<path d="M6.29718 13.4435L3.875 17.6549C3.79303 17.7975 3.58396 17.7852 3.5187 17.634L2.68669 15.7061C2.65166 15.625 2.56775 15.5763 2.48021 15.5865L0.401033 15.8271C0.237961 15.8459 0.122802 15.6703 0.204777 15.5278L2.62695 11.3164" fill="#B7C0D2"/>
<path d="M11.3792 11.3165L13.8014 15.528C13.8834 15.6705 13.7682 15.8461 13.6051 15.8272L11.526 15.5866C11.4384 15.5765 11.3545 15.6251 11.3195 15.7063L10.4875 17.6341C10.4222 17.7853 10.2131 17.7976 10.1312 17.6551L7.70898 13.4437" fill="#B7C0D2"/>
</g>
<defs>
<clipPath id="clip0_3817_27071">
<rect width="14" height="18" fill="white"/>
</clipPath>
</defs>
</svg>
