<svg width="60" height="60" viewBox="0 0 60 60" fill="none" xmlns="http://www.w3.org/2000/svg">
<g clip-path="url(#clip0_3822_26941)">
<circle cx="30" cy="30" r="30" fill="#FFEFF0"/>
<mask id="mask0_3822_26941" style="mask-type:alpha" maskUnits="userSpaceOnUse" x="0" y="0" width="60" height="60">
<circle cx="30" cy="30" r="30" fill="#F4F7FB"/>
</mask>
<g mask="url(#mask0_3822_26941)">
<path d="M55.8678 55.9583C56.2346 56.7504 56.22 56.832 55.4945 57.4481C55.3646 57.5569 55.3111 57.6481 55.3808 57.8017C55.4051 57.8563 55.4235 57.9131 55.436 57.9713C55.5675 58.5442 55.1406 58.7794 54.8225 59.1475C54.5726 59.4387 55.053 60.0692 54.5693 60.442C54.1765 60.7461 53.7724 60.7013 53.399 60.4164C53.0257 60.1316 52.8439 60.2564 52.6913 60.6469C52.1233 62.087 51.5422 63.5048 50.9611 64.9305C50.5294 65.9851 49.9256 66.2651 48.8511 65.849C46.4586 64.922 44.0726 63.98 41.6931 63.0231C40.8183 62.6743 40.5569 62.0054 40.9091 61.1301C41.0866 60.6831 41.2668 65.2383 41.4497 64.7956C41.5746 64.4915 41.487 64.3363 41.1413 64.3443C40.9595 64.3443 40.7777 64.3443 40.5959 64.3443H26.0755C24.678 64.3443 24.2171 63.8915 24.2171 62.5217C24.2171 60.4255 24.2057 53.3292 24.2171 51.2346C24.2269 51.0179 24.1884 50.8017 24.1043 50.6012C24.0201 50.4008 23.8924 50.221 23.7301 50.0744C19.8271 46.2436 15.9316 42.408 12.0437 38.5675C11.5 38.0363 11.1364 37.505 11.4399 36.7193C11.5795 36.3545 11.2549 36.1961 11.013 36.0984C9.28767 35.3976 8.27161 33.9062 7.05103 32.6501C6.5641 32.1428 6.69717 31.6147 7.34966 31.3011C7.63857 31.1619 7.76357 31.0131 7.69215 30.7106C7.69053 30.6909 7.69053 30.6711 7.69215 30.6514C7.63048 29.9681 8.56863 29.9281 8.58162 29.5713C8.60272 28.9792 8.64169 28.5472 9.24548 28.3424C9.49707 28.2575 9.52791 28.1487 9.49383 27.9055C9.40618 27.2862 9.67883 26.923 10.2729 26.875C10.5504 26.851 10.7793 26.8398 10.6982 26.4893C10.6235 26.1693 10.7436 25.7069 10.1869 25.6893C9.72106 25.6765 9.25521 25.6893 8.78938 25.6765C8.10443 25.6557 7.84796 25.3996 7.80414 24.7275C7.7641 24.1099 7.72298 23.4933 7.68078 22.8777C7.65157 22.4281 7.79605 22.0776 8.27974 21.9736C8.57677 21.9096 8.57675 21.772 8.46313 21.5496C7.46005 19.583 8.1385 17.5715 9.75188 16.3186C10.5634 15.6881 10.7014 14.7296 10.5732 13.7471C10.5407 13.4911 10.4417 13.219 10.7241 13.043C11.0065 12.867 11.263 13.0126 11.513 13.1598C13.3649 14.2463 13.7983 15.4289 13.188 17.81C13.7058 17.6723 14.0304 17.3299 14.2966 16.9379C14.5628 16.5458 14.8387 16.5394 15.1552 16.8946C16.2995 18.1748 16.6047 19.6262 15.9847 21.2311C15.8353 21.62 15.6844 21.916 16.2719 22.0648C16.5722 22.1417 16.6647 22.4633 16.6436 22.7561C16.5917 23.4922 16.53 24.2283 16.4456 24.9596C16.3904 25.4268 16.0755 25.6557 15.613 25.6717C15.1504 25.6877 14.6813 25.6941 14.2154 25.6797C13.834 25.6669 13.6441 25.8189 13.6587 26.2029C13.6619 26.2225 13.6619 26.2425 13.6587 26.2621C13.3341 27.5311 13.5597 28.5968 14.7186 29.4017C15.5302 29.9633 15.7704 30.7506 15.5221 31.7251C15.3597 32.378 15.475 32.4436 16.1973 32.3988C16.7491 32.3636 17.1565 32.6613 17.5234 33.0229C18.6855 34.1654 19.8455 35.3085 21.0033 36.4521C21.5535 36.9945 21.5487 36.9897 22.0324 36.4089C22.2888 36.1016 22.5907 35.8232 22.7563 35.4488C23.0923 34.6935 23.1247 33.9238 22.6946 33.2085C21.8911 31.8628 21.9496 30.6482 23.1231 29.5281C23.466 29.1812 23.6794 28.7299 23.7285 28.2479C23.8485 27.4132 24.0743 26.5966 24.4005 25.8173C24.553 25.4524 24.4735 25.3372 24.0661 25.3004C23.399 25.246 23.1345 24.9484 23.1264 24.2923C23.1134 23.1546 23.1264 22.0168 23.1264 20.8791C23.1182 20.3062 23.1864 19.7926 23.9379 19.5846L21.6931 17.7892C21.5519 17.6755 21.4058 17.5667 21.2744 17.4435C21.0828 17.2659 20.841 17.0819 21.0488 16.7874C21.2565 16.493 21.547 16.6274 21.8019 16.7554C23.4596 17.6345 25.1163 18.5146 26.7719 19.3957C26.8925 19.4696 27.0184 19.5348 27.1484 19.591C27.34 19.6598 27.5542 19.7126 27.7262 19.5686C27.8983 19.4245 27.7717 19.2293 27.7262 19.0645C27.3053 17.4195 26.8812 15.7756 26.4537 14.1327C26.4099 13.9599 26.3645 13.7855 26.3255 13.6095C26.2736 13.3726 26.3255 13.163 26.5641 13.0574C26.8027 12.9518 26.9926 13.107 27.1159 13.3006C27.5379 13.9583 27.9519 14.6208 28.3641 15.2849C29.1757 16.5762 29.971 17.8724 30.7777 19.1637C30.9221 19.3957 31.0407 19.7046 31.4042 19.6214C31.7678 19.5382 31.7061 19.2005 31.7402 18.9333C32.0778 16.2834 32.4138 13.6324 32.7482 10.9804C32.7693 10.8204 32.8034 10.6603 32.831 10.5003C32.878 10.2475 32.9754 10.0203 33.2773 10.0203C33.5792 10.0203 33.6603 10.2779 33.6928 10.5291C33.8162 11.4583 33.9373 12.388 34.0564 13.3182C34.2998 15.2182 34.5428 17.1171 34.7851 19.0149C34.8144 19.2405 34.7494 19.5302 35.0757 19.6054C35.4019 19.6806 35.5464 19.4453 35.686 19.2165C36.8438 17.3635 38.0011 15.511 39.1578 13.6591C39.3396 13.3726 39.4662 12.8766 39.9223 13.0526C40.4239 13.2462 40.1495 13.7055 40.0619 14.0511C39.6545 15.6785 39.2244 17.2995 38.8121 18.9269C38.7602 19.1285 38.5946 19.3701 38.7991 19.5446C39.0361 19.743 39.3055 19.6022 39.536 19.4805C41.0195 18.7029 42.4982 17.9156 43.9785 17.1331C44.2641 16.9827 44.5482 16.8306 44.8371 16.685C45.0708 16.5682 45.3111 16.525 45.4864 16.7778C45.6617 17.0307 45.4863 17.2371 45.2964 17.3939C44.566 17.994 43.8259 18.5828 43.089 19.1765C42.9657 19.2773 42.8472 19.3813 42.6199 19.5734C43.6733 19.7334 43.55 20.4631 43.5516 21.1367C43.5516 22.1545 43.5516 23.1738 43.5516 24.1915C43.5516 24.9644 43.2854 25.2668 42.5209 25.294C42.0178 25.3116 41.9886 25.502 42.159 25.8877C42.4369 26.531 42.6363 27.2046 42.753 27.8943C42.8756 28.6076 43.1984 29.2728 43.6847 29.8145C44.5076 30.7442 44.592 31.7347 44.0207 32.8117C43.2676 34.231 43.3471 35.0327 44.3761 36.2537C45.1682 37.193 45.3711 38.2235 44.7511 39.3052C44.0191 40.5854 44.1164 41.7151 45.1292 42.808C45.8596 43.5953 46.0268 44.5266 45.6162 45.5283C45.5911 45.5826 45.5705 45.6388 45.5545 45.6963C45.4896 46.0484 46.7751 47.7686 47.1419 47.7766C47.5257 47.8053 47.9015 47.9 48.2521 48.0566C50.4541 48.9164 52.6562 49.7757 54.8582 50.6345C56.0691 51.1146 56.3466 51.689 55.8207 52.8748C55.5432 53.4988 55.6097 53.8685 56.22 54.2477C57.0656 54.7806 56.8887 55.5167 55.8678 55.9583Z" fill="#FC5761"/>
</g>
</g>
<defs>
<clipPath id="clip0_3822_26941">
<rect width="60" height="60" fill="white"/>
</clipPath>
</defs>
</svg>
