<svg width="18" height="18" viewBox="0 0 18 18" fill="none" xmlns="http://www.w3.org/2000/svg">
<rect y="11.4097" width="18" height="5.59042" rx="2" fill="#B7C0D2"/>
<path d="M14.9941 17L14.9941 11.4096" stroke="white"/>
<path d="M15.9654 1.32736C15.9824 1.2507 16.0172 1.18084 16.0661 1.12529C16.115 1.06975 16.176 1.03061 16.2427 1.01209C16.3094 0.993572 16.3792 0.99637 16.4447 1.02018C16.5101 1.044 16.5686 1.08793 16.614 1.14725C17.3406 2.08822 17.8223 3.14745 17.9586 4.44665C18.1047 5.84364 17.8513 7.10093 17.1801 8.26194C17.0478 8.49044 16.931 8.73093 16.8052 8.96492C16.4969 9.53819 16.2473 10.1359 16.131 10.803C16.1192 10.8703 16.0936 10.9334 16.0565 10.9872C16.0194 11.0409 15.9717 11.0837 15.9175 11.1121C15.8632 11.1404 15.8039 11.1535 15.7444 11.1503C15.6849 11.147 15.627 11.1275 15.5753 11.0933C14.5806 10.4383 13.6958 9.69635 13.3853 8.28189C13.1483 7.20521 13.2227 6.1909 13.7927 5.26688C14.3168 4.41871 14.8617 3.58301 15.379 2.72735C15.6439 2.30385 15.8424 1.83001 15.9654 1.32736V1.32736Z" fill="#B7C0D2"/>
</svg>
