<svg width="1258" height="678" viewBox="0 0 1258 678" fill="none" xmlns="http://www.w3.org/2000/svg">
<g clip-path="url(#clip0_3811_25512)">
<rect x="-4.46484" y="-2.32324" width="1267.35" height="682.811" fill="#111828"/>
<mask id="mask0_3811_25512" style="mask-type:alpha" maskUnits="userSpaceOnUse" x="-47" y="-25" width="1352" height="728">
<rect x="-46.189" y="-24.8027" width="1350.8" height="727.77" fill="#F4F7FB"/>
</mask>
<g mask="url(#mask0_3811_25512)">
<rect x="-91" y="649" width="1440" height="30.0823" fill="#212E5B"/>
<g clip-path="url(#clip1_3811_25512)">
<path d="M230.43 649.082V-100H-91.8146V648.955C-91.817 648.997 -91.817 649.04 -91.8146 649.082H230.43ZM-79.3514 -84.166H215.871V94.6387H214.342V-15.4059C214.342 -15.6213 214.257 -15.8281 214.106 -15.9818C213.955 -16.1354 213.75 -16.2236 213.534 -16.2273H198.309C198.094 -16.2236 197.889 -16.1354 197.738 -15.9818C197.587 -15.8281 197.502 -15.6213 197.502 -15.4059V94.6387H195.633V-15.4059C195.633 -15.5138 195.611 -15.6206 195.57 -15.7202C195.529 -15.8199 195.468 -15.9104 195.392 -15.9867C195.316 -16.063 195.225 -16.1235 195.125 -16.1648C195.026 -16.2061 194.919 -16.2273 194.811 -16.2273H179.6C179.493 -16.2273 179.387 -16.206 179.288 -16.1645C179.189 -16.1231 179.1 -16.0624 179.024 -15.9859C178.949 -15.9094 178.89 -15.8187 178.85 -15.7192C178.811 -15.6196 178.791 -15.5131 178.793 -15.4059V94.6387H176.909V-15.4059C176.911 -15.5131 176.892 -15.6196 176.852 -15.7192C176.812 -15.8187 176.753 -15.9094 176.678 -15.9859C176.603 -16.0624 176.513 -16.1231 176.414 -16.1645C176.315 -16.206 176.209 -16.2273 176.102 -16.2273H160.962C160.744 -16.2273 160.535 -16.1408 160.381 -15.9867C160.227 -15.8327 160.141 -15.6237 160.141 -15.4059V94.6387H158.271V14.5908C158.271 14.3754 158.187 14.1686 158.036 14.0149C157.885 13.8613 157.679 13.7731 157.464 13.7694H146.757C146.541 13.7731 146.336 13.8613 146.185 14.0149C146.034 14.1686 145.95 14.3754 145.95 14.5908V94.6387H144.533V14.5908C144.535 14.4836 144.516 14.3771 144.476 14.2775C144.436 14.178 144.377 14.0873 144.302 14.0108C144.227 13.9344 144.137 13.8736 144.038 13.8322C143.939 13.7907 143.833 13.7694 143.726 13.7694H133.033C132.925 13.7694 132.819 13.7906 132.719 13.8319C132.619 13.8732 132.529 13.9337 132.452 14.01C132.376 14.0863 132.316 14.1768 132.274 14.2765C132.233 14.3761 132.212 14.483 132.212 14.5908V94.6387H99.6374L109.707 84.569C109.97 84.2992 110.124 83.9419 110.14 83.5655C110.155 83.1892 110.032 82.8203 109.792 82.5296L41.995 2.11344C41.8842 1.97533 41.7452 1.86242 41.5874 1.78222C41.4295 1.70202 41.2564 1.65638 41.0795 1.64834C40.9026 1.6403 40.726 1.67005 40.5615 1.73559C40.3971 1.80114 40.2484 1.90098 40.1255 2.02847L29.6876 12.4947C29.4248 12.7646 29.2708 13.1219 29.2551 13.4982C29.2394 13.8745 29.3632 14.2434 29.6026 14.5342L97.2298 94.6387H17.9183V94.0156C18.3092 93.5965 18.5268 93.0449 18.5273 92.4718V82.9261C18.5227 82.3538 18.3057 81.8037 17.9183 81.3824V78.5498H23.1019V75.7173C23.4601 75.259 23.6321 74.6823 23.5834 74.1027V64.5995C23.5788 64.0272 23.3618 63.4771 22.9745 63.0558V60.2232H19.0513V57.3907C19.4387 56.9694 19.6557 56.4192 19.6603 55.8469V46.2729C19.6571 45.7004 19.4399 45.1497 19.0513 44.7292V41.8966H36.0467V39.0641C36.4421 38.6422 36.6602 38.0844 36.6556 37.5062V27.9463C36.6602 27.3681 36.4421 26.8103 36.0467 26.3884V23.5559H-56.6344C-56.919 23.5521 -57.2015 23.6045 -57.4658 23.7099C-57.7301 23.8154 -57.9711 23.9718 -58.175 24.1704C-58.3788 24.369 -58.5416 24.6058 -58.6539 24.8673C-58.7662 25.1288 -58.8259 25.4099 -58.8296 25.6944V39.6872C-58.8296 39.973 -58.7731 40.2559 -58.6633 40.5198C-58.5535 40.7836 -58.3927 41.0231 -58.1899 41.2245C-57.9872 41.4259 -57.7467 41.5852 -57.4821 41.6933C-57.2176 41.8013 -56.9343 41.856 -56.6486 41.8541H-73.6439C-74.2174 41.8578 -74.7664 42.0873 -75.172 42.4929C-75.5776 42.8985 -75.807 43.4475 -75.8107 44.021V58.0138C-75.8107 58.2984 -75.7547 58.5802 -75.6458 58.8431C-75.5369 59.106 -75.3773 59.3448 -75.1761 59.5461C-74.9749 59.7473 -74.736 59.9069 -74.4731 60.0158C-74.2102 60.1247 -73.9284 60.1807 -73.6439 60.1807H-69.7066C-70.2851 60.1807 -70.8398 60.4105 -71.2488 60.8196C-71.6578 61.2286 -71.8876 61.7833 -71.8876 62.3618V76.3546C-71.8839 76.9306 -71.6525 77.4817 -71.2439 77.8877C-70.8353 78.2937 -70.2826 78.5215 -69.7066 78.5215H-74.9043C-75.4616 78.547 -75.9877 78.7865 -76.3729 79.1902C-76.758 79.5938 -76.9727 80.1305 -76.9721 80.6884V94.6387H-79.2948L-79.3514 -84.166ZM-79.3514 108.164H215.871V239.396H-79.3514V108.164ZM-79.3514 250.712H215.871V379.692H214.342V270.101C214.342 269.886 214.257 269.679 214.106 269.525C213.955 269.371 213.75 269.283 213.534 269.28H198.309C198.094 269.283 197.889 269.371 197.738 269.525C197.587 269.679 197.502 269.886 197.502 270.101V379.692H195.094V270.101C195.096 269.994 195.077 269.887 195.037 269.788C194.997 269.688 194.938 269.598 194.863 269.521C194.788 269.445 194.698 269.384 194.599 269.342C194.5 269.301 194.394 269.28 194.287 269.28H179.076C178.858 269.28 178.65 269.366 178.495 269.52C178.341 269.674 178.255 269.883 178.255 270.101V379.692H175.861V296.628C175.858 296.412 175.769 296.207 175.616 296.056C175.462 295.905 175.255 295.821 175.04 295.821H163.795C163.579 295.821 163.372 295.905 163.219 296.056C163.065 296.207 162.977 296.412 162.973 296.628V379.692H152.507V377.965C152.84 377.567 153.025 377.067 153.031 376.548V369.099C153.025 368.58 152.84 368.08 152.507 367.682V365.02H158.271V362.315C158.594 361.912 158.773 361.414 158.781 360.898V353.463C158.773 352.947 158.594 352.449 158.271 352.047V349.384H79.4413C78.8666 349.384 78.3155 349.612 77.9092 350.019C77.5028 350.425 77.2744 350.976 77.2744 351.551V362.881C77.2725 363.166 77.3273 363.449 77.4355 363.713C77.5438 363.976 77.7033 364.216 77.9049 364.418C78.1065 364.619 78.3461 364.779 78.6099 364.887C78.8736 364.995 79.1563 365.05 79.4413 365.048H73.6913C73.1166 365.048 72.5655 365.276 72.1591 365.683C71.7527 366.089 71.5243 366.64 71.5243 367.215V378.545C71.5246 378.985 71.658 379.415 71.9068 379.777H59.5143C59.5988 379.551 59.642 379.311 59.6418 379.069V369.566C59.6372 368.994 59.4202 368.444 59.0329 368.022V365.19H64.2164V362.357C64.6085 361.939 64.8263 361.387 64.8254 360.813V351.31C64.8292 350.736 64.611 350.183 64.2164 349.767V346.934H44.261V344.101C44.6604 343.681 44.8835 343.123 44.8842 342.544V333.054C44.8835 332.475 44.6604 331.917 44.261 331.497V328.664H-48.42C-48.7051 328.662 -48.9877 328.717 -49.2514 328.825C-49.5152 328.933 -49.7549 329.093 -49.9565 329.295C-50.158 329.496 -50.3175 329.736 -50.4258 329.999C-50.534 330.263 -50.5888 330.546 -50.5869 330.831V344.824C-50.5888 345.109 -50.534 345.391 -50.4258 345.655C-50.3175 345.919 -50.158 346.159 -49.9565 346.36C-49.7549 346.562 -49.5152 346.721 -49.2514 346.83C-48.9877 346.938 -48.7051 346.992 -48.42 346.991H-28.4647C-29.0407 346.991 -29.5933 347.218 -30.002 347.624C-30.4106 348.03 -30.642 348.582 -30.6457 349.158V363.15C-30.6457 363.436 -30.5893 363.719 -30.4795 363.983C-30.3697 364.247 -30.2087 364.486 -30.006 364.688C-29.8033 364.889 -29.5628 365.048 -29.2982 365.156C-29.0337 365.264 -28.7504 365.319 -28.4647 365.317H-33.6482C-34.2267 365.317 -34.7815 365.547 -35.1905 365.956C-35.5995 366.365 -35.8293 366.92 -35.8293 367.498V379.947H-79.3798L-79.3514 250.712ZM-79.3514 395.526H215.871V522.241H213.237V413.187C213.239 413.081 213.219 412.975 213.179 412.876C213.139 412.777 213.08 412.688 213.005 412.612C212.929 412.537 212.84 412.477 212.741 412.438C212.642 412.398 212.536 412.378 212.43 412.38H197.219C197.112 412.378 197.005 412.398 196.905 412.437C196.806 412.477 196.715 412.536 196.639 412.611C196.562 412.687 196.502 412.776 196.46 412.875C196.419 412.974 196.397 413.08 196.397 413.187V522.241H194.528V443.17C194.528 442.954 194.443 442.748 194.292 442.594C194.141 442.44 193.936 442.352 193.721 442.348H183.014C182.798 442.352 182.593 442.44 182.442 442.594C182.291 442.748 182.206 442.954 182.206 443.17V522.241H179.898V413.187C179.898 413.08 179.876 412.974 179.835 412.875C179.794 412.776 179.733 412.687 179.656 412.611C179.58 412.536 179.489 412.477 179.39 412.437C179.29 412.398 179.183 412.378 179.076 412.38H163.865C163.758 412.378 163.652 412.398 163.552 412.437C163.453 412.477 163.362 412.536 163.285 412.611C163.209 412.687 163.148 412.776 163.107 412.875C163.065 412.974 163.044 413.08 163.044 413.187V522.241H161.175V443.17C161.177 443.063 161.157 442.956 161.117 442.857C161.077 442.757 161.018 442.666 160.943 442.59C160.868 442.513 160.778 442.453 160.68 442.411C160.581 442.37 160.475 442.348 160.367 442.348H149.632C149.414 442.348 149.205 442.435 149.051 442.589C148.897 442.743 148.81 442.952 148.81 443.17V522.241H146.502V413.187C146.502 413.08 146.481 412.974 146.439 412.875C146.398 412.776 146.337 412.687 146.261 412.611C146.184 412.536 146.093 412.477 145.994 412.437C145.894 412.398 145.788 412.378 145.681 412.38H130.512C130.406 412.378 130.3 412.398 130.201 412.438C130.102 412.477 130.012 412.537 129.937 412.612C129.862 412.688 129.802 412.777 129.763 412.876C129.723 412.975 129.703 413.081 129.705 413.187V522.241H127.821V443.17C127.823 443.063 127.804 442.956 127.764 442.857C127.724 442.757 127.665 442.666 127.59 442.59C127.515 442.513 127.425 442.453 127.326 442.411C127.227 442.37 127.121 442.348 127.014 442.348H116.321C116.103 442.348 115.894 442.435 115.74 442.589C115.586 442.743 115.5 442.952 115.5 443.17V522.241H106.79V521.433C107.184 521.017 107.402 520.463 107.399 519.89V510.386C107.4 509.813 107.182 509.261 106.79 508.843V506.01H91.4089V503.588C91.805 503.171 92.0277 502.619 92.0321 502.044V492.541C92.0313 491.961 91.8083 491.404 91.4089 490.983V488.151H84.3275V485.531C84.726 485.115 84.9492 484.563 84.9507 483.987V474.484C84.9463 473.909 84.7236 473.357 84.3275 472.94V470.107H103.83V467.275C104.217 466.854 104.434 466.303 104.439 465.731V456.228C104.435 455.655 104.218 455.105 103.83 454.684V451.852H11.1344C10.5609 451.855 10.0119 452.085 9.60629 452.49C9.20072 452.896 8.97119 453.445 8.96748 454.019V468.011C8.96746 468.587 9.1953 469.14 9.60127 469.549C10.0072 469.957 10.5584 470.189 11.1344 470.192H-8.35354C-8.92824 470.192 -9.47945 470.421 -9.88582 470.827C-10.2922 471.233 -10.5205 471.785 -10.5205 472.359V486.352C-10.5168 486.926 -10.2872 487.475 -9.88168 487.88C-9.4761 488.286 -8.9271 488.515 -8.35354 488.519H-2.3202C-2.64446 488.708 -2.91337 488.979 -3.09982 489.304C-3.28627 489.63 -3.38369 489.999 -3.3824 490.374V504.367C-3.38429 504.652 -3.32959 504.935 -3.22136 505.199C-3.11313 505.462 -2.95357 505.702 -2.75198 505.904C-2.55039 506.105 -2.3107 506.265 -2.04695 506.373C-1.7832 506.481 -1.50063 506.536 -1.21555 506.534H12.8622C12.5936 506.735 12.3756 506.996 12.2256 507.296C12.0756 507.596 11.9978 507.926 11.9983 508.262V522.354H-42.7407V413.301C-42.7388 413.194 -42.7583 413.088 -42.7982 412.989C-42.8381 412.891 -42.8976 412.801 -42.9729 412.726C-43.0483 412.65 -43.138 412.591 -43.2368 412.551C-43.3357 412.511 -43.4415 412.491 -43.548 412.493H-58.7588C-58.866 412.491 -58.9725 412.511 -59.0721 412.551C-59.1717 412.59 -59.2624 412.65 -59.3388 412.725C-59.4153 412.8 -59.476 412.89 -59.5174 412.988C-59.5589 413.087 -59.5802 413.193 -59.5802 413.301V522.354H-61.4497V443.17C-61.4497 442.954 -61.5342 442.748 -61.6852 442.594C-61.8362 442.44 -62.0416 442.352 -62.257 442.348H-72.964C-73.1794 442.352 -73.3847 442.44 -73.5357 442.594C-73.6867 442.748 -73.7713 442.954 -73.7713 443.17V522.241H-79.2948L-79.3514 395.526Z" fill="#212E5B"/>
</g>
<g clip-path="url(#clip2_3811_25512)">
<path d="M1099.9 259.534H1103.51V256.927C1103.15 256.535 1102.95 256.024 1102.95 255.493V246.758C1102.95 246.227 1103.15 245.716 1103.51 245.324V242.717H1188.8C1189.33 242.717 1189.83 242.927 1190.21 243.301C1190.58 243.675 1190.79 244.183 1190.79 244.712V257.592C1190.79 258.12 1190.58 258.628 1190.21 259.002C1189.83 259.376 1189.33 259.586 1188.8 259.586H1185.16C1185.69 259.589 1186.2 259.801 1186.57 260.174C1186.94 260.547 1187.15 261.053 1187.16 261.581V274.461C1187.16 274.989 1186.95 275.497 1186.57 275.871C1186.2 276.245 1185.69 276.455 1185.16 276.455H1189.93C1190.46 276.459 1190.97 276.672 1191.34 277.048C1191.72 277.424 1191.93 277.932 1191.93 278.463V291.343C1191.92 291.871 1191.71 292.376 1191.34 292.749C1190.96 293.122 1190.46 293.334 1189.93 293.337H1104.64V290.73C1104.29 290.343 1104.09 289.836 1104.08 289.309V280.562C1104.09 280.035 1104.29 279.528 1104.64 279.141V276.533H1099.88V273.926C1099.52 273.538 1099.32 273.032 1099.32 272.505V263.758C1099.32 263.231 1099.52 262.724 1099.88 262.337L1099.9 259.534Z" fill="#212E5B"/>
<path d="M1204.71 259.534H1290.04C1290.57 259.537 1291.07 259.749 1291.44 260.122C1291.82 260.495 1292.03 261.001 1292.03 261.528V274.408C1292.03 274.937 1291.82 275.445 1291.45 275.819C1291.07 276.193 1290.57 276.403 1290.04 276.403H1296.23C1296.76 276.403 1297.27 276.614 1297.65 276.991C1298.02 277.367 1298.23 277.878 1298.23 278.411V291.29C1298.23 291.821 1298.02 292.328 1297.64 292.702C1297.27 293.075 1296.76 293.285 1296.23 293.285H1210.95V290.678C1210.59 290.294 1210.39 289.785 1210.39 289.257V280.509C1210.39 279.982 1210.59 279.473 1210.95 279.088V276.481H1204.71V273.874C1204.35 273.49 1204.14 272.982 1204.14 272.453V263.706C1204.14 263.176 1204.34 262.667 1204.71 262.285V259.534Z" fill="#212E5B"/>
<path d="M991.759 647.104C1018.33 647.104 1044.25 647.287 1069.25 647.639V-17.9185H1365.75V671.469C1365.75 671.469 1365.75 671.547 1365.75 671.586C1365.75 685.118 1198.3 696.082 991.759 696.082C785.219 696.082 617.772 685.118 617.772 671.586C617.772 658.054 785.206 647.104 991.759 647.104ZM1354.27 -3.34384H1082.64V161.201H1084.04V59.9084C1084.04 59.8098 1084.06 59.7121 1084.1 59.621C1084.14 59.53 1084.2 59.4475 1084.27 59.3784C1084.34 59.3092 1084.42 59.2547 1084.51 59.2182C1084.6 59.1816 1084.7 59.1636 1084.8 59.1654H1098.79C1098.89 59.1636 1098.99 59.1816 1099.08 59.2182C1099.17 59.2547 1099.26 59.3092 1099.33 59.3784C1099.4 59.4475 1099.45 59.53 1099.49 59.621C1099.53 59.7121 1099.55 59.8098 1099.55 59.9084V161.201H1101.27V59.9084C1101.27 59.7114 1101.35 59.5224 1101.49 59.383C1101.63 59.2437 1101.82 59.1654 1102.01 59.1654H1116.01C1116.11 59.1636 1116.21 59.1816 1116.3 59.2182C1116.39 59.2547 1116.47 59.3092 1116.54 59.3784C1116.61 59.4475 1116.67 59.53 1116.71 59.621C1116.74 59.7121 1116.76 59.8098 1116.76 59.9084V161.201H1118.48V59.9084C1118.48 59.8098 1118.5 59.7121 1118.54 59.621C1118.58 59.53 1118.64 59.4475 1118.71 59.3784C1118.78 59.3092 1118.86 59.2547 1118.95 59.2182C1119.04 59.1816 1119.14 59.1636 1119.24 59.1654H1133.24C1133.33 59.1636 1133.43 59.1816 1133.52 59.2183C1133.61 59.2551 1133.7 59.3097 1133.76 59.3791C1133.83 59.4484 1133.89 59.5311 1133.93 59.622C1133.96 59.713 1133.98 59.8104 1133.98 59.9084V161.201H1135.65V87.5585C1135.65 87.358 1135.73 87.1657 1135.87 87.0239C1136.01 86.8821 1136.2 86.8024 1136.4 86.8024H1146.24C1146.44 86.8024 1146.63 86.8821 1146.77 87.0239C1146.92 87.1657 1147 87.358 1147 87.5585V161.201H1148.3V87.5585C1148.3 87.4592 1148.32 87.3609 1148.36 87.2692C1148.39 87.1774 1148.45 87.0941 1148.52 87.0239C1148.59 86.9537 1148.67 86.898 1148.77 86.86C1148.86 86.822 1148.96 86.8024 1149.06 86.8024H1158.89C1158.99 86.8024 1159.09 86.822 1159.18 86.8602C1159.27 86.8983 1159.35 86.9542 1159.42 87.0246C1159.49 87.095 1159.55 87.1785 1159.58 87.2701C1159.62 87.3618 1159.64 87.4598 1159.64 87.5585V161.201H1189.61L1180.34 151.932C1180.1 151.685 1179.95 151.356 1179.94 151.008C1179.93 150.661 1180.04 150.321 1180.26 150.055L1242.6 76.0865C1242.71 75.9585 1242.83 75.8535 1242.98 75.7786C1243.12 75.7036 1243.28 75.6603 1243.44 75.6517C1243.61 75.6431 1243.77 75.6692 1243.92 75.7285C1244.07 75.7877 1244.21 75.8787 1244.32 75.9953L1253.95 85.6161C1254.19 85.8661 1254.33 86.1959 1254.35 86.5423C1254.36 86.8886 1254.24 87.2273 1254.02 87.4933L1191.86 161.201H1264.83V160.64C1264.47 160.252 1264.27 159.738 1264.27 159.206V150.472C1264.27 149.94 1264.47 149.426 1264.83 149.038V146.431H1260.07V143.823C1259.7 143.436 1259.49 142.923 1259.49 142.389V133.59C1259.5 133.061 1259.7 132.553 1260.07 132.169V129.562H1263.68V126.954C1263.31 126.569 1263.11 126.061 1263.11 125.533V116.721C1263.11 116.193 1263.31 115.685 1263.68 115.3V112.693H1248.04V110.085C1247.67 109.702 1247.47 109.194 1247.46 108.664V99.8518C1247.47 99.322 1247.67 98.8131 1248.04 98.4308V95.8236H1333.39C1333.92 95.827 1334.42 96.0382 1334.8 96.4115C1335.17 96.7848 1335.38 97.2902 1335.38 97.8181V110.659C1335.38 111.188 1335.17 111.695 1334.8 112.069C1334.43 112.443 1333.92 112.653 1333.39 112.653H1349.03C1349.29 112.653 1349.55 112.705 1349.79 112.807C1350.04 112.908 1350.26 113.056 1350.44 113.242C1350.63 113.429 1350.77 113.65 1350.87 113.894C1350.97 114.137 1351.02 114.398 1351.02 114.661V127.606C1351.02 128.135 1350.81 128.642 1350.44 129.016C1350.06 129.391 1349.56 129.601 1349.03 129.601H1345.42C1345.93 129.61 1346.41 129.815 1346.77 130.171C1347.13 130.528 1347.34 131.01 1347.36 131.517V144.397C1347.36 144.926 1347.15 145.433 1346.78 145.807C1346.4 146.181 1345.89 146.391 1345.37 146.391H1350.14C1350.4 146.389 1350.67 146.442 1350.92 146.547C1351.17 146.651 1351.39 146.805 1351.58 146.999C1351.76 147.193 1351.91 147.423 1352 147.675C1352.1 147.927 1352.14 148.195 1352.13 148.464V161.266H1354.27V-3.34384ZM1354.27 173.69H1082.64V294.471H1354.27V173.69ZM1354.27 304.913H1082.64V423.622H1084.04V322.747C1084.04 322.648 1084.06 322.549 1084.1 322.458C1084.14 322.366 1084.2 322.283 1084.27 322.212C1084.34 322.142 1084.42 322.086 1084.51 322.048C1084.6 322.01 1084.7 321.991 1084.8 321.991H1098.79C1098.89 321.991 1098.99 322.01 1099.08 322.048C1099.18 322.086 1099.26 322.142 1099.33 322.212C1099.4 322.283 1099.46 322.366 1099.49 322.458C1099.53 322.549 1099.55 322.648 1099.55 322.747V423.622H1101.77V322.747C1101.77 322.648 1101.79 322.549 1101.82 322.458C1101.86 322.366 1101.92 322.283 1101.99 322.212C1102.06 322.142 1102.14 322.086 1102.23 322.048C1102.32 322.01 1102.42 321.991 1102.52 321.991H1116.5C1116.6 321.991 1116.7 322.011 1116.79 322.049C1116.88 322.087 1116.96 322.143 1117.03 322.213C1117.1 322.284 1117.16 322.367 1117.19 322.459C1117.23 322.55 1117.25 322.648 1117.25 322.747V423.622H1119.46V347.177C1119.46 346.979 1119.54 346.788 1119.68 346.647C1119.82 346.506 1120.01 346.424 1120.2 346.421H1130.54C1130.74 346.424 1130.93 346.506 1131.06 346.647C1131.2 346.788 1131.28 346.979 1131.28 347.177V423.622H1140.86V422.045C1140.55 421.679 1140.38 421.218 1140.38 420.741V413.884C1140.38 413.407 1140.55 412.945 1140.86 412.58V410.13H1135.65V407.627C1135.34 407.262 1135.17 406.8 1135.16 406.323V399.466C1135.17 398.989 1135.34 398.528 1135.65 398.162V395.711H1208.15C1208.68 395.715 1209.18 395.926 1209.56 396.299C1209.93 396.673 1210.14 397.178 1210.14 397.706V408.135C1210.14 408.665 1209.93 409.174 1209.56 409.55C1209.19 409.926 1208.68 410.139 1208.15 410.143H1213.44C1213.97 410.143 1214.48 410.353 1214.85 410.727C1215.22 411.101 1215.43 411.608 1215.43 412.137V422.566C1215.43 422.967 1215.31 423.358 1215.08 423.687H1226.47C1226.4 423.477 1226.36 423.258 1226.35 423.036V414.288C1226.36 413.759 1226.56 413.251 1226.93 412.867V410.26H1222.16V407.653C1221.79 407.27 1221.59 406.761 1221.59 406.232V397.484C1221.59 396.955 1221.79 396.447 1222.16 396.063V393.456H1240.51V390.849C1240.15 390.461 1239.95 389.955 1239.95 389.428V380.511C1239.95 379.984 1240.15 379.477 1240.51 379.09V376.483H1325.79C1326.32 376.486 1326.83 376.697 1327.2 377.071C1327.57 377.444 1327.78 377.949 1327.79 378.477V391.357C1327.79 391.886 1327.58 392.394 1327.2 392.768C1326.83 393.142 1326.32 393.352 1325.79 393.352H1307.43C1307.7 393.352 1307.96 393.404 1308.2 393.505C1308.44 393.606 1308.66 393.754 1308.85 393.941C1309.03 394.127 1309.18 394.349 1309.28 394.592C1309.38 394.836 1309.43 395.096 1309.43 395.359V408.239C1309.43 408.768 1309.22 409.276 1308.84 409.65C1308.47 410.024 1307.96 410.234 1307.43 410.234H1312.2C1312.46 410.232 1312.72 410.283 1312.97 410.382C1313.21 410.482 1313.43 410.629 1313.62 410.814C1313.8 411 1313.95 411.22 1314.05 411.463C1314.15 411.706 1314.2 411.966 1314.2 412.228V423.687H1354.27V304.913ZM1354.27 438.197H1082.64V554.833H1085.06V454.453C1085.06 454.255 1085.14 454.066 1085.29 453.927C1085.43 453.788 1085.62 453.71 1085.82 453.71H1099.81C1100.01 453.71 1100.2 453.788 1100.34 453.928C1100.48 454.067 1100.55 454.256 1100.55 454.453V554.833H1102.29V482.051C1102.29 481.953 1102.3 481.856 1102.34 481.765C1102.38 481.674 1102.43 481.591 1102.5 481.522C1102.57 481.452 1102.65 481.398 1102.74 481.361C1102.83 481.324 1102.93 481.306 1103.03 481.308H1112.87C1112.97 481.306 1113.06 481.324 1113.16 481.361C1113.25 481.397 1113.33 481.452 1113.4 481.521C1113.47 481.59 1113.53 481.673 1113.57 481.764C1113.6 481.855 1113.62 481.952 1113.62 482.051V554.833H1115.75V454.453C1115.75 454.255 1115.83 454.066 1115.97 453.927C1116.12 453.788 1116.31 453.71 1116.5 453.71H1130.43C1130.63 453.713 1130.82 453.793 1130.96 453.931C1131.09 454.07 1131.17 454.257 1131.18 454.453V554.833H1132.9V482.051C1132.9 481.952 1132.92 481.855 1132.95 481.764C1132.99 481.673 1133.05 481.59 1133.12 481.521C1133.19 481.452 1133.27 481.397 1133.36 481.361C1133.46 481.324 1133.55 481.306 1133.65 481.308H1143.49C1143.59 481.306 1143.69 481.324 1143.78 481.361C1143.87 481.397 1143.95 481.452 1144.02 481.521C1144.1 481.59 1144.15 481.673 1144.19 481.764C1144.23 481.855 1144.25 481.952 1144.25 482.051V554.833H1146.37V454.453C1146.37 454.257 1146.45 454.07 1146.59 453.931C1146.73 453.793 1146.92 453.713 1147.11 453.71H1161.17C1161.37 453.71 1161.56 453.788 1161.7 453.927C1161.85 454.066 1161.93 454.255 1161.93 454.453V554.833H1163.65V482.051C1163.65 481.952 1163.67 481.855 1163.71 481.764C1163.75 481.673 1163.8 481.59 1163.87 481.521C1163.94 481.452 1164.03 481.397 1164.12 481.361C1164.21 481.324 1164.31 481.306 1164.41 481.308H1174.24C1174.34 481.306 1174.44 481.324 1174.53 481.361C1174.62 481.398 1174.7 481.452 1174.77 481.522C1174.84 481.591 1174.9 481.674 1174.93 481.765C1174.97 481.856 1174.99 481.953 1174.99 482.051V554.833H1183V554.103C1182.64 553.711 1182.44 553.2 1182.44 552.669V543.934C1182.44 543.403 1182.64 542.892 1183 542.5V539.893H1197.15V537.664C1196.8 537.276 1196.6 536.77 1196.59 536.243V527.496C1196.59 526.969 1196.79 526.462 1197.15 526.075V523.467H1203.67V521.121C1203.3 520.733 1203.1 520.219 1203.11 519.687V510.874C1203.1 510.342 1203.3 509.829 1203.67 509.44V506.833H1185.74V504.226C1185.37 503.842 1185.17 503.333 1185.18 502.805V494.057C1185.18 493.53 1185.38 493.022 1185.74 492.637V490.029H1271.06C1271.33 490.028 1271.59 490.078 1271.83 490.178C1272.07 490.277 1272.29 490.424 1272.48 490.61C1272.66 490.795 1272.81 491.016 1272.91 491.258C1273.01 491.501 1273.06 491.761 1273.06 492.024V504.904C1273.06 505.433 1272.85 505.94 1272.47 506.314C1272.1 506.688 1271.59 506.898 1271.06 506.898H1288.99C1289.26 506.897 1289.52 506.947 1289.76 507.047C1290 507.146 1290.22 507.293 1290.41 507.479C1290.59 507.664 1290.74 507.885 1290.84 508.127C1290.94 508.37 1290.99 508.63 1290.99 508.893V521.773C1290.99 522.035 1290.94 522.295 1290.84 522.538C1290.74 522.781 1290.59 523.001 1290.41 523.187C1290.22 523.372 1290 523.519 1289.76 523.619C1289.52 523.719 1289.26 523.769 1288.99 523.767H1283.44C1283.74 523.941 1283.99 524.191 1284.16 524.49C1284.34 524.789 1284.43 525.129 1284.43 525.475V538.251C1284.43 538.781 1284.22 539.29 1283.85 539.666C1283.48 540.042 1282.97 540.255 1282.44 540.258H1269.49C1269.73 540.44 1269.94 540.677 1270.07 540.951C1270.21 541.226 1270.28 541.529 1270.28 541.836V554.716C1270.28 554.716 1270.28 554.781 1270.28 554.807H1320.69V454.427C1320.69 454.229 1320.77 454.04 1320.91 453.901C1321.05 453.762 1321.24 453.684 1321.44 453.684H1335.38C1335.58 453.684 1335.77 453.762 1335.91 453.902C1336.05 454.041 1336.13 454.23 1336.13 454.427V554.807H1337.85V482.051C1337.85 481.952 1337.87 481.855 1337.9 481.764C1337.94 481.673 1338 481.59 1338.07 481.521C1338.14 481.452 1338.22 481.397 1338.31 481.361C1338.41 481.324 1338.5 481.306 1338.6 481.308H1348.44C1348.54 481.306 1348.64 481.324 1348.73 481.361C1348.82 481.397 1348.9 481.452 1348.97 481.521C1349.05 481.59 1349.1 481.673 1349.14 481.764C1349.18 481.855 1349.2 481.952 1349.2 482.051V554.833H1354.27V438.197Z" fill="#212E5B"/>
<path d="M712.377 230C679.901 230 653.574 203.331 653.574 170.434C653.574 137.536 679.901 110.867 712.377 110.867C744.853 110.867 771.18 137.536 771.18 170.434C771.18 203.331 744.853 230 712.377 230Z" fill="#222E5B"/>
<path d="M712.372 223.54C683.419 223.54 659.947 199.764 659.947 170.434C659.947 141.104 683.419 117.327 712.372 117.327C741.326 117.327 764.797 141.104 764.797 170.434C764.797 199.764 741.326 223.54 712.372 223.54Z" fill="#F9FAFA"/>
<path d="M707.976 170.434C707.985 171.302 708.251 172.148 708.74 172.866C709.229 173.583 709.919 174.14 710.724 174.466C711.528 174.792 712.411 174.872 713.262 174.697C714.112 174.522 714.891 174.099 715.502 173.482C716.112 172.865 716.526 172.08 716.692 171.228C716.858 170.376 716.768 169.493 716.434 168.692C716.1 167.891 715.536 167.206 714.814 166.725C714.091 166.243 713.243 165.986 712.375 165.986C711.794 165.988 711.219 166.105 710.683 166.33C710.147 166.555 709.661 166.883 709.252 167.296C708.844 167.71 708.521 168.199 708.302 168.738C708.082 169.276 707.972 169.853 707.976 170.434V170.434Z" fill="#222E5B"/>
<path d="M711.262 119.26H713.367V128.973H711.262V119.26Z" fill="#222E5B"/>
<path d="M711.262 211.942H713.367V221.655H711.262V211.942Z" fill="#222E5B"/>
<path d="M661.77 171.518V169.381H671.353V171.518H661.77Z" fill="#222E5B"/>
<path d="M753.27 171.518V169.381H762.853V171.518H753.27Z" fill="#222E5B"/>
<path d="M713.477 168.894L712.298 135.213L711.12 168.894H713.477Z" fill="#222E5B"/>
<path d="M713.662 171.031L736.316 146.356L711.981 169.334L713.662 171.031Z" fill="#222E5B"/>
</g>
</g>
<g clip-path="url(#clip3_3811_25512)">
<path d="M988.87 660.711H980.654C980.05 660.714 979.462 660.514 978.984 660.144C978.506 659.773 978.166 659.254 978.017 658.668L914.45 412.149L910.77 398.022H947.994L950.356 412.149L991.507 657.538C991.572 657.924 991.553 658.32 991.451 658.698C991.349 659.076 991.166 659.427 990.916 659.729C990.665 660.03 990.353 660.273 990 660.443C989.647 660.613 989.262 660.704 988.87 660.711Z" fill="#ABBDE3"/>
<path d="M489.534 398.022L485.897 412.149L422.33 658.668C422.184 659.253 421.847 659.772 421.371 660.142C420.896 660.513 420.31 660.713 419.707 660.711H411.492C411.096 660.71 410.705 660.623 410.346 660.456C409.988 660.289 409.669 660.047 409.413 659.745C409.157 659.444 408.969 659.09 408.863 658.709C408.756 658.328 408.734 657.929 408.796 657.538L449.991 412.149L452.353 398.022H489.534Z" fill="#ABBDE3"/>
<path d="M452.307 398.008H489.532L485.895 412.149H449.945L452.307 398.008Z" fill="#758BBD"/>
<path d="M950.399 412.149H914.449L910.812 398.008H948.037L950.399 412.149Z" fill="#758BBD"/>
<path d="M407.752 398.022H998.232C1000.28 398.022 1002.25 397.207 1003.7 395.756C1005.15 394.305 1005.97 392.337 1005.97 390.285V390.285C1005.97 388.233 1005.15 386.265 1003.7 384.814C1002.25 383.363 1000.28 382.548 998.232 382.548H407.752C405.699 382.548 403.729 383.363 402.276 384.813C400.822 386.264 400.004 388.232 400 390.285V390.285C400.004 392.338 400.822 394.306 402.276 395.757C403.729 397.208 405.699 398.022 407.752 398.022V398.022Z" fill="#1D3860"/>
<path d="M1005.97 390.285C1005.97 392.337 1005.15 394.305 1003.7 395.756C1002.25 397.207 1000.28 398.022 998.232 398.022H407.738C406.721 398.024 405.714 397.825 404.774 397.437C403.835 397.049 402.981 396.479 402.262 395.76C401.543 395.042 400.973 394.188 400.585 393.248C400.197 392.309 399.998 391.302 400 390.285H1005.97Z" fill="#222E5B"/>
<path d="M918.768 349.904H702.114C701.449 349.905 700.791 349.765 700.185 349.491C699.579 349.218 699.038 348.818 698.599 348.319C698.16 347.819 697.833 347.232 697.639 346.595C697.446 345.959 697.391 345.289 697.477 344.63L716.604 199.071C716.752 197.946 717.303 196.912 718.156 196.163C719.009 195.414 720.106 195.001 721.241 195H937.866C938.531 195.001 939.189 195.143 939.795 195.418C940.402 195.693 940.942 196.094 941.381 196.595C941.82 197.095 942.147 197.684 942.34 198.321C942.534 198.958 942.589 199.629 942.502 200.289L923.39 345.847C923.242 346.968 922.692 347.998 921.842 348.745C920.992 349.491 919.899 349.903 918.768 349.904V349.904Z" fill="#ABBDE3"/>
<path d="M926.883 349.904H710.244C709.58 349.903 708.924 349.761 708.32 349.487C707.715 349.213 707.176 348.812 706.739 348.313C706.301 347.814 705.975 347.227 705.783 346.592C705.59 345.957 705.535 345.288 705.622 344.63L724.676 199.071C724.824 197.946 725.375 196.912 726.228 196.163C727.082 195.414 728.178 195.001 729.313 195H945.952C946.617 195.003 947.273 195.147 947.877 195.423C948.482 195.698 949.021 196.1 949.458 196.6C949.895 197.101 950.221 197.688 950.413 198.324C950.606 198.96 950.661 199.63 950.574 200.289L931.52 345.847C931.369 346.97 930.816 348 929.963 348.746C929.111 349.492 928.016 349.903 926.883 349.904V349.904Z" fill="white"/>
<path d="M829.163 382.548H790.504L810.341 231.107C810.464 230.149 810.932 229.269 811.658 228.632C812.383 227.994 813.316 227.643 814.282 227.644H844.928C845.493 227.645 846.051 227.767 846.565 228.001C847.078 228.235 847.537 228.576 847.908 229.001C848.28 229.426 848.556 229.926 848.72 230.466C848.883 231.007 848.929 231.576 848.855 232.136L829.163 382.548Z" fill="#ABBDE3"/>
<path d="M834.277 382.548H795.633L815.47 231.107C815.59 230.15 816.055 229.271 816.778 228.633C817.501 227.995 818.432 227.644 819.396 227.644H850.043C850.608 227.646 851.166 227.767 851.681 228.001C852.195 228.235 852.654 228.576 853.027 229.001C853.399 229.425 853.678 229.925 853.843 230.465C854.008 231.006 854.056 231.575 853.984 232.136L834.277 382.548Z" fill="#F4F7FB"/>
<path d="M752.207 375.854H812.681H873.155C873.539 375.854 873.908 376.007 874.179 376.279C874.451 376.55 874.604 376.919 874.604 377.303V382.519H750.715V377.303C750.715 377.109 750.754 376.917 750.829 376.738C750.905 376.56 751.015 376.398 751.154 376.263C751.294 376.128 751.459 376.022 751.639 375.952C751.82 375.882 752.013 375.848 752.207 375.854Z" fill="#D6E3FD"/>
<path d="M548.883 327.982L544.13 378.607L543.768 382.548H514.353L509.238 327.982H548.883Z" fill="#FC5761"/>
<path d="M548.885 327.982L544.132 378.607H519.557L514.805 327.982H548.885Z" fill="#FC5761"/>
<path d="M954.502 358.554C954.502 358.554 939.404 349.715 936.129 332.372C936.129 332.372 950.358 335.27 957.487 358.554" fill="#FC5761"/>
<path d="M960.455 358.554C960.455 358.554 975.553 349.715 978.828 332.372C978.828 332.372 964.599 335.27 957.484 358.554" fill="#FC5761"/>
<path d="M955.907 357.134C955.907 357.134 945.01 343.442 948.227 326.083C948.227 326.083 960.427 333.966 958.674 358.22" fill="#FC5761"/>
<path d="M959.413 357.192C959.413 357.192 969.977 343.253 966.354 325.968C966.354 325.968 954.342 334.139 956.66 358.336" fill="#FC5761"/>
<path d="M973.568 355.033H940.676V382.548H973.568V355.033Z" fill="#222E5B"/>
<path d="M1121.09 614.07C1121.09 614.07 1011.62 466.194 1045.97 434.622C1080.33 403.05 1130.52 514.283 1121.09 614.07Z" fill="#FC5761"/>
<path d="M1143.45 597.132C1143.45 597.132 1249 446.445 1213.83 415.771C1178.66 385.098 1131.4 497.635 1143.45 597.132Z" fill="#FC5761"/>
<path d="M1135.19 543.697C1135.19 543.697 1028.98 393.473 1064 362.582C1099.02 331.691 1146.8 444.141 1135.19 543.697Z" fill="#CE4049"/>
<path d="M1128.83 587.526C1128.83 587.526 1194.19 497.693 1173.3 478.785C1152.4 459.876 1122.64 527.309 1128.83 587.526Z" fill="#CE4049"/>
<path d="M1172.65 583.194L1172.12 586.628L1171.05 593.872L1161.2 659.957C1161.03 661.067 1160.47 662.08 1159.62 662.813C1158.77 663.547 1157.68 663.952 1156.56 663.956H1102.35C1101.23 663.952 1100.15 663.547 1099.3 662.813C1098.45 662.08 1097.89 661.067 1097.72 659.957L1087.88 593.872L1086.79 586.628L1086.29 583.194H1172.65Z" fill="#0A1F48"/>
<path d="M1172.12 586.628L1171.04 593.916H1087.88L1086.79 586.628H1172.12Z" fill="#1D3860"/>
<path d="M1173.86 589.772H1085.07C1084.39 589.774 1083.72 589.642 1083.1 589.385C1082.47 589.127 1081.9 588.748 1081.42 588.271C1080.94 587.793 1080.56 587.225 1080.3 586.6C1080.04 585.975 1079.91 585.305 1079.91 584.628C1079.91 583.26 1080.45 581.948 1081.42 580.981C1082.39 580.014 1083.7 579.47 1085.07 579.47H1173.86C1174.54 579.47 1175.21 579.604 1175.83 579.863C1176.46 580.123 1177.03 580.503 1177.51 580.982C1177.98 581.461 1178.36 582.03 1178.62 582.656C1178.88 583.281 1179.01 583.952 1179.01 584.628C1179.01 585.993 1178.46 587.301 1177.5 588.265C1176.54 589.23 1175.23 589.772 1173.86 589.772Z" fill="#0A1F48"/>
</g>
</g>
<defs>
<clipPath id="clip0_3811_25512">
<rect width="1258" height="678" fill="white"/>
</clipPath>
<clipPath id="clip1_3811_25512">
<rect width="322.259" height="749.082" fill="white" transform="translate(-91.8281 -100)"/>
</clipPath>
<clipPath id="clip2_3811_25512">
<rect width="748" height="714" fill="white" transform="matrix(-1 0 0 1 1365.76 -17.9185)"/>
</clipPath>
<clipPath id="clip3_3811_25512">
<rect width="821" height="469" fill="white" transform="translate(400 195)"/>
</clipPath>
</defs>
</svg>
