<svg width="1218" height="474" viewBox="0 0 1218 474" fill="none" xmlns="http://www.w3.org/2000/svg">
<g clip-path="url(#clip0_3862_32374)">
<g opacity="0.6">
<path d="M1266.86 197.041C1233.93 201.087 1175.87 227.44 1207.15 300.489C1246.24 391.8 1215.77 465.977 1052.29 457.54" stroke="#222E5B" stroke-width="2" stroke-linecap="round" stroke-dasharray="8.88 8.88"/>
<path d="M1302.05 538.403H1244.1C1229.11 538.405 1214.26 535.458 1200.41 529.733C1186.56 524.007 1173.98 515.614 1163.38 505.033L1111.35 453.128C1085.09 426.975 1049.5 412.29 1012.39 412.3H619.207C610.775 412.293 602.427 413.973 594.657 417.24C586.887 420.507 579.853 425.296 573.97 431.322C568.086 437.348 563.474 444.49 560.406 452.326C557.337 460.161 555.874 468.531 556.104 476.94V481.884C556.348 490.645 554.829 499.366 551.636 507.53C548.444 515.695 543.643 523.138 537.517 529.42C531.391 535.701 524.065 540.693 515.971 544.101C507.878 547.509 499.182 549.263 490.397 549.259H-11.0266C-18.5441 549.253 -25.9891 550.726 -32.9354 553.594C-39.8818 556.462 -46.193 560.668 -51.5081 565.972L-72.7181 587.215C-81.4829 595.949 -93.3632 600.857 -105.751 600.861H-129.481C-138.19 600.861 -146.543 604.313 -152.702 610.457C-158.86 616.601 -162.32 624.934 -162.32 633.623V644.065H1382.32V618.485C1382.31 597.248 1373.85 576.883 1358.8 561.867C1343.75 546.85 1323.34 538.411 1302.05 538.403V538.403Z" fill="#222E5B"/>
<path d="M490.904 186.745V267.776H524.071V572.848H490.904H452.016V186.745H490.904Z" fill="#222E5B"/>
<path d="M650.809 572.848H751.211V181.027H650.809V572.848Z" fill="#222E5B"/>
<path d="M637.335 572.828H718.312V278.152H637.335V572.828Z" fill="#222E5B"/>
<path d="M927.683 255.221V142.781H963.31V255.221H989.696V572.848H901.297V255.221H927.683Z" fill="#222E5B"/>
<path d="M884.396 572.848H953.391V296.546H884.396V572.848Z" fill="#222E5B"/>
<path d="M583.783 572.848H671.422L671.422 103.874H583.783V572.848Z" fill="#222E5B"/>
<path d="M542.541 572.848H630.18L630.18 103.874H542.541V572.848Z" fill="#222E5B"/>
<path d="M551.96 139.482H615.594V130.565H551.96V139.482Z" fill="#222E5B"/>
<path d="M551.96 170.87H615.594V161.954H551.96V170.87Z" fill="#222E5B"/>
<path d="M551.96 202.3H615.594V193.383H551.96V202.3Z" fill="#222E5B"/>
<path d="M551.96 233.708H615.594V224.792H551.96V233.708Z" fill="#222E5B"/>
<path d="M551.96 265.137H615.594V256.22H551.96V265.137Z" fill="#222E5B"/>
<path d="M551.96 296.526H615.594V287.609H551.96V296.526Z" fill="#222E5B"/>
<path d="M551.96 327.955H615.594V319.038H551.96V327.955Z" fill="#222E5B"/>
<path d="M551.96 359.364H615.594V350.447H551.96V359.364Z" fill="#222E5B"/>
<path d="M551.96 390.793H615.594V381.876H551.96V390.793Z" fill="#222E5B"/>
<path d="M551.96 422.181H615.594V413.264H551.96V422.181Z" fill="#222E5B"/>
<path d="M551.96 453.61H615.594V444.693H551.96V453.61Z" fill="#222E5B"/>
<path d="M789.656 572.848H895.539V216.914H789.656V572.848Z" fill="#222E5B"/>
<path d="M739.828 572.848H845.711V216.914H739.828V572.848Z" fill="#222E5B"/>
<path d="M751.201 243.925H828.078V237.167H751.201V243.925Z" fill="#222E5B"/>
<path d="M751.201 267.776H828.078V261.019H751.201V267.776Z" fill="#222E5B"/>
<path d="M751.201 291.608H828.078V284.85H751.201V291.608Z" fill="#222E5B"/>
<path d="M751.201 315.459H828.078V308.702H751.201V315.459Z" fill="#222E5B"/>
<path d="M751.201 339.291H828.078V332.533H751.201V339.291Z" fill="#222E5B"/>
<path d="M751.201 363.142H828.078V356.385H751.201V363.142Z" fill="#222E5B"/>
<path d="M751.201 386.974H828.078V380.216H751.201V386.974Z" fill="#222E5B"/>
<path d="M751.201 410.825H828.078V404.067H751.201V410.825Z" fill="#222E5B"/>
<path d="M751.201 434.657H828.078V427.899H751.201V434.657Z" fill="#222E5B"/>
<path d="M751.201 458.508H828.078V451.751H751.201V458.508Z" fill="#222E5B"/>
<path d="M800.637 216.914H865.031V0.431091H800.637V216.914Z" fill="#222E5B"/>
<path d="M770.332 216.914H834.727V0.431091H770.332V216.914Z" fill="#222E5B"/>
<path d="M777.25 16.8654L824 16.8654V12.7468L777.25 12.7468V16.8654Z" fill="#222E5B"/>
<path d="M777.25 31.3805L824 31.3805V27.262L777.25 27.262V31.3805Z" fill="#222E5B"/>
<path d="M777.25 45.8549L824 45.8549V41.7363L777.25 41.7363V45.8549Z" fill="#222E5B"/>
<path d="M777.25 60.37L824 60.37V56.2515L777.25 56.2515V60.37Z" fill="#222E5B"/>
<path d="M777.25 74.8649H824V70.7463H777.25V74.8649Z" fill="#222E5B"/>
<path d="M777.25 89.3595H824V85.241H777.25V89.3595Z" fill="#222E5B"/>
<path d="M777.25 103.855H824V99.7361H777.25V103.855Z" fill="#222E5B"/>
<path d="M777.25 118.369H824V114.251H777.25V118.369Z" fill="#222E5B"/>
<path d="M777.25 132.864H824V128.746H777.25V132.864Z" fill="#222E5B"/>
<path d="M777.25 147.359H824V143.24H777.25V147.359Z" fill="#222E5B"/>
<path d="M777.25 161.874H824V157.755H777.25V161.874Z" fill="#222E5B"/>
<path d="M777.25 176.369H824V172.25H777.25V176.369Z" fill="#222E5B"/>
<path d="M777.25 190.884H824V186.765H777.25V190.884Z" fill="#222E5B"/>
<path d="M777.25 205.359H824V201.24H777.25V205.359Z" fill="#222E5B"/>
<path d="M301.104 162.394L454.097 222.092V572.848H301.104V206.198H278.219V162.394H301.104Z" fill="#222E5B"/>
<path d="M278.219 572.848H431.232V222.092L278.219 162.394V572.848Z" fill="#222E5B"/>
<path d="M418.809 254.301H406.586V278.153H418.809V254.301Z" fill="#222E5B"/>
<path d="M418.809 438.856H406.586V462.707H418.809V438.856Z" fill="#222E5B"/>
<path d="M418.809 469.604H406.586V493.456H418.809V469.604Z" fill="#222E5B"/>
<path d="M418.809 346.568H406.586V370.42H418.809V346.568Z" fill="#222E5B"/>
<path d="M418.809 408.086H406.586V431.938H418.809V408.086Z" fill="#222E5B"/>
<path d="M418.809 315.819H406.586V339.671H418.809V315.819Z" fill="#222E5B"/>
<path d="M418.809 285.05H406.586V308.902H418.809V285.05Z" fill="#222E5B"/>
<path d="M418.809 377.338H406.586V401.189H418.809V377.338Z" fill="#222E5B"/>
<path d="M389.832 408.086H377.609V431.938H389.832V408.086Z" fill="#222E5B"/>
<path d="M389.832 469.604H377.609V493.456H389.832V469.604Z" fill="#222E5B"/>
<path d="M389.832 254.301H377.609V278.153H389.832V254.301Z" fill="#222E5B"/>
<path d="M389.832 438.856H377.609V462.707H389.832V438.856Z" fill="#222E5B"/>
<path d="M389.832 377.338H377.609V401.189H389.832V377.338Z" fill="#222E5B"/>
<path d="M389.832 315.819H377.609V339.671H389.832V315.819Z" fill="#222E5B"/>
<path d="M389.832 285.05H377.609V308.902H389.832V285.05Z" fill="#222E5B"/>
<path d="M389.832 346.568H377.609V370.42H389.832V346.568Z" fill="#222E5B"/>
<path d="M360.84 377.338H348.617V401.189H360.84V377.338Z" fill="#222E5B"/>
<path d="M360.84 254.301H348.617V278.153H360.84V254.301Z" fill="#222E5B"/>
<path d="M360.84 346.568H348.617V370.42H360.84V346.568Z" fill="#222E5B"/>
<path d="M360.84 315.819H348.617V339.671H360.84V315.819Z" fill="#222E5B"/>
<path d="M360.84 469.604H348.617V493.456H360.84V469.604Z" fill="#222E5B"/>
<path d="M360.84 285.05H348.617V308.902H360.84V285.05Z" fill="#222E5B"/>
<path d="M360.84 408.086H348.617V431.938H360.84V408.086Z" fill="#222E5B"/>
<path d="M360.84 438.856H348.617V462.707H360.84V438.856Z" fill="#222E5B"/>
<path d="M331.871 438.856H319.648V462.707H331.871V438.856Z" fill="#222E5B"/>
<path d="M331.871 346.568H319.648V370.42H331.871V346.568Z" fill="#222E5B"/>
<path d="M331.871 469.604H319.648V493.456H331.871V469.604Z" fill="#222E5B"/>
<path d="M331.871 315.819H319.648V339.671H331.871V315.819Z" fill="#222E5B"/>
<path d="M331.871 285.05H319.648V308.902H331.871V285.05Z" fill="#222E5B"/>
<path d="M331.871 254.301H319.648V278.153H331.871V254.301Z" fill="#222E5B"/>
<path d="M331.871 377.338H319.648V401.189H331.871V377.338Z" fill="#222E5B"/>
<path d="M331.871 408.086H319.648V431.938H331.871V408.086Z" fill="#222E5B"/>
<path d="M302.887 285.05H290.664V308.902H302.887V285.05Z" fill="#222E5B"/>
<path d="M302.887 346.568H290.664V370.42H302.887V346.568Z" fill="#222E5B"/>
<path d="M302.887 377.338H290.664V401.189H302.887V377.338Z" fill="#222E5B"/>
<path d="M302.887 254.301H290.664V278.153H302.887V254.301Z" fill="#222E5B"/>
<path d="M302.887 315.819H290.664V339.671H302.887V315.819Z" fill="#222E5B"/>
<path d="M302.887 408.086H290.664V431.938H302.887V408.086Z" fill="#222E5B"/>
<path d="M302.887 469.604H290.664V493.456H302.887V469.604Z" fill="#222E5B"/>
<path d="M302.887 438.856H290.664V462.707H302.887V438.856Z" fill="#222E5B"/>
<path d="M995.898 572.848H1119.89V150.858L995.898 225.611V572.848Z" fill="#222E5B"/>
<path d="M1119.88 572.848H1162.75V150.858H1119.88V572.848Z" fill="#222E5B"/>
<path d="M1092.26 187.645V555.014H1104.32V180.387L1092.26 187.645Z" fill="#222E5B"/>
<path d="M1072.03 199.84V555.014H1084.13V192.543L1072.03 199.84Z" fill="#222E5B"/>
<path d="M1051.84 211.996V555.014H1063.91V204.738L1051.84 211.996Z" fill="#222E5B"/>
<path d="M1031.65 224.192V555.014H1043.73V216.914L1031.65 224.192Z" fill="#222E5B"/>
<path d="M1011.45 236.367V555.014H1023.53V229.09L1011.45 236.367Z" fill="#222E5B"/>
<path d="M69.5156 572.848H179.1V199.84L69.5156 265.897V572.848Z" fill="#222E5B"/>
<path d="M179.1 572.848H217.008L217.008 199.84H179.1L179.1 572.848Z" fill="#222E5B"/>
<path d="M154.703 232.349V557.073H165.365V225.931L154.703 232.349Z" fill="#222E5B"/>
<path d="M136.828 243.125V557.074H147.51V236.687L136.828 243.125Z" fill="#222E5B"/>
<path d="M118.969 253.881V557.074H129.651V247.464L118.969 253.881Z" fill="#222E5B"/>
<path d="M101.102 264.658V557.074H111.784V258.22L101.102 264.658Z" fill="#222E5B"/>
<path d="M83.2578 275.413V557.073H93.9201V268.996L83.2578 275.413Z" fill="#222E5B"/>
<path d="M546.856 354.225L546.745 337.452L573.65 337.274L663.838 392.68L665.024 572.252L485.368 573.438L484.182 393.866L546.856 354.225Z" fill="#222E5B"/>
<path d="M637.336 572.848H664.242V393.272H637.336V572.848Z" fill="#222E5B"/>
<path d="M547.527 337.271L637.367 393.271V572.848H457.688V393.271L547.527 337.271Z" fill="#222E5B"/>
<path d="M593.044 428.639H620.93V418.023H593.044V428.639Z" fill="#222E5B"/>
<path d="M553.395 428.639H581.281V418.023H553.395V428.639Z" fill="#222E5B"/>
<path d="M513.731 428.639H541.617V418.023H513.731V428.639Z" fill="#222E5B"/>
<path d="M474.106 428.639H501.992V418.023H474.106V428.639Z" fill="#222E5B"/>
<path d="M593.044 449.931H620.93V439.315H593.044V449.931Z" fill="#222E5B"/>
<path d="M553.395 449.931H581.281V439.315H553.395V449.931Z" fill="#222E5B"/>
<path d="M513.731 449.931H541.617V439.315H513.731V449.931Z" fill="#222E5B"/>
<path d="M474.106 449.931H501.992V439.315H474.106V449.931Z" fill="#222E5B"/>
<path d="M593.044 471.204H620.93V460.588H593.044V471.204Z" fill="#222E5B"/>
<path d="M553.395 471.204H581.281V460.588H553.395V471.204Z" fill="#222E5B"/>
<path d="M513.731 471.204H541.617V460.588H513.731V471.204Z" fill="#222E5B"/>
<path d="M474.106 471.204H501.992V460.588H474.106V471.204Z" fill="#222E5B"/>
<path d="M664.648 384.155H970.715V325.316H704.777L664.648 384.155Z" fill="#222E5B"/>
<path d="M970.715 325.336L1010.84 384.175V572.848H930.586V384.175L970.715 325.336Z" fill="#222E5B"/>
<path d="M664.668 572.848H930.586V384.175H664.668V572.848Z" fill="#222E5B"/>
<path d="M884.411 449.092H906.656V403.448H884.411V449.092Z" fill="#222E5B"/>
<path d="M835.458 449.092H857.703V403.448H835.458V449.092Z" fill="#222E5B"/>
<path d="M786.482 449.092H808.727V403.448H786.482V449.092Z" fill="#222E5B"/>
<path d="M737.536 449.092H759.781V403.448H737.536V449.092Z" fill="#222E5B"/>
<path d="M688.575 449.092H710.82V403.448H688.575V449.092Z" fill="#222E5B"/>
<path d="M132.453 357.085V357.364H455.244V357.085L407.973 297.146H183.444L132.453 357.085Z" fill="#222E5B"/>
<path d="M234.386 572.848H455.234V357.364H234.386L234.386 572.848Z" fill="#222E5B"/>
<path d="M132.453 357.085V572.848H234.415V357.085L183.444 297.146L132.453 357.085Z" fill="#222E5B"/>
<path d="M152.172 572.848H208.484V472.463H152.172V572.848Z" fill="#222E5B"/>
<path d="M182.719 453.99H208.484V433.058H182.719V453.99Z" fill="#222E5B"/>
<path d="M152.18 453.99H177.945V433.058H152.18V453.99Z" fill="#222E5B"/>
<path d="M393.129 432.778H434.258V399.769H393.129V432.778Z" fill="#222E5B"/>
<path d="M330.316 432.778H371.445V399.769H330.316V432.778Z" fill="#222E5B"/>
<path d="M267.504 432.778H308.633V399.769H267.504V432.778Z" fill="#222E5B"/>
<path d="M393.129 486.119H434.258V453.13H393.129V486.119Z" fill="#222E5B"/>
<path d="M330.316 486.119H371.445V453.13H330.316V486.119Z" fill="#222E5B"/>
<path d="M267.504 486.119H308.633V453.13H267.504V486.119Z" fill="#222E5B"/>
<path d="M1005.79 533.202C1026.92 533.202 1044.04 516.119 1044.04 495.045C1044.04 473.972 1026.92 456.888 1005.79 456.888C984.671 456.888 967.547 473.972 967.547 495.045C967.547 516.119 984.671 533.202 1005.79 533.202Z" fill="#222E5B"/>
<path d="M667.443 469.068H661.344V574.134H667.443V469.068Z" fill="#222E5B"/>
<path d="M700.771 436.616C702.507 431.094 702.964 425.251 702.106 419.527C701.249 413.803 699.099 408.349 695.819 403.575C692.539 398.802 688.216 394.834 683.174 391.971C678.133 389.108 672.505 387.425 666.717 387.05C660.533 386.661 654.348 387.773 648.69 390.291C643.032 392.81 638.07 396.659 634.23 401.509C630.39 406.36 627.786 412.067 626.641 418.141C625.496 424.216 625.845 430.477 627.656 436.388C629.125 440.938 629.669 445.736 629.254 450.499C628.839 455.262 627.475 459.894 625.242 464.124C621.6 470.855 619.77 478.412 619.932 486.059C620.093 493.706 622.24 501.18 626.162 507.752C630.084 514.323 635.648 519.767 642.31 523.552C648.972 527.337 656.504 529.333 664.171 529.346C671.837 529.358 679.376 527.386 686.05 523.623C692.724 519.86 698.306 514.434 702.25 507.875C706.193 501.316 708.364 493.849 708.551 486.203C708.737 478.557 706.932 470.993 703.312 464.251C701.066 460.045 699.684 455.435 699.248 450.689C698.812 445.944 699.329 441.159 700.771 436.616V436.616Z" fill="#222E5B"/>
<path d="M45.1322 472.95H39.2109V574.947H45.1322V472.95Z" fill="#222E5B"/>
<path d="M77.3467 441.41C79.0852 435.869 79.4943 429.997 78.5412 424.269C77.5881 418.541 75.2994 413.116 71.8596 408.432C68.4197 403.748 63.925 399.936 58.7376 397.302C53.5501 394.669 47.8151 393.289 41.9948 393.272C36.1745 393.255 30.4317 394.603 25.2293 397.207C20.0268 399.81 15.5102 403.597 12.0435 408.261C8.57682 412.925 6.25703 418.337 5.27106 424.06C4.28509 429.782 4.66054 435.656 6.36715 441.207C7.7921 445.625 8.31926 450.282 7.9178 454.905C7.51633 459.529 6.19428 464.026 4.02909 468.133C0.483628 474.669 -1.29998 482.012 -1.1472 489.442C-0.994418 496.872 1.0895 504.136 4.90065 510.522C8.71181 516.907 14.1196 522.196 20.5947 525.871C27.0698 529.546 34.3903 531.48 41.8397 531.485C49.2891 531.49 56.6123 529.565 63.0923 525.899C69.5723 522.233 74.9872 516.952 78.8069 510.571C82.6267 504.19 84.7204 496.93 84.8832 489.5C85.0459 482.069 83.2722 474.725 79.7356 468.184C77.5772 464.102 76.2544 459.633 75.8443 455.036C75.4342 450.44 75.9449 445.808 77.3467 441.41V441.41Z" fill="#222E5B"/>
</g>
</g>
<defs>
<clipPath id="clip0_3862_32374">
<rect width="1218" height="474" fill="white"/>
</clipPath>
</defs>
</svg>
