<svg width="60" height="60" viewBox="0 0 60 60" fill="none" xmlns="http://www.w3.org/2000/svg">
<g clip-path="url(#clip0_3822_26942)">
<circle cx="30" cy="30" r="30" fill="#FFEFF0"/>
<mask id="mask0_3822_26942" style="mask-type:alpha" maskUnits="userSpaceOnUse" x="0" y="0" width="60" height="60">
<circle cx="30" cy="30" r="30" fill="#FFEFF0"/>
</mask>
<g mask="url(#mask0_3822_26942)">
<path d="M35.816 23.4229H37.3727V38.9907H35.816V23.4229ZM40.4863 27.0035H42.0431V38.835H40.4863V27.0035ZM45.1567 29.183H46.7135V38.835H45.1567V29.183ZM49.827 31.2068H51.3838V38.9907H49.827V31.2068ZM54.4974 31.9852H56.0542V38.835H54.4974V31.9852ZM21.8049 23.4229H23.3617V38.9907H21.8049V23.4229ZM17.1345 27.0035H18.6913V38.835H17.1345V27.0035ZM12.4642 29.183H14.021V38.835H12.4642V29.183ZM7.79383 31.2068H9.35062V38.9907H7.79383V31.2068ZM3.12348 31.9852H4.68026V38.835H3.12348V31.9852ZM60.7245 40.3918H-1.54688V43.5054C1.87805 43.5054 4.68026 46.3076 4.68026 49.7325V68.0774H14.021V55.5774C14.021 52.1525 16.8232 49.3503 20.2481 49.3503H38.9295C42.3544 49.3503 45.1567 52.1525 45.1567 55.5774V68.0774H54.4974V49.7325C54.4974 46.3076 57.2996 43.5054 60.7245 43.5054V40.3918Z" fill="#FC5761"/>
<path d="M-1.54688 37.8353H26.4752V21.022C22.4276 25.8481 13.7096 33.165 -1.54688 33.165V30.0514C17.6016 30.0514 25.5412 17.2858 26.4752 15.5733C26.7866 14.0165 28.032 12.9268 29.5888 12.9268C31.1456 12.9268 32.391 14.0165 32.7024 15.4176C33.9478 17.4414 43.1328 30.0514 60.7245 30.0514V33.165C46.0907 33.165 37.0614 25.381 32.7024 20.555V37.8353H60.7245V42.5057H-1.54688V37.8353Z" fill="#FC5761"/>
</g>
</g>
<defs>
<clipPath id="clip0_3822_26942">
<rect width="60" height="60" fill="white"/>
</clipPath>
</defs>
</svg>
