<svg width="16" height="16" viewBox="0 0 16 16" fill="none" xmlns="http://www.w3.org/2000/svg">
<g clip-path="url(#clip0_3808_26470)">
<path fill-rule="evenodd" clip-rule="evenodd" d="M12.9736 12.3531C14.2351 11.0465 15.0119 9.26337 15.0119 7.29767C15.0119 3.2905 11.7838 0.0420532 7.80162 0.0420532C3.81948 0.0420532 0.591309 3.2905 0.591309 7.29767C0.591309 11.3048 3.81948 14.5533 7.80162 14.5533C9.23178 14.5533 10.5647 14.1343 11.6857 13.4116C11.7286 13.4805 11.7814 13.5447 11.8441 13.602L13.5516 15.5978C13.7508 15.7962 14.0171 15.9114 14.2972 15.9205L14.342 15.958C14.7827 15.9374 15.1702 15.6579 15.3313 15.2446C15.4924 14.8313 15.3969 14.3613 15.0876 14.0447L12.9736 12.3531Z" fill="#B7C0D2"/>
</g>
<defs>
<clipPath id="clip0_3808_26470">
<rect width="16" height="16" fill="white"/>
</clipPath>
</defs>
</svg>
