<svg width="18" height="18" viewBox="0 0 18 18" fill="none" xmlns="http://www.w3.org/2000/svg">
<g clip-path="url(#clip0_3817_27068)">
<circle cx="9" cy="9" r="9" fill="#B7C0D2"/>
<path d="M11.3658 9.95546L11.3658 9.95548L11.3684 9.95399C11.8265 9.6845 12.1875 9.3193 12.4487 8.86055C12.7187 8.40106 12.8538 7.89993 12.8538 7.361C12.8538 6.82236 12.7188 6.32504 12.4482 5.87331C12.187 5.41476 11.8257 5.05358 11.3671 4.79248C10.9076 4.52249 10.4065 4.3874 9.86754 4.3874H6.8418C6.73134 4.3874 6.6418 4.47695 6.6418 4.5874V13.4125C6.6418 13.523 6.73134 13.6125 6.8418 13.6125H7.98906C8.09952 13.6125 8.18906 13.523 8.18906 13.4125V10.3472H9.86754C10.4057 10.3472 10.9063 10.2167 11.3658 9.95546ZM11.157 6.62935L11.157 6.62936L11.1585 6.63182C11.2906 6.85195 11.3569 7.09357 11.3569 7.361C11.3569 7.62846 11.2905 7.87536 11.157 8.10526C11.0232 8.33574 10.8423 8.51666 10.6118 8.65049C10.3819 8.78398 10.135 8.85038 9.86754 8.85038H8.18906V5.88424H9.86754C10.135 5.88424 10.3819 5.95063 10.6118 6.08412C10.8423 6.21795 11.0232 6.39887 11.157 6.62935Z" fill="white" stroke="white" stroke-width="0.4" stroke-linejoin="round"/>
</g>
<defs>
<clipPath id="clip0_3817_27068">
<rect width="18" height="18" fill="white"/>
</clipPath>
</defs>
</svg>
