<svg width="16" height="16" viewBox="0 0 16 16" fill="none" xmlns="http://www.w3.org/2000/svg">
<g clip-path="url(#clip0_3818_27234)">
<path fill-rule="evenodd" clip-rule="evenodd" d="M5.83381 2.55172C5.26783 3.78484 4.88565 5.47035 4.81556 7.36757C4.80936 7.53536 4.94485 7.67334 5.11276 7.67334L10.8388 7.67334C11.0068 7.67334 11.1422 7.53537 11.136 7.36757C11.0659 5.47035 10.6838 3.78484 10.1178 2.55172C9.46971 1.13974 8.6757 0.500002 7.9758 0.500002C7.2759 0.500002 6.48189 1.13974 5.83381 2.55172ZM0.000909636 7.36147C-0.0125058 7.53135 0.124229 7.67334 0.294636 7.67334H3.51218C3.67577 7.67334 3.80893 7.54213 3.81454 7.37864C3.88382 5.35774 4.28879 3.52064 4.92497 2.13458C5.10349 1.74563 5.30683 1.37953 5.53364 1.05104C5.70998 0.795635 5.47239 0.393118 5.18158 0.501531C2.33142 1.56405 0.250173 4.20506 0.000909636 7.36147ZM0.329775 8.67334C0.154262 8.67334 0.0157341 8.82349 0.0374006 8.99766C0.410176 11.9943 2.44022 14.4765 5.1816 15.4985C5.47241 15.6069 5.70998 15.2044 5.53364 14.949C5.30683 14.6205 5.10349 14.2544 4.92497 13.8654C4.32475 12.5577 3.93034 10.8485 3.82948 8.96222C3.82087 8.80111 3.68869 8.67334 3.52734 8.67334H0.329775ZM10.418 14.949C10.2416 15.2044 10.4792 15.6069 10.77 15.4985C13.5114 14.4765 15.5414 11.9943 15.9142 8.99766C15.9359 8.82349 15.7973 8.67334 15.6218 8.67334H12.4243C12.2629 8.67334 12.1307 8.80111 12.1221 8.96222C12.0213 10.8485 11.6268 12.5577 11.0266 13.8654C10.8481 14.2544 10.6448 14.6205 10.418 14.949ZM15.657 7.67334C15.8274 7.67334 15.9641 7.53135 15.9507 7.36147C15.7014 4.20506 13.6202 1.56405 10.77 0.501531C10.4792 0.393118 10.2416 0.795635 10.418 1.05103C10.6448 1.37953 10.8481 1.74563 11.0266 2.13458C11.6628 3.52064 12.0678 5.35774 12.1371 7.37864C12.1427 7.54213 12.2758 7.67334 12.4394 7.67334H15.657ZM10.1178 13.4483C10.6484 12.2921 11.0175 10.7383 11.1193 8.98512C11.1292 8.81509 10.9928 8.67334 10.8224 8.67334L5.12916 8.67334C4.95885 8.67334 4.82243 8.81509 4.8323 8.98512C4.93407 10.7383 5.30315 12.2921 5.83381 13.4483C6.48189 14.8603 7.2759 15.5 7.9758 15.5C8.6757 15.5 9.46971 14.8603 10.1178 13.4483Z" fill="#B7C0D2"/>
</g>
<defs>
<clipPath id="clip0_3818_27234">
<rect width="16" height="16" fill="white"/>
</clipPath>
</defs>
</svg>
