<svg width="60" height="60" viewBox="0 0 60 60" fill="none" xmlns="http://www.w3.org/2000/svg">
<g clip-path="url(#clip0_3859_31444)">
<circle cx="30" cy="30" r="30" fill="#F4F7FB"/>
<circle cx="36.7439" cy="23.4473" r="12.3494" fill="#FC5761" stroke="#F4F7FB" stroke-width="1.5"/>
<path fill-rule="evenodd" clip-rule="evenodd" d="M33.2383 21.5437C33.2383 20.1444 34.3727 19.01 35.772 19.01H39.3705C39.4846 19.01 39.5771 19.1025 39.5771 19.2166V20.2776C39.5771 20.3917 39.4846 20.4842 39.3705 20.4842H35.772C35.1868 20.4842 34.7124 20.9585 34.7124 21.5437C34.7124 22.1289 35.1868 22.6033 35.772 22.6033H37.7989C39.1881 22.6033 40.3142 23.7294 40.3142 25.1185C40.3142 26.5077 39.1881 27.6338 37.7989 27.6338H34.182C34.0679 27.6338 33.9754 27.5413 33.9754 27.4272V26.3662C33.9754 26.2521 34.0679 26.1596 34.182 26.1596H37.7989C38.3739 26.1596 38.8401 25.6935 38.8401 25.1185C38.8401 24.5435 38.3739 24.0774 37.7989 24.0774H35.772C34.3727 24.0774 33.2383 22.943 33.2383 21.5437Z" fill="#F4F7FB"/>
<path fill-rule="evenodd" clip-rule="evenodd" d="M36.2457 29.0251C36.1316 29.0251 36.0391 28.9326 36.0391 28.8185L36.0391 17.8255C36.0391 17.7114 36.1316 17.6189 36.2457 17.6189L37.3066 17.6189C37.4207 17.6189 37.5132 17.7114 37.5132 17.8255L37.5132 28.8185C37.5132 28.9326 37.4207 29.0251 37.3066 29.0251L36.2457 29.0251Z" fill="#F4F7FB"/>
<circle cx="23.2557" cy="36.553" r="12.3494" fill="#FC5761" stroke="#F4F7FB" stroke-width="1.5"/>
<path fill-rule="evenodd" clip-rule="evenodd" d="M19.7188 34.7747C19.7188 33.3753 20.8531 32.241 22.2524 32.241H25.851C25.9651 32.241 26.0576 32.3335 26.0576 32.4476V33.5085C26.0576 33.6226 25.9651 33.7151 25.851 33.7151H22.2524C21.6673 33.7151 21.1929 34.1895 21.1929 34.7747C21.1929 35.3598 21.6673 35.8342 22.2524 35.8342H24.2794C25.6686 35.8342 26.7947 36.9603 26.7947 38.3495C26.7947 39.7386 25.6686 40.8648 24.2794 40.8648H20.6624C20.5483 40.8648 20.4558 40.7723 20.4558 40.6582V39.5972C20.4558 39.4831 20.5483 39.3906 20.6624 39.3906H24.2794C24.8544 39.3906 25.3205 38.9245 25.3205 38.3495C25.3205 37.7745 24.8544 37.3084 24.2794 37.3084H22.2524C20.8531 37.3084 19.7188 36.174 19.7188 34.7747Z" fill="#F4F7FB"/>
<path fill-rule="evenodd" clip-rule="evenodd" d="M22.7261 42.2561C22.612 42.2561 22.5195 42.1636 22.5195 42.0495L22.5195 31.0565C22.5195 30.9424 22.612 30.8499 22.7261 30.8499L23.7871 30.8499C23.9012 30.8499 23.9937 30.9424 23.9937 31.0565L23.9937 42.0495C23.9937 42.1636 23.9012 42.2561 23.7871 42.2561L22.7261 42.2561Z" fill="#F4F7FB"/>
</g>
<defs>
<clipPath id="clip0_3859_31444">
<rect width="60" height="60" fill="white"/>
</clipPath>
</defs>
</svg>
