<svg width="784" height="454" viewBox="0 0 784 454" fill="none" xmlns="http://www.w3.org/2000/svg">
<g clip-path="url(#clip0_3867_34179)">
<path d="M144.62 7.37681C141.752 7.86836 140.476 11.2665 142.311 13.5245L165.936 42.5994C168.209 45.3974 172.737 43.7575 172.691 40.1526L172.472 22.8239C172.46 21.8696 172.807 20.9456 173.444 20.2353L185.018 7.33704C187.426 4.65379 185.098 0.438528 181.545 1.0476L144.62 7.37681Z" fill="#FC5761"/>
<path d="M182.77 22.6996C213.475 26.4709 267.596 51.0387 238.44 119.139C201.996 204.264 230.398 273.416 382.807 265.551" stroke="#111828" stroke-width="2" stroke-linecap="round" stroke-dasharray="8.88 8.88"/>
<g clip-path="url(#clip1_3867_34179)">
<path d="M709.387 570.717H1195.37V449.37H1040.25C1026.39 449.369 1012.66 452.085 999.847 457.363C987.037 462.642 975.397 470.38 965.593 480.134L928.552 516.987C922.046 523.471 914.318 528.614 905.811 532.122C897.304 535.631 888.185 537.435 878.976 537.432H760.444C749.193 537.43 738.4 541.873 730.441 549.785L709.387 570.717Z" fill="#142949"/>
<path d="M47.976 399.778V424.129H117.736V285.3L188.397 305.575V351.098H219.201L247.301 323.161V223.089H261.515V191.994H288.449V137.567H295.842V191.994H322.775V223.089H336.088V301.52H387.743L399.519 313.237L420.574 292.29V150.078L503.729 126.645V58.137H583.463V93.2874H637.821L708.953 164.057V467.389H1.74933V419.177L47.976 399.778Z" fill="#D6E3FD"/>
<path d="M-137.552 465.811H20.2558C30.8282 465.813 41.2976 463.743 51.0658 459.719C60.834 455.695 69.7095 449.796 77.1853 442.358L85.3897 434.157C106.747 412.926 135.701 400.997 165.892 400.99H274.32L192.393 482.519C169.507 505.266 138.481 518.044 106.132 518.043H-178.978V507.026C-178.973 496.096 -174.607 485.616 -166.839 477.888C-159.072 470.16 -148.538 465.816 -137.552 465.811V465.811Z" fill="#334663"/>
<path d="M1181.96 280.833H771.745L835.819 217.085C842.016 210.94 850.412 207.494 859.161 207.504H990.95C1002.18 207.503 1012.95 203.065 1020.9 195.165L1104 112.428C1110.2 106.291 1118.59 102.846 1127.34 102.848H1181.96V280.833Z" fill="#FC5761"/>
<path d="M1181.96 402.888H442.108L630.461 215.418C641.853 204.08 655.378 195.087 670.266 188.952C685.153 182.817 701.109 179.661 717.222 179.664H928.821C937.568 179.662 945.961 183.107 952.163 189.245L975.466 212.429C983.405 220.324 994.169 224.762 1005.39 224.769H1077.31C1081.64 224.76 1085.93 225.601 1089.94 227.245C1093.94 228.889 1097.58 231.303 1100.65 234.349L1181.96 315.399V402.888Z" fill="#446089"/>
<path d="M358.799 267.842H363.344V358.013H358.799V267.842Z" fill="#0A1F48"/>
<path d="M329.505 231.876C327.878 227.689 327.118 223.218 327.271 218.731C327.419 209.813 331.122 201.318 337.566 195.116C344.009 188.914 352.665 185.513 361.629 185.66C370.593 185.807 379.132 189.491 385.366 195.902C391.599 202.313 395.018 210.924 394.87 219.843C394.877 224.012 394.099 228.145 392.578 232.029C391.399 234.957 390.922 238.118 391.186 241.262C391.45 244.405 392.448 247.444 394.1 250.136C397.706 255.976 399.683 262.667 399.827 269.52C399.972 276.372 398.278 283.139 394.92 289.124C391.563 295.11 386.663 300.096 380.724 303.572C374.786 307.047 368.025 308.885 361.135 308.897C354.246 308.909 347.478 307.095 341.528 303.64C335.577 300.185 330.66 295.215 327.281 289.242C323.903 283.269 322.185 276.507 322.305 269.654C322.425 262.801 324.379 256.104 327.965 250.251C329.63 247.515 330.636 244.431 330.904 241.243C331.171 238.055 330.692 234.849 329.505 231.876V231.876Z" fill="#FC5761"/>
<path d="M658.075 142.433H756.469V356.67H658.075V142.433Z" fill="white"/>
<path d="M810.163 356.69H756.469V142.453H810.163V356.69Z" fill="#0A1F48"/>
<path d="M716.632 165.1H732.906V181.291H716.632V165.1Z" fill="#0A1F48"/>
<path d="M716.632 200.512H732.906V216.702H716.632V200.512Z" fill="#0A1F48"/>
<path d="M716.632 235.9H732.906V252.091H716.632V235.9Z" fill="#0A1F48"/>
<path d="M716.632 271.29H732.906V287.481H716.632V271.29Z" fill="#0A1F48"/>
<path d="M716.632 306.68H732.906V322.871H716.632V306.68Z" fill="#0A1F48"/>
<path d="M679.711 165.1H695.984V181.291H679.711V165.1Z" fill="#0A1F48"/>
<path d="M679.711 200.512H695.984V216.702H679.711V200.512Z" fill="#0A1F48"/>
<path d="M679.711 235.9H695.984V252.091H679.711V235.9Z" fill="#0A1F48"/>
<path d="M679.711 271.29H695.984V287.481H679.711V271.29Z" fill="#0A1F48"/>
<path d="M679.711 306.68H695.984V322.871H679.711V306.68Z" fill="#0A1F48"/>
<path d="M749.681 356.69C754.669 343.277 772.792 333.409 794.439 333.409C796.083 333.407 797.711 333.081 799.228 332.449C800.746 331.818 802.122 330.894 803.279 329.73C811.11 322.129 821.217 317.272 832.071 315.896C839.675 314.841 846.814 311.636 852.639 306.661C860.15 300.108 871.995 295.873 885.38 295.873C898.765 295.873 910.416 300.07 917.985 306.584C923.964 311.723 931.257 315.112 939.055 316.375C948.427 317.633 957.015 322.253 963.205 329.366C966.944 333.894 971.52 337.666 976.687 340.48C984.14 344.58 989.59 350.233 992.094 356.69H749.681Z" fill="#FC5761"/>
<path d="M257.896 394.131L80.3473 570.717H821.587C824.831 570.717 828.044 570.078 831.039 568.838C834.034 567.597 836.753 565.78 839.039 563.489C841.325 561.199 843.133 558.481 844.359 555.492C845.584 552.504 846.203 549.304 846.181 546.076C846.211 542.978 847.475 540.018 849.695 537.845C851.915 535.672 854.911 534.463 858.025 534.484H946.501C954.202 534.486 961.828 532.978 968.943 530.045C976.058 527.112 982.522 522.813 987.965 517.392L1006.7 498.73C1020.93 484.585 1040.21 476.638 1060.32 476.637H1181.96V259.718C1181.95 256.601 1180.7 253.615 1178.48 251.417C1176.26 249.218 1173.25 247.986 1170.12 247.991H1006.42C988.257 247.993 970.842 255.167 957.998 267.938L896.196 329.425C878.618 346.908 854.781 356.729 829.926 356.729H348.798C314.713 356.719 282.018 370.172 257.896 394.131V394.131Z" fill="#1D3860"/>
<path d="M671.939 336.802H676.445V426.015H671.939V336.802Z" fill="#0A1F48"/>
<path d="M642.944 301.22C641.353 297.078 640.62 292.659 640.788 288.229C641.085 279.506 644.815 271.249 651.173 265.235C657.531 259.222 666.009 255.934 674.78 256.08C683.551 256.226 691.914 259.793 698.066 266.014C704.219 272.236 707.669 280.612 707.674 289.34C707.677 293.463 706.907 297.55 705.401 301.392C704.232 304.288 703.759 307.416 704.02 310.527C704.281 313.637 705.268 316.644 706.904 319.307C710.466 325.087 712.416 331.707 712.555 338.485C712.693 345.264 711.014 351.956 707.69 357.875C704.366 363.794 699.518 368.725 693.644 372.162C687.769 375.598 681.081 377.416 674.266 377.428C667.452 377.44 660.757 375.645 654.87 372.23C648.984 368.814 644.118 363.9 640.773 357.993C637.429 352.086 635.726 345.399 635.84 338.62C635.954 331.841 637.881 325.215 641.423 319.422C643.073 316.712 644.07 313.657 644.334 310.499C644.598 307.34 644.122 304.164 642.944 301.22V301.22Z" fill="#FC5761"/>
<path d="M390.417 440.538C399.516 431.493 411.854 426.414 424.717 426.417H1181.96V476.637H1060.34C1050.38 476.635 1040.52 478.585 1031.31 482.376C1022.11 486.166 1013.75 491.723 1006.7 498.73L987.946 517.392C982.503 522.813 976.039 527.112 968.924 530.045C961.809 532.978 954.183 534.486 946.481 534.484H858.025C854.911 534.463 851.915 535.672 849.695 537.845C847.475 540.018 846.211 542.978 846.181 546.076C846.203 549.304 845.584 552.504 844.359 555.493C843.133 558.481 841.325 561.199 839.039 563.489C836.753 565.78 834.034 567.597 831.039 568.838C828.044 570.078 824.831 570.717 821.587 570.717H259.571L390.417 440.538Z" fill="#142949"/>
</g>
</g>
<defs>
<clipPath id="clip0_3867_34179">
<rect width="784" height="454" fill="white"/>
</clipPath>
<clipPath id="clip1_3867_34179">
<rect width="1354.52" height="706.137" fill="white" transform="matrix(-1 0 0 1 1182.54 -20.08)"/>
</clipPath>
</defs>
</svg>
