<svg width="60" height="60" viewBox="0 0 60 60" fill="none" xmlns="http://www.w3.org/2000/svg">
<g clip-path="url(#clip0_3859_31445)">
<circle cx="30" cy="30" r="30" fill="#F4F7FB"/>
<path d="M12.25 18.2365C12.8634 15.6724 14.8401 14.4475 17.0649 13.5315C19.7529 12.4247 22.5824 12.1176 25.4749 12.298C27.7014 12.4368 29.8441 12.8914 31.8644 13.8594C32.908 14.3393 33.8454 15.0197 34.6223 15.8615C36.2442 17.6814 36.2127 19.8864 34.5332 21.6491C33.3465 22.8947 31.8505 23.6338 30.2373 24.1473C26.9971 25.1778 23.6939 25.3045 20.3558 24.7372C18.3337 24.3902 16.4095 23.7778 14.7055 22.6067C13.6045 21.8486 12.7096 20.9187 12.3566 19.5811C12.3251 19.4579 12.2867 19.3382 12.25 19.2168V18.2365Z" fill="#111828"/>
<path d="M12.25 24.0811C12.2498 24.0193 12.2674 23.9587 12.3006 23.9064C12.3338 23.8542 12.3812 23.8123 12.4375 23.7858C12.4937 23.7592 12.5563 23.7491 12.6181 23.7565C12.6799 23.764 12.7384 23.7887 12.7866 23.8278C15.3609 25.8611 18.4072 26.7043 21.6491 27.0547C23.2797 27.2282 24.9243 27.2282 26.5549 27.0547C26.5953 27.0488 26.6365 27.0554 26.6729 27.0736C26.7093 27.0918 26.7391 27.1208 26.7583 27.1566C26.7774 27.1923 26.7849 27.233 26.7798 27.2732C26.7747 27.3134 26.7572 27.351 26.7297 27.3809C26.3557 27.799 26.0603 28.1355 25.5972 28.715C25.0413 29.4283 24.596 30.22 24.2759 31.064C24.1711 31.3347 24.0575 31.4284 23.7831 31.4214C21.013 31.352 18.3268 30.901 15.831 29.6362C14.7499 29.1203 13.805 28.3612 13.0714 27.419C12.9477 27.2548 12.8378 27.0807 12.7429 26.8986C12.4129 26.254 12.245 25.5397 12.2535 24.8167L12.25 24.0811Z" fill="#111828"/>
<path d="M12.2521 36.9816C12.2521 36.901 12.2747 36.8221 12.3174 36.7536C12.3601 36.685 12.4211 36.6297 12.4937 36.5936C12.5662 36.5576 12.6475 36.5424 12.7283 36.5496C12.8091 36.5568 12.8863 36.5863 12.9512 36.6346C13.8318 37.3116 14.7977 37.8715 15.8244 38.3001C18.0137 39.1921 20.3425 39.6994 22.7069 39.799C23.406 39.8372 23.406 39.8268 23.593 40.4791C23.9248 41.6294 24.4078 42.7313 25.0296 43.7563C25.0768 43.8327 25.117 43.9159 25.1799 44.0374C24.8758 44.0547 24.6066 44.0825 24.3375 44.0842C21.5062 44.1016 18.7571 43.6904 16.174 42.4777C14.9646 41.9087 13.881 41.1713 13.0666 40.0905C12.9443 39.9256 12.835 39.7516 12.7397 39.57C12.4088 38.9258 12.2409 38.2113 12.2504 37.4882L12.2521 36.9816Z" fill="#111828"/>
<path d="M12.25 30.2523C12.25 30.2063 12.2632 30.1612 12.2881 30.1223C12.3129 30.0834 12.3484 30.0524 12.3903 30.0327C12.4323 30.0131 12.479 30.0057 12.525 30.0114C12.571 30.0171 12.6144 30.0357 12.6502 30.0649C13.666 30.8907 14.8021 31.5587 16.0198 32.0462C18.1209 32.8706 20.3435 33.3488 22.5999 33.4618C22.7292 33.4618 22.9722 33.4792 23.1609 33.4879C23.1926 33.4895 23.2235 33.4978 23.2516 33.5124C23.2797 33.527 23.3043 33.5474 23.3237 33.5723C23.3431 33.5971 23.3569 33.6259 23.3641 33.6565C23.3713 33.6872 23.3717 33.719 23.3654 33.7498C23.0991 34.9556 22.9992 36.1918 23.0683 37.4243C23.0712 37.4597 23.0663 37.4952 23.054 37.5286C23.0417 37.5619 23.0222 37.5921 22.9969 37.6172C22.9716 37.6423 22.9412 37.6616 22.9076 37.6738C22.8741 37.6861 22.8382 37.6909 22.8026 37.688C22.2783 37.6429 21.7802 37.6065 21.2821 37.5406C19.122 37.2578 17.0474 36.7043 15.1652 35.5749C14.2913 35.0545 13.4926 34.4438 12.9683 33.5711C12.8996 33.4555 12.8367 33.3398 12.7796 33.2242C12.4256 32.4588 12.2466 31.6252 12.2552 30.7832L12.25 30.2523Z" fill="#111828"/>
<path d="M36.4624 47.7501C42.6959 47.7501 47.7491 42.734 47.7491 36.5462C47.7491 30.3585 42.6959 25.3423 36.4624 25.3423C30.229 25.3423 25.1758 30.3585 25.1758 36.5462C25.1758 42.734 30.229 47.7501 36.4624 47.7501Z" fill="#111828"/>
<path fill-rule="evenodd" clip-rule="evenodd" d="M32.9258 34.7678C32.9258 33.3685 34.0602 32.2341 35.4595 32.2341H39.058C39.1721 32.2341 39.2646 32.3266 39.2646 32.4407V33.5017C39.2646 33.6158 39.1721 33.7083 39.058 33.7083H35.4595C34.8743 33.7083 34.3999 34.1827 34.3999 34.7678C34.3999 35.353 34.8743 35.8274 35.4595 35.8274H37.4864C38.8756 35.8274 40.0017 36.9535 40.0017 38.3426C40.0017 39.7318 38.8756 40.8579 37.4864 40.8579H33.8695C33.7554 40.8579 33.6629 40.7654 33.6629 40.6513V39.5904C33.6629 39.4763 33.7554 39.3838 33.8695 39.3838H37.4864C38.0614 39.3838 38.5276 38.9176 38.5276 38.3426C38.5276 37.7677 38.0614 37.3015 37.4864 37.3015H35.4595C34.0602 37.3015 32.9258 36.1672 32.9258 34.7678Z" fill="#F4F7FB"/>
<path fill-rule="evenodd" clip-rule="evenodd" d="M35.9332 42.2493C35.8191 42.2493 35.7266 42.1568 35.7266 42.0427L35.7266 31.0496C35.7266 30.9355 35.8191 30.843 35.9332 30.843L36.9941 30.843C37.1082 30.843 37.2007 30.9355 37.2007 31.0496L37.2007 42.0427C37.2007 42.1568 37.1082 42.2493 36.9941 42.2493L35.9332 42.2493Z" fill="#F4F7FB"/>
</g>
<defs>
<clipPath id="clip0_3859_31445">
<rect width="60" height="60" fill="white"/>
</clipPath>
</defs>
</svg>
