<svg width="52" height="48" viewBox="0 0 52 48" fill="none" xmlns="http://www.w3.org/2000/svg">
<g clip-path="url(#clip0_3717_23492)">
<circle cx="26.1981" cy="23.7612" r="21.081" fill="#F4F7FB"/>
<path d="M26.45 9.65925C26.8788 8.05886 28.5239 7.10911 30.1242 7.53793L49.4362 12.7125C51.0366 13.1414 51.9863 14.7864 51.5575 16.3868L49.8025 22.9364C48.1985 28.9227 43.9099 33.8272 38.191 36.2154L37.3576 36.5635C34.4793 37.7655 31.1529 36.918 29.2007 34.4852L28.4947 33.6054C24.5073 28.6366 23.1258 22.0654 24.7747 15.9116L26.45 9.65925Z" fill="#111828"/>
<path d="M34.588 17.928C34.2173 18.2971 33.7561 18.5623 33.2506 18.6971C32.7451 18.8319 32.2131 18.8316 31.7078 18.6962C31.2025 18.5608 30.7416 18.2951 30.3713 17.9256C30.0009 17.5561 29.7341 17.0958 29.5976 16.5908" stroke="white" stroke-width="2" stroke-linecap="round" stroke-linejoin="round"/>
<path d="M45.3732 20.8184C45.0024 21.1874 44.5412 21.4526 44.0358 21.5875C43.5303 21.7223 42.9983 21.722 42.493 21.5866C41.9877 21.4512 41.5268 21.1854 41.1564 20.8159C40.7861 20.4465 40.5193 19.9862 40.3827 19.4812" stroke="white" stroke-width="2" stroke-linecap="round" stroke-linejoin="round"/>
<path d="M30.4571 26.4348C31.1443 25.7508 31.9991 25.2592 32.936 25.0094C33.8729 24.7595 34.859 24.7601 35.7956 25.011C36.7322 25.262 37.5864 25.7545 38.2729 26.4394C38.9593 27.1242 39.4538 27.9773 39.7069 28.9133" stroke="white" stroke-width="2" stroke-linecap="round" stroke-linejoin="round"/>
<path d="M0.83496 19.836C0.406135 18.2356 1.35588 16.5906 2.95628 16.1618L22.2682 10.9872C23.8686 10.5583 25.5136 11.5081 25.9424 13.1085L27.6974 19.6581C29.3014 25.6444 28.0396 32.0361 24.2811 36.9638L23.7333 37.6819C21.8416 40.1621 18.5371 41.0913 15.6301 39.9606L14.5788 39.5517C8.64123 37.2422 4.15918 32.2422 2.51027 26.0884L0.83496 19.836Z" fill="#FC5761"/>
<path d="M7.40788 25.7032C7.54445 25.1982 7.81125 24.7379 8.18159 24.3684C8.55193 23.9989 9.01282 23.7332 9.51813 23.5978C10.0234 23.4624 10.5555 23.4621 11.0609 23.5969C11.5664 23.7317 12.0276 23.9969 12.3983 24.366" stroke="white" stroke-width="2" stroke-linecap="round" stroke-linejoin="round"/>
<path d="M18.193 22.8135C18.3296 22.3085 18.5964 21.8482 18.9668 21.4788C19.3371 21.1093 19.798 20.8435 20.3033 20.7081C20.8086 20.5727 21.3406 20.5724 21.8461 20.7072C22.3515 20.8421 22.8127 21.1073 23.1835 21.4763" stroke="white" stroke-width="2" stroke-linecap="round" stroke-linejoin="round"/>
<path d="M21.2263 27.2202C20.9732 28.1562 20.4787 29.0094 19.7923 29.6942C19.1058 30.379 18.2516 30.8716 17.315 31.1226C16.3784 31.3735 15.3923 31.3741 14.4554 31.1242C13.5185 30.8743 12.6637 30.3828 11.9765 29.6987" stroke="white" stroke-width="2" stroke-linecap="round" stroke-linejoin="round"/>
</g>
<defs>
<clipPath id="clip0_3717_23492">
<rect width="52" height="48" fill="white"/>
</clipPath>
</defs>
</svg>
