<svg width="1170" height="444" viewBox="0 0 1170 444" fill="none" xmlns="http://www.w3.org/2000/svg">
<g clip-path="url(#clip0_3857_29961)">
<g opacity="0.6">
<path d="M1199.02 250.427C1166.08 254.473 1108.03 280.826 1139.31 353.875C1178.4 445.186 1147.93 519.363 984.448 510.926" stroke="#222E5B" stroke-width="2" stroke-linecap="round" stroke-dasharray="8.88 8.88"/>
<path d="M39.4879 3.18598C40.5137 0.40785 44.1517 -0.236911 46.0697 2.01951L76.5186 37.841C78.8952 40.6369 76.4113 44.8623 72.8125 44.1455L50.7932 39.7597C49.8405 39.57 48.8513 39.7453 48.0219 40.2509L28.8509 51.9366C25.7176 53.8465 21.9329 50.7322 23.2039 47.2898L39.4879 3.18598Z" fill="#222E5B"/>
<path d="M51.7715 52.4336C64.5364 114.049 131.152 247.452 295.495 288.145" stroke="#222E5B" stroke-width="2" stroke-linecap="round" stroke-dasharray="9.92 9.92"/>
<path d="M423.07 240.131V321.162H456.237V626.234H423.07H384.182V240.131H423.07Z" fill="#222E5B"/>
<path d="M582.973 626.234H683.375V234.413H582.973V626.234Z" fill="#222E5B"/>
<path d="M569.497 626.214H650.475V331.539H569.497V626.214Z" fill="#222E5B"/>
<path d="M859.843 308.607V196.167H895.471V308.607H921.856V626.234H833.457V308.607H859.843Z" fill="#222E5B"/>
<path d="M816.556 626.234H885.551V349.932H816.556V626.234Z" fill="#222E5B"/>
<path d="M515.947 626.234H603.586L603.586 157.261H515.947V626.234Z" fill="#222E5B"/>
<path d="M474.701 626.234H562.34L562.34 157.261H474.701L474.701 626.234Z" fill="#222E5B"/>
<path d="M484.122 192.868H547.756V183.951H484.122V192.868Z" fill="#222E5B"/>
<path d="M484.122 224.257H547.756V215.34H484.122V224.257Z" fill="#222E5B"/>
<path d="M484.122 255.686H547.756V246.769H484.122V255.686Z" fill="#222E5B"/>
<path d="M484.122 287.095H547.756V278.178H484.122V287.095Z" fill="#222E5B"/>
<path d="M484.122 318.523H547.756V309.607H484.122V318.523Z" fill="#222E5B"/>
<path d="M484.122 349.912H547.756V340.995H484.122V349.912Z" fill="#222E5B"/>
<path d="M484.122 381.341H547.756V372.424H484.122V381.341Z" fill="#222E5B"/>
<path d="M484.122 412.75H547.756V403.833H484.122V412.75Z" fill="#222E5B"/>
<path d="M484.122 444.179H547.756V435.262H484.122V444.179Z" fill="#222E5B"/>
<path d="M721.814 626.234H827.697V270.3H721.814V626.234Z" fill="#222E5B"/>
<path d="M671.986 626.234H777.869V270.3H671.986V626.234Z" fill="#222E5B"/>
<path d="M683.361 297.311H760.238V290.553H683.361V297.311Z" fill="#222E5B"/>
<path d="M683.361 321.163H760.238V314.405H683.361V321.163Z" fill="#222E5B"/>
<path d="M683.361 344.994H760.238V338.236H683.361V344.994Z" fill="#222E5B"/>
<path d="M683.361 368.846H760.238V362.088H683.361V368.846Z" fill="#222E5B"/>
<path d="M683.361 392.677H760.238V385.919H683.361V392.677Z" fill="#222E5B"/>
<path d="M683.361 416.529H760.238V409.771H683.361V416.529Z" fill="#222E5B"/>
<path d="M683.361 440.36H760.238V433.603H683.361V440.36Z" fill="#222E5B"/>
<path d="M732.797 270.3H797.191V53.8173H732.797V270.3Z" fill="#222E5B"/>
<path d="M702.495 270.3H766.889V53.8173H702.495V270.3Z" fill="#222E5B"/>
<path d="M709.41 70.2516H756.16V66.1331H709.41V70.2516Z" fill="#222E5B"/>
<path d="M709.41 84.7666H756.16V80.6481H709.41V84.7666Z" fill="#222E5B"/>
<path d="M709.41 99.2411H756.16V95.1226H709.41V99.2411Z" fill="#222E5B"/>
<path d="M709.41 113.756H756.16V109.638H709.41V113.756Z" fill="#222E5B"/>
<path d="M709.41 128.251H756.16V124.133H709.41V128.251Z" fill="#222E5B"/>
<path d="M709.41 142.746H756.16V138.627H709.41V142.746Z" fill="#222E5B"/>
<path d="M709.41 157.241H756.16V153.122H709.41V157.241Z" fill="#222E5B"/>
<path d="M709.41 171.755H756.16V167.637H709.41V171.755Z" fill="#222E5B"/>
<path d="M709.41 186.251H756.16V182.132H709.41V186.251Z" fill="#222E5B"/>
<path d="M709.41 200.745H756.16V196.626H709.41V200.745Z" fill="#222E5B"/>
<path d="M709.41 215.26H756.16V211.142H709.41V215.26Z" fill="#222E5B"/>
<path d="M709.41 229.755H756.16V225.637H709.41V229.755Z" fill="#222E5B"/>
<path d="M709.41 244.27H756.16V240.151H709.41V244.27Z" fill="#222E5B"/>
<path d="M709.41 258.745H756.16V254.626H709.41V258.745Z" fill="#222E5B"/>
<path d="M233.268 215.78L386.261 275.479V626.234H233.268V259.584H210.383V215.78H233.268Z" fill="#222E5B"/>
<path d="M210.383 626.234H363.396V275.479L210.383 215.78V626.234Z" fill="#222E5B"/>
<path d="M350.971 307.687H338.748V331.539H350.971V307.687Z" fill="#222E5B"/>
<path d="M350.971 399.954H338.748V423.806H350.971V399.954Z" fill="#222E5B"/>
<path d="M350.971 369.206H338.748V393.057H350.971V369.206Z" fill="#222E5B"/>
<path d="M350.971 338.437H338.748V362.288H350.971V338.437Z" fill="#222E5B"/>
<path d="M350.971 430.724H338.748V454.575H350.971V430.724Z" fill="#222E5B"/>
<path d="M321.992 307.687H309.77V331.539H321.992V307.687Z" fill="#222E5B"/>
<path d="M321.992 430.724H309.77V454.575H321.992V430.724Z" fill="#222E5B"/>
<path d="M321.992 369.206H309.77V393.057H321.992V369.206Z" fill="#222E5B"/>
<path d="M321.992 338.437H309.77V362.288H321.992V338.437Z" fill="#222E5B"/>
<path d="M321.992 399.954H309.77V423.806H321.992V399.954Z" fill="#222E5B"/>
<path d="M293.002 430.724H280.779V454.575H293.002V430.724Z" fill="#222E5B"/>
<path d="M293.002 307.687H280.779V331.539H293.002V307.687Z" fill="#222E5B"/>
<path d="M293.002 399.954H280.779V423.806H293.002V399.954Z" fill="#222E5B"/>
<path d="M293.002 369.206H280.779V393.057H293.002V369.206Z" fill="#222E5B"/>
<path d="M293.002 338.437H280.779V362.288H293.002V338.437Z" fill="#222E5B"/>
<path d="M264.037 399.954H251.814V423.806H264.037V399.954Z" fill="#222E5B"/>
<path d="M264.037 369.206H251.814V393.057H264.037V369.206Z" fill="#222E5B"/>
<path d="M264.037 338.437H251.814V362.288H264.037V338.437Z" fill="#222E5B"/>
<path d="M264.037 307.687H251.814V331.539H264.037V307.687Z" fill="#222E5B"/>
<path d="M264.037 430.724H251.814V454.575H264.037V430.724Z" fill="#222E5B"/>
<path d="M235.051 338.437H222.828V362.288H235.051V338.437Z" fill="#222E5B"/>
<path d="M235.051 399.954H222.828V423.806H235.051V399.954Z" fill="#222E5B"/>
<path d="M235.051 430.724H222.828V454.575H235.051V430.724Z" fill="#222E5B"/>
<path d="M235.051 307.687H222.828V331.539H235.051V307.687Z" fill="#222E5B"/>
<path d="M235.051 369.206H222.828V393.057H235.051V369.206Z" fill="#222E5B"/>
<path d="M928.059 626.234H1052.05V204.244L928.059 278.997V626.234Z" fill="#222E5B"/>
<path d="M1052.04 626.234H1094.91V204.244H1052.04V626.234Z" fill="#222E5B"/>
<path d="M1024.42 241.031V608.4H1036.48V233.773L1024.42 241.031Z" fill="#222E5B"/>
<path d="M1004.19 253.226V608.4H1016.29V245.929L1004.19 253.226Z" fill="#222E5B"/>
<path d="M984.008 265.382V608.4H996.07V258.125L984.008 265.382Z" fill="#222E5B"/>
<path d="M963.809 277.578V608.4H975.891V270.3L963.809 277.578Z" fill="#222E5B"/>
<path d="M943.607 289.754V608.401H955.69V282.476L943.607 289.754Z" fill="#222E5B"/>
<path d="M1.67773 626.234H111.262V253.227L1.67773 319.283V626.234Z" fill="#222E5B"/>
<path d="M111.264 626.234H149.172L149.172 253.226H111.264L111.264 626.234Z" fill="#222E5B"/>
<path d="M86.8613 285.735V610.459H97.5237V279.317L86.8613 285.735Z" fill="#222E5B"/>
<path d="M68.9902 296.511V610.46H79.6726V290.074L68.9902 296.511Z" fill="#222E5B"/>
<path d="M51.1289 307.268V610.46H61.8112V300.85L51.1289 307.268Z" fill="#222E5B"/>
<path d="M33.2656 318.044V610.46H43.948V311.606L33.2656 318.044Z" fill="#222E5B"/>
<path d="M15.4199 328.8V610.46H26.0823V322.382L15.4199 328.8Z" fill="#222E5B"/>
<path d="M479.018 407.612L478.907 390.838L505.812 390.66L596 446.066L597.186 625.638L417.53 626.825L416.344 447.252L479.018 407.612Z" fill="#222E5B"/>
<path d="M479.687 390.658L569.527 446.658V626.234H389.848V446.658L479.687 390.658Z" fill="#222E5B"/>
<path d="M596.807 437.541H902.874V378.702H636.935L596.807 437.541Z" fill="#222E5B"/>
<path d="M902.877 378.722L943.006 437.561V626.234H862.748V437.561L902.877 378.722Z" fill="#222E5B"/>
<path d="M596.83 626.234H862.748V437.561H596.83V626.234Z" fill="#222E5B"/>
<path d="M64.6152 410.471V410.751H387.406V410.471L340.136 350.532H115.606L64.6152 410.471Z" fill="#222E5B"/>
<path d="M166.55 626.234H387.398V410.75H166.55L166.55 626.234Z" fill="#222E5B"/>
<path d="M64.6152 410.471V626.234H166.578V410.471L115.606 350.532L64.6152 410.471Z" fill="#222E5B"/>
<path d="M632.929 490.002C634.666 484.48 635.122 478.637 634.265 472.913C633.407 467.19 631.257 461.735 627.977 456.962C624.698 452.188 620.374 448.22 615.333 445.357C610.291 442.495 604.664 440.812 598.875 440.436C592.692 440.047 586.506 441.159 580.848 443.678C575.19 446.196 570.228 450.045 566.388 454.896C562.548 459.746 559.944 465.453 558.799 471.528C557.654 477.602 558.003 483.863 559.815 489.774C561.284 494.325 561.827 499.122 561.412 503.885C560.998 508.648 559.634 513.281 557.4 517.511C553.758 524.241 551.929 531.799 552.09 539.445C552.251 547.092 554.398 554.566 558.32 561.138C562.243 567.709 567.807 573.154 574.468 576.938C581.13 580.723 588.662 582.72 596.329 582.732C603.995 582.744 611.534 580.773 618.208 577.01C624.882 573.246 630.464 567.82 634.408 561.261C638.352 554.703 640.523 547.235 640.709 539.589C640.895 531.943 639.09 524.38 635.47 517.637C633.224 513.432 631.842 508.821 631.406 504.075C630.97 499.33 631.487 494.545 632.929 490.002V490.002Z" fill="#222E5B"/>
</g>
</g>
<defs>
<clipPath id="clip0_3857_29961">
<rect width="1170" height="444" fill="white"/>
</clipPath>
</defs>
</svg>
