<svg width="60" height="60" viewBox="0 0 60 60" fill="none" xmlns="http://www.w3.org/2000/svg">
<g clip-path="url(#clip0_3822_26140)">
<circle cx="30" cy="30" r="30" fill="#FFEFF0"/>
<path d="M30.5238 18.0002C37.3397 18.0002 42.4997 23.5886 42.4997 29.9821C42.4997 37.3971 36.4518 41.9999 30.4998 41.9999C28.5319 41.9999 26.3479 41.4711 24.5959 40.4376C23.9839 40.065 23.4679 39.7886 22.8079 40.005L20.384 40.726C19.772 40.9183 19.22 40.4376 19.4 39.7886L20.204 37.0966C20.336 36.7241 20.312 36.3275 20.12 36.015C19.088 34.1162 18.5 32.0371 18.5 30.0181C18.5 23.6967 23.5519 18.0002 30.5238 18.0002ZM36.0078 28.4918C35.1558 28.4918 34.4718 29.1769 34.4718 30.0301C34.4718 30.8714 35.1558 31.5684 36.0078 31.5684C36.8597 31.5684 37.5437 30.8714 37.5437 30.0301C37.5437 29.1769 36.8597 28.4918 36.0078 28.4918ZM30.4758 28.4918C29.6358 28.4798 28.9399 29.1769 28.9399 30.0181C28.9399 30.8714 29.6238 31.5564 30.4758 31.5684C31.3278 31.5684 32.0118 30.8714 32.0118 30.0301C32.0118 29.1769 31.3278 28.4918 30.4758 28.4918ZM24.9439 28.4918C24.0919 28.4918 23.4079 29.1769 23.4079 30.0301C23.4079 30.8714 24.1039 31.5684 24.9439 31.5684C25.7959 31.5564 26.4799 30.8714 26.4799 30.0301C26.4799 29.1769 25.7959 28.4918 24.9439 28.4918Z" fill="#FC5761"/>
</g>
<defs>
<clipPath id="clip0_3822_26140">
<rect width="60" height="60" fill="white"/>
</clipPath>
</defs>
</svg>
