<svg width="18" height="18" viewBox="0 0 18 18" fill="none" xmlns="http://www.w3.org/2000/svg">
<path d="M3.26074 6C3.26074 4.34315 4.60389 3 6.26074 3H11.7461C13.4029 3 14.7461 4.34315 14.7461 6V10.125C14.7461 11.2305 14.1381 12.2464 13.1639 12.7688L10.4212 14.2397C9.53566 14.7146 8.47115 14.7146 7.58559 14.2397L4.84293 12.7688C3.8687 12.2464 3.26074 11.2305 3.26074 10.125V6Z" fill="#B7C0D2"/>
<path fill-rule="evenodd" clip-rule="evenodd" d="M0 7.69208C0 5.58775 1.57992 3.88186 3.52885 3.88186H4.6644V5.51972H3.52885C2.41768 5.51972 1.51691 6.49232 1.51691 7.69208C1.51691 8.89184 2.41768 9.86444 3.52885 9.86444H4.6644V11.5023H3.52885C1.57992 11.5023 0 9.79641 0 7.69208Z" fill="#B7C0D2"/>
<path fill-rule="evenodd" clip-rule="evenodd" d="M18 7.69178C18 5.58745 16.4201 3.88155 14.4712 3.88155H13.3356V5.51942H14.4712C15.5823 5.51942 16.4831 6.49202 16.4831 7.69178C16.4831 8.89154 15.5823 9.86414 14.4712 9.86414H13.3356V11.502H14.4712C16.4201 11.502 18 9.79611 18 7.69178Z" fill="#B7C0D2"/>
</svg>
