<svg width="60" height="60" viewBox="0 0 60 60" fill="none" xmlns="http://www.w3.org/2000/svg">
<g clip-path="url(#clip0_3822_26138)">
<circle cx="30" cy="30" r="30" fill="#FFEFF0"/>
<path d="M43.334 35.2533C43.334 38.9733 40.3474 41.9865 36.6275 41.9998H36.6141H23.4011C19.6946 41.9998 16.668 38.9999 16.668 35.28V35.2667C16.668 35.2667 16.676 29.3655 16.6866 26.3976C16.688 25.8403 17.328 25.5283 17.7639 25.8749C20.9319 28.3882 26.5971 32.9707 26.6677 33.0307C27.6144 33.7894 28.8143 34.2174 30.041 34.2174C31.2676 34.2174 32.4676 33.7894 33.4142 33.0161C33.4849 32.9694 39.0234 28.5242 42.2393 25.9696C42.6766 25.6216 43.3193 25.9336 43.3206 26.4896C43.334 29.4348 43.334 35.2533 43.334 35.2533Z" fill="#FC5761"/>
<path d="M42.6326 21.5654C41.4779 19.3894 39.206 18.0001 36.7047 18.0001H23.3984C20.8971 18.0001 18.6252 19.3894 17.4705 21.5654C17.2119 22.052 17.3345 22.6587 17.7652 23.0027L27.6649 30.9211C28.3583 31.4811 29.1982 31.7598 30.0382 31.7598C30.0436 31.7598 30.0476 31.7598 30.0516 31.7598C30.0556 31.7598 30.0609 31.7598 30.0649 31.7598C30.9049 31.7598 31.7448 31.4811 32.4382 30.9211L42.3379 23.0027C42.7686 22.6587 42.8912 22.052 42.6326 21.5654Z" fill="#FC5761"/>
</g>
<defs>
<clipPath id="clip0_3822_26138">
<rect width="60" height="60" fill="white"/>
</clipPath>
</defs>
</svg>
