<svg width="18" height="16" viewBox="0 0 18 16" fill="none" xmlns="http://www.w3.org/2000/svg">
<g clip-path="url(#clip0_3723_22801)">
<path d="M18 11.5024C18 13.9823 15.984 15.9911 13.473 16H13.464H4.545C2.043 16 0 14.0001 0 11.5201V11.5112C0 11.5112 0.0054 7.57713 0.0126 5.59851C0.0135 5.22696 0.4455 5.01897 0.7398 5.25007C2.8782 6.92559 6.7023 9.98062 6.75 10.0206C7.389 10.5264 8.199 10.8117 9.027 10.8117C9.855 10.8117 10.665 10.5264 11.304 10.0108C11.3517 9.97973 15.0903 7.01625 17.2611 5.31318C17.5563 5.08119 17.9901 5.28918 17.991 5.65984C18 7.62335 18 11.5024 18 11.5024Z" fill="#B7C0D2"/>
<path d="M17.5275 2.37683C16.7481 0.926199 15.2145 0 13.5261 0H4.54407C2.85567 0 1.32207 0.926199 0.542667 2.37683C0.368067 2.70127 0.450867 3.1057 0.741567 3.33503L7.42407 8.61401C7.89207 8.98733 8.45907 9.1731 9.02607 9.1731C9.02967 9.1731 9.03237 9.1731 9.03507 9.1731C9.03777 9.1731 9.04137 9.1731 9.04407 9.1731C9.61107 9.1731 10.1781 8.98733 10.6461 8.61401L17.3286 3.33503C17.6193 3.1057 17.7021 2.70127 17.5275 2.37683Z" fill="#B7C0D2"/>
</g>
<defs>
<clipPath id="clip0_3723_22801">
<rect width="18" height="16" fill="white"/>
</clipPath>
</defs>
</svg>
