<svg width="16" height="16" viewBox="0 0 16 16" fill="none" xmlns="http://www.w3.org/2000/svg">
<g clip-path="url(#clip0_3818_27236)">
<path d="M16.0771 11.0645C16.0771 13.2345 14.2851 14.9922 12.0531 15H12.0451H4.11715C1.89315 15 0.0771484 13.25 0.0771484 11.0801V11.0723C0.0771484 11.0723 0.0819484 7.63 0.0883484 5.89872C0.0891484 5.57362 0.473148 5.39163 0.734748 5.59384C2.63555 7.05991 6.03475 9.73304 6.07715 9.76804C6.64515 10.2106 7.36515 10.4602 8.10115 10.4602C8.83715 10.4602 9.55715 10.2106 10.1251 9.75948C10.1675 9.73226 13.4907 7.13924 15.4203 5.64906C15.6827 5.44607 16.0683 5.62807 16.0691 5.95239C16.0771 7.67044 16.0771 11.0645 16.0771 11.0645" fill="#B7C0D2"/>
<path d="M15.6569 3.07983C14.9641 1.81054 13.6009 1.00012 12.1001 1.00012H4.11608C2.61528 1.00012 1.25208 1.81054 0.559279 3.07983C0.404079 3.36371 0.477679 3.71759 0.736079 3.91825L6.67608 8.53731C7.09208 8.86397 7.59608 9.02652 8.10008 9.02652C8.10328 9.02652 8.10568 9.02652 8.10808 9.02652C8.11048 9.02652 8.11368 9.02652 8.11608 9.02652C8.62008 9.02652 9.12408 8.86397 9.54008 8.53731L15.4801 3.91825C15.7385 3.71759 15.8121 3.36371 15.6569 3.07983" fill="#B7C0D2"/>
</g>
<defs>
<clipPath id="clip0_3818_27236">
<rect width="16" height="16" fill="white"/>
</clipPath>
</defs>
</svg>
