<svg width="18" height="16" viewBox="0 0 18 16" fill="none" xmlns="http://www.w3.org/2000/svg">
<g clip-path="url(#clip0_3811_25529)">
<path d="M18 11.5023C18 13.9822 15.984 15.9911 13.473 16H13.464H4.545C2.043 16 0 14 0 11.52V11.5111C0 11.5111 0.0054 7.57693 0.0126 5.59827C0.0135 5.22672 0.4455 5.01872 0.7398 5.24983C2.8782 6.92538 6.7023 9.98048 6.75 10.0205C7.389 10.5263 8.199 10.8116 9.027 10.8116C9.855 10.8116 10.665 10.5263 11.304 10.0107C11.3517 9.97959 15.0903 7.01605 17.2611 5.31294C17.5563 5.08094 17.9901 5.28894 17.991 5.65961C18 7.62316 18 11.5023 18 11.5023Z" fill="#FC5761"/>
<path d="M17.5263 2.37688C16.7469 0.926219 15.2133 0 13.5249 0H4.54294C2.85454 0 1.32094 0.926219 0.541542 2.37688C0.366942 2.70132 0.449742 3.10577 0.740442 3.3351L7.42294 8.61419C7.89094 8.98753 8.45794 9.1733 9.02494 9.1733C9.02854 9.1733 9.03124 9.1733 9.03394 9.1733C9.03664 9.1733 9.04024 9.1733 9.04294 9.1733C9.60994 9.1733 10.1769 8.98753 10.6449 8.61419L17.3274 3.3351C17.6181 3.10577 17.7009 2.70132 17.5263 2.37688Z" fill="#FC5761"/>
</g>
<defs>
<clipPath id="clip0_3811_25529">
<rect width="18" height="16" fill="white"/>
</clipPath>
</defs>
</svg>
