<svg width="44" height="48" viewBox="0 0 44 48" fill="none" xmlns="http://www.w3.org/2000/svg">
<circle cx="22" cy="23.9999" r="21.081" fill="#F4F7FB"/>
<path d="M38.6724 17.8523C38.8456 17.8346 39.0207 17.8555 39.1845 17.9134C39.3483 17.9713 39.4966 18.0646 39.6182 18.1866C39.7399 18.3085 39.8318 18.4557 39.8871 18.6173C39.9423 18.7789 39.9595 18.9506 39.9373 19.1196C39.5354 22.1541 37.9519 34.2417 37.739 35.3257C37.2586 37.7539 34.8473 39.5554 32.3624 39.3988C29.5956 39.2233 27.4997 37.2056 27.3188 34.5424C27.1443 32.0125 28.9376 29.6861 31.4513 29.1723C33.0156 28.859 34.4502 29.1629 35.8112 30.142C36.1618 27.5524 36.8023 22.8136 36.9976 21.3692C37.0047 21.3183 36.9998 21.2665 36.9834 21.2176C36.9671 21.1688 36.9396 21.1242 36.9031 21.0873C36.8665 21.0503 36.8219 21.022 36.7726 21.0043C36.7232 20.9867 36.6704 20.9802 36.6182 20.9854L23.6827 22.2496C23.6046 22.2568 23.5314 22.2897 23.4749 22.3429C23.4185 22.3961 23.3822 22.4665 23.3721 22.5426C23.1079 24.5008 21.4795 36.5931 21.3194 37.1899C20.9858 38.3868 20.2234 39.4264 19.1713 40.119C18.1193 40.8115 16.8478 41.1108 15.589 40.9622C13.1361 40.6959 11.0898 38.5983 10.9553 36.2124C10.8064 33.5759 12.526 31.331 15.1182 30.778C15.7855 30.6281 16.4767 30.6113 17.1507 30.7286C17.8247 30.846 18.4676 31.0951 19.041 31.461C19.1611 31.5346 19.2828 31.6067 19.4589 31.7117C19.571 30.9065 20.5541 23.199 20.8999 20.5515C20.9321 20.2988 21.0507 20.0642 21.2365 19.8859C21.4222 19.7075 21.6642 19.5959 21.923 19.5693L38.6724 17.8523Z" fill="#111828" stroke="#111828" stroke-width="1.5"/>
<path d="M10.0335 7.20217L18.2648 12.5396C18.4622 12.6671 18.6319 12.8314 18.7642 13.0231C18.8965 13.2148 18.9889 13.4302 19.0359 13.657C19.083 13.8837 19.0838 14.1173 19.0383 14.3443C18.9929 14.5714 18.9021 14.7874 18.7712 14.9801L18.7514 15.0102C18.4876 15.3981 18.0775 15.668 17.6109 15.7608C17.1443 15.8536 16.6591 15.7619 16.2615 15.5056L12.858 13.3064C13.0782 14.3834 13.2631 15.3139 13.4546 16.2487C13.9345 18.5879 14.4519 20.9185 14.8856 23.2663C15.117 24.6464 14.7812 26.06 13.9514 27.1987C13.1216 28.3375 11.8652 29.1089 10.4562 29.3447C9.72823 29.4677 8.98229 29.445 8.2635 29.2781C7.5447 29.1111 6.86796 28.8034 6.27414 28.3733C5.68032 27.9433 5.18175 27.4 4.80855 26.7762C4.43535 26.1524 4.19527 25.461 4.1028 24.7439C3.69113 21.9588 5.82215 19.2039 8.70167 18.8313C9.22632 18.7951 9.75278 18.7915 10.2779 18.8205C9.56242 15.3592 8.85355 11.9387 8.13147 8.45792C8.08236 8.22242 8.10577 7.97797 8.19871 7.75549C8.29164 7.53301 8.44994 7.34249 8.65356 7.20805C8.85719 7.07362 9.097 7.0013 9.34265 7.00026C9.5883 6.99921 9.82872 7.06948 10.0335 7.20217Z" fill="#FC5761"/>
</svg>
