<svg width="40" height="40" viewBox="0 0 40 40" fill="none" xmlns="http://www.w3.org/2000/svg">
<g clip-path="url(#clip0_3866_31469)">
<circle cx="20" cy="20" r="20" fill="#F4F7FB"/>
<path d="M19.5817 8.21946C19.7803 7.92967 20.208 7.92967 20.4066 8.21946L22.2081 10.848C22.2731 10.9429 22.3688 11.0124 22.4791 11.0449L25.5357 11.946C25.8727 12.0453 26.0048 12.452 25.7906 12.7305L23.8474 15.256C23.7773 15.3471 23.7407 15.4597 23.7439 15.5747L23.8315 18.7601C23.8411 19.1112 23.4951 19.3626 23.1641 19.2449L20.1617 18.1772C20.0533 18.1387 19.935 18.1387 19.8267 18.1772L16.8242 19.2449C16.4932 19.3626 16.1472 19.1112 16.1569 18.7601L16.2445 15.5746C16.2477 15.4597 16.2111 15.3471 16.141 15.256L14.1978 12.7305C13.9835 12.452 14.1157 12.0453 14.4527 11.946L17.5092 11.0449C17.6195 11.0124 17.7153 10.9429 17.7803 10.848L19.5817 8.21946Z" fill="#FC5761"/>
<path d="M11.1833 17.9607C11.3819 17.6709 11.8096 17.6709 12.0082 17.9607L13.8096 20.5892C13.8747 20.6841 13.9704 20.7536 14.0807 20.7861L17.1373 21.6872C17.4742 21.7865 17.6064 22.1932 17.3922 22.4717L15.449 24.9972C15.3788 25.0884 15.3423 25.2009 15.3454 25.3159L15.433 28.5013C15.4427 28.8524 15.0967 29.1038 14.7657 28.9861L11.7633 27.9184C11.6549 27.8799 11.5366 27.8799 11.4282 27.9184L8.4258 28.9861C8.09479 29.1038 7.7488 28.8524 7.75846 28.5013L7.84607 25.3159C7.84923 25.2009 7.81267 25.0884 7.74254 24.9972L5.79933 22.4717C5.5851 22.1932 5.71725 21.7865 6.05423 21.6872L9.1108 20.7861C9.22111 20.7536 9.31684 20.6841 9.38186 20.5892L11.1833 17.9607Z" fill="#111828"/>
<path d="M27.988 17.9607C28.1866 17.6709 28.6143 17.6709 28.8129 17.9607L30.6143 20.5892C30.6793 20.6841 30.7751 20.7536 30.8854 20.7861L33.942 21.6872C34.2789 21.7865 34.4111 22.1932 34.1969 22.4717L32.2536 24.9972C32.1835 25.0884 32.1469 25.2009 32.1501 25.3159L32.2377 28.5013C32.2474 28.8524 31.9014 29.1038 31.5704 28.9861L28.568 27.9184C28.4596 27.8799 28.3413 27.8799 28.2329 27.9184L25.2305 28.9861C24.8995 29.1038 24.5535 28.8524 24.5631 28.5013L24.6508 25.3159C24.6539 25.2009 24.6174 25.0884 24.5472 24.9972L22.604 22.4717C22.3898 22.1932 22.5219 21.7865 22.8589 21.6872L25.9155 20.7861C26.0258 20.7536 26.1215 20.6841 26.1865 20.5892L27.988 17.9607Z" fill="#111828"/>
</g>
<defs>
<clipPath id="clip0_3866_31469">
<rect width="40" height="40" fill="white"/>
</clipPath>
</defs>
</svg>
