<svg width="160" height="24" viewBox="0 0 160 24" fill="none" xmlns="http://www.w3.org/2000/svg">
<g clip-path="url(#clip0_3724_22876)">
<path d="M11.5723 0.906642C11.7558 0.535424 12.2852 0.535424 12.4687 0.906642L15.4368 6.91038C15.5097 7.05783 15.6504 7.16 15.8132 7.18361L22.4486 8.14615C22.859 8.20568 23.0227 8.71012 22.7255 8.99932L17.9252 13.6705C17.8071 13.7854 17.7532 13.9511 17.7811 14.1135L18.9145 20.7102C18.9846 21.1186 18.5562 21.4302 18.1893 21.2376L12.2528 18.122C12.1073 18.0456 11.9336 18.0456 11.7881 18.122L5.85161 21.2376C5.48475 21.4302 5.05632 21.1186 5.12647 20.7102L6.25983 14.1135C6.28773 13.9511 6.23383 13.7854 6.11575 13.6705L1.3154 8.99932C1.01822 8.71013 1.18195 8.20568 1.59232 8.14615L8.22774 7.18361C8.39052 7.16 8.53128 7.05783 8.60418 6.91038L11.5723 0.906642Z" fill="#FC5761"/>
<path d="M45.5601 0.906642C45.7437 0.535424 46.2731 0.535424 46.4566 0.906642L49.4247 6.91038C49.4975 7.05783 49.6383 7.16 49.8011 7.18361L56.4365 8.14615C56.8469 8.20568 57.0106 8.71012 56.7134 8.99932L51.9131 13.6705C51.795 13.7854 51.7411 13.9511 51.769 14.1135L52.9024 20.7102C52.9725 21.1186 52.5441 21.4302 52.1772 21.2376L46.2407 18.122C46.0952 18.0456 45.9215 18.0456 45.776 18.122L39.8395 21.2376C39.4726 21.4302 39.0442 21.1186 39.1144 20.7102L40.2477 14.1135C40.2756 13.9511 40.2217 13.7854 40.1036 13.6705L35.3033 8.99932C35.0061 8.71013 35.1698 8.20568 35.5802 8.14615L42.2156 7.18361C42.3784 7.16 42.5192 7.05783 42.5921 6.91038L45.5601 0.906642Z" fill="#FC5761"/>
<path d="M79.548 0.906642C79.7315 0.535424 80.2609 0.535424 80.4445 0.906642L83.4125 6.91038C83.4854 7.05783 83.6262 7.16 83.789 7.18361L90.4244 8.14615C90.8348 8.20568 90.9985 8.71012 90.7013 8.99932L85.901 13.6705C85.7829 13.7854 85.729 13.9511 85.7569 14.1135L86.8902 20.7102C86.9604 21.1186 86.532 21.4302 86.1651 21.2376L80.2286 18.122C80.0831 18.0456 79.9094 18.0456 79.7639 18.122L73.8274 21.2376C73.4605 21.4302 73.0321 21.1186 73.1022 20.7102L74.2356 14.1135C74.2635 13.9511 74.2096 13.7854 74.0915 13.6705L69.2912 8.99932C68.994 8.71013 69.1577 8.20568 69.5681 8.14615L76.2035 7.18361C76.3663 7.16 76.507 7.05783 76.5799 6.91038L79.548 0.906642Z" fill="#FC5761"/>
<path d="M113.536 0.906642C113.719 0.535424 114.249 0.535424 114.432 0.906642L117.4 6.91038C117.473 7.05783 117.614 7.16 117.777 7.18361L124.412 8.14615C124.823 8.20568 124.986 8.71012 124.689 8.99932L119.889 13.6705C119.771 13.7854 119.717 13.9511 119.745 14.1135L120.878 20.7102C120.948 21.1186 120.52 21.4302 120.153 21.2376L114.216 18.122C114.071 18.0456 113.897 18.0456 113.752 18.122L107.815 21.2376C107.448 21.4302 107.02 21.1186 107.09 20.7102L108.223 14.1135C108.251 13.9511 108.197 13.7854 108.079 13.6705L103.279 8.99932C102.982 8.71013 103.146 8.20568 103.556 8.14615L110.191 7.18361C110.354 7.16 110.495 7.05783 110.568 6.91038L113.536 0.906642Z" fill="#FC5761"/>
<path d="M147.531 0.906642C147.715 0.535424 148.244 0.535424 148.428 0.906642L151.396 6.91038C151.469 7.05783 151.609 7.16 151.772 7.18361L158.408 8.14615C158.818 8.20568 158.982 8.71012 158.685 8.99932L153.884 13.6705C153.766 13.7854 153.712 13.9511 153.74 14.1135L154.874 20.7102C154.944 21.1186 154.515 21.4302 154.148 21.2376L148.212 18.122C148.066 18.0456 147.893 18.0456 147.747 18.122L141.811 21.2376C141.444 21.4302 141.015 21.1186 141.086 20.7102L142.219 14.1135C142.247 13.9511 142.193 13.7854 142.075 13.6705L137.274 8.99932C136.977 8.71013 137.141 8.20568 137.551 8.14615L144.187 7.18361C144.35 7.16 144.49 7.05783 144.563 6.91038L147.531 0.906642Z" fill="#FC5761"/>
</g>
<defs>
<clipPath id="clip0_3724_22876">
<rect width="160" height="24" fill="white"/>
</clipPath>
</defs>
</svg>
