<svg width="552" height="186" viewBox="0 0 552 186" fill="none" xmlns="http://www.w3.org/2000/svg">
<g clip-path="url(#clip0_3912_37797)">
<mask id="mask0_3912_37797" style="mask-type:alpha" maskUnits="userSpaceOnUse" x="-568" y="0" width="1121" height="186">
<rect x="-567.984" y="0.763672" width="1120" height="185.236" fill="#111828"/>
</mask>
<g mask="url(#mask0_3912_37797)">
<path d="M212.425 94.8818V135.84H229.189V290.042H212.425H192.768V94.8818H212.425Z" fill="#222E5B"/>
<path d="M293.249 290.042H343.998V91.9908H293.249V290.042Z" fill="#222E5B"/>
<path d="M286.438 290.032H327.37V141.084H286.438V290.032Z" fill="#222E5B"/>
<path d="M433.197 129.493V72.6592H451.205V129.493H464.542V290.042H419.86V129.493H433.197Z" fill="#222E5B"/>
<path d="M411.317 290.042H446.192V150.381H411.317V290.042Z" fill="#222E5B"/>
<path d="M259.37 290.042H303.668L303.668 52.993H259.37V290.042Z" fill="#222E5B"/>
<path d="M238.522 290.042H282.821L282.821 52.993H238.522L238.522 290.042Z" fill="#222E5B"/>
<path d="M243.283 70.9922H275.448V66.485H243.283V70.9922Z" fill="#222E5B"/>
<path d="M243.283 86.8574H275.448V82.3503H243.283V86.8574Z" fill="#222E5B"/>
<path d="M243.283 102.744H275.448V98.237H243.283V102.744Z" fill="#222E5B"/>
<path d="M243.283 118.62H275.448V114.113H243.283V118.62Z" fill="#222E5B"/>
<path d="M243.283 134.506H275.448V129.999H243.283V134.506Z" fill="#222E5B"/>
<path d="M243.283 150.372H275.448V145.865H243.283V150.372Z" fill="#222E5B"/>
<path d="M243.283 166.258H275.448V161.751H243.283V166.258Z" fill="#222E5B"/>
<path d="M243.283 182.134H275.448V177.627H243.283V182.134Z" fill="#222E5B"/>
<path d="M363.428 290.042H416.948V110.13H363.428V290.042Z" fill="#222E5B"/>
<path d="M338.242 290.042H391.762V110.13H338.242V290.042Z" fill="#222E5B"/>
<path d="M343.992 123.783H382.85V120.367H343.992V123.783Z" fill="#222E5B"/>
<path d="M343.992 135.84H382.85V132.424H343.992V135.84Z" fill="#222E5B"/>
<path d="M343.992 147.886H382.85V144.47H343.992V147.886Z" fill="#222E5B"/>
<path d="M343.992 159.942H382.85V156.527H343.992V159.942Z" fill="#222E5B"/>
<path d="M343.992 171.987H382.85V168.572H343.992V171.987Z" fill="#222E5B"/>
<path d="M343.992 184.044H382.85V180.628H343.992V184.044Z" fill="#222E5B"/>
<path d="M368.979 110.131H401.528V0.706772H368.979V110.131Z" fill="#222E5B"/>
<path d="M353.663 110.131H386.211V0.706772H353.663V110.131Z" fill="#222E5B"/>
<path d="M357.159 9.01367L380.789 9.01367V6.93191L357.159 6.93191V9.01367Z" fill="#222E5B"/>
<path d="M357.159 16.3506L380.789 16.3506V14.2688L357.159 14.2688V16.3506Z" fill="#222E5B"/>
<path d="M357.159 23.667L380.789 23.667V21.5852L357.159 21.5852V23.667Z" fill="#222E5B"/>
<path d="M357.159 31.0039L380.789 31.0039V28.9221L357.159 28.9221V31.0039Z" fill="#222E5B"/>
<path d="M357.159 38.3301H380.789V36.2483H357.159V38.3301Z" fill="#222E5B"/>
<path d="M357.159 45.6572H380.789V43.5755H357.159V45.6572Z" fill="#222E5B"/>
<path d="M357.159 52.9834H380.789V50.9016H357.159V52.9834Z" fill="#222E5B"/>
<path d="M357.159 60.3203H380.789V58.2385H357.159V60.3203Z" fill="#222E5B"/>
<path d="M357.159 67.6475H380.789V65.5657H357.159V67.6475Z" fill="#222E5B"/>
<path d="M357.159 74.9736H380.789V72.8919H357.159V74.9736Z" fill="#222E5B"/>
<path d="M357.159 82.3105H380.789V80.2288H357.159V82.3105Z" fill="#222E5B"/>
<path d="M357.159 89.6367H380.789V87.555H357.159V89.6367Z" fill="#222E5B"/>
<path d="M357.159 96.9736H380.789V94.8919H357.159V96.9736Z" fill="#222E5B"/>
<path d="M357.159 104.29H380.789V102.208H357.159V104.29Z" fill="#222E5B"/>
<path d="M116.486 82.5732L193.818 112.749V290.042H116.486V104.715H104.918V82.5732H116.486Z" fill="#222E5B"/>
<path d="M104.918 290.042H182.261V112.749L104.918 82.5732V290.042Z" fill="#222E5B"/>
<path d="M175.981 129.028H169.803V141.084H175.981V129.028Z" fill="#222E5B"/>
<path d="M175.981 175.666H169.803V187.722H175.981V175.666Z" fill="#222E5B"/>
<path d="M175.981 160.124H169.803V172.18H175.981V160.124Z" fill="#222E5B"/>
<path d="M175.981 144.571H169.803V156.627H175.981V144.571Z" fill="#222E5B"/>
<path d="M161.333 129.028H155.155V141.084H161.333V129.028Z" fill="#222E5B"/>
<path d="M161.333 160.124H155.155V172.18H161.333V160.124Z" fill="#222E5B"/>
<path d="M161.333 144.571H155.155V156.627H161.333V144.571Z" fill="#222E5B"/>
<path d="M161.333 175.666H155.155V187.722H161.333V175.666Z" fill="#222E5B"/>
<path d="M146.68 129.028H140.502V141.084H146.68V129.028Z" fill="#222E5B"/>
<path d="M146.68 175.666H140.502V187.722H146.68V175.666Z" fill="#222E5B"/>
<path d="M146.68 160.124H140.502V172.18H146.68V160.124Z" fill="#222E5B"/>
<path d="M146.68 144.571H140.502V156.627H146.68V144.571Z" fill="#222E5B"/>
<path d="M132.04 175.666H125.862V187.722H132.04V175.666Z" fill="#222E5B"/>
<path d="M132.04 160.124H125.862V172.18H132.04V160.124Z" fill="#222E5B"/>
<path d="M132.04 144.571H125.862V156.627H132.04V144.571Z" fill="#222E5B"/>
<path d="M132.04 129.028H125.862V141.084H132.04V129.028Z" fill="#222E5B"/>
<path d="M117.387 144.571H111.209V156.627H117.387V144.571Z" fill="#222E5B"/>
<path d="M117.387 175.666H111.209V187.722H117.387V175.666Z" fill="#222E5B"/>
<path d="M117.387 129.028H111.209V141.084H117.387V129.028Z" fill="#222E5B"/>
<path d="M117.387 160.124H111.209V172.18H117.387V160.124Z" fill="#222E5B"/>
<path d="M467.676 290.042H530.347V76.7422L467.676 114.527V290.042Z" fill="#222E5B"/>
<path d="M530.347 290.042H552.016V76.7413H530.347V290.042Z" fill="#222E5B"/>
<path d="M516.385 95.3363V281.028H522.482V91.668L516.385 95.3363Z" fill="#222E5B"/>
<path d="M506.159 101.5V281.027H512.276V97.8115L506.159 101.5Z" fill="#222E5B"/>
<path d="M495.957 107.645V281.028H502.055V103.977L495.957 107.645Z" fill="#222E5B"/>
<path d="M485.746 113.809V281.028H491.854V110.131L485.746 113.809Z" fill="#222E5B"/>
<path d="M475.536 119.964V281.028H481.643V116.285L475.536 119.964Z" fill="#222E5B"/>
<path d="M-0.573853 290.042H54.8167V101.501L-0.573853 134.89V290.042Z" fill="#222E5B"/>
<path d="M54.8177 290.042H73.9789L73.9789 101.5H54.8177L54.8177 290.042Z" fill="#222E5B"/>
<path d="M42.4828 117.932V282.069H47.8722V114.688L42.4828 117.932Z" fill="#222E5B"/>
<path d="M33.4496 123.379V282.068H38.8491V120.125L33.4496 123.379Z" fill="#222E5B"/>
<path d="M24.4222 128.816V282.069H29.8218V125.572L24.4222 128.816Z" fill="#222E5B"/>
<path d="M15.3929 134.264V282.069H20.7925V131.01L15.3929 134.264Z" fill="#222E5B"/>
<path d="M6.37146 139.7V282.069H11.7609V136.456L6.37146 139.7Z" fill="#222E5B"/>
<path d="M240.704 179.537L240.648 171.058L254.248 170.969L299.834 198.974L300.434 289.741L209.625 290.341L209.025 199.574L240.704 179.537Z" fill="#222E5B"/>
<path d="M241.042 170.967L286.452 199.273V290.042H195.631V199.273L241.042 170.967Z" fill="#222E5B"/>
<path d="M300.241 194.665H454.946V164.924H320.524L300.241 194.665Z" fill="#222E5B"/>
<path d="M454.948 164.935L475.232 194.676V290.043H434.664V194.676L454.948 164.935Z" fill="#222E5B"/>
<path d="M31.2386 180.982V181.124H194.397V180.982L170.504 150.686H57.0128L31.2386 180.982Z" fill="#222E5B"/>
<path d="M82.7624 290.042H194.393V181.123H82.7624L82.7624 290.042Z" fill="#222E5B"/>
<path d="M31.2386 180.982V290.043H82.7768V180.982L57.0128 150.686L31.2386 180.982Z" fill="#222E5B"/>
</g>
</g>
<defs>
<clipPath id="clip0_3912_37797">
<rect width="552" height="186" fill="white"/>
</clipPath>
</defs>
</svg>
