<svg width="48" height="48" viewBox="0 0 48 48" fill="none" xmlns="http://www.w3.org/2000/svg">
<g clip-path="url(#clip0_3728_23789)">
<circle cx="24" cy="24" r="24" fill="#FFEFF0"/>
<path d="M36.9195 29.0899C36.9195 32.6937 34.0261 35.6129 30.4224 35.6258H30.4094H17.6089C14.018 35.6258 11.0859 32.7195 11.0859 29.1157V29.1028C11.0859 29.1028 11.0937 23.3858 11.104 20.5106C11.1053 19.9707 11.7253 19.6684 12.1477 20.0042C15.2167 22.439 20.7051 26.8785 20.7735 26.9367C21.6906 27.6716 22.8531 28.0863 24.0415 28.0863C25.2298 28.0863 26.3923 27.6716 27.3094 26.9225C27.3779 26.8773 32.7435 22.5708 35.859 20.0959C36.2827 19.7588 36.9053 20.0611 36.9066 20.5997C36.9195 23.453 36.9195 29.0899 36.9195 29.0899Z" fill="#FC5761"/>
<path d="M36.2413 15.8289C35.1227 13.7209 32.9217 12.375 30.4985 12.375H17.6076C15.1844 12.375 12.9834 13.7209 11.8648 15.8289C11.6142 16.3004 11.733 16.8881 12.1502 17.2214L21.7409 24.8926C22.4126 25.4352 23.2264 25.7051 24.0401 25.7051C24.0453 25.7051 24.0492 25.7051 24.053 25.7051C24.0569 25.7051 24.0621 25.7051 24.066 25.7051C24.8797 25.7051 25.6935 25.4352 26.3651 24.8926L35.9559 17.2214C36.3731 16.8881 36.4919 16.3004 36.2413 15.8289Z" fill="#FC5761"/>
</g>
<defs>
<clipPath id="clip0_3728_23789">
<rect width="48" height="48" fill="white"/>
</clipPath>
</defs>
</svg>
