<svg width="18" height="18" viewBox="0 0 18 18" fill="none" xmlns="http://www.w3.org/2000/svg">
<path d="M10.5577 11.5848C11.3966 12.3661 11.3966 13.6327 10.5577 14.414C9.71882 15.1952 8.3587 15.1952 7.5198 14.414C6.6809 13.6327 6.6809 12.3661 7.5198 11.5848C8.3587 10.8036 9.71882 10.8036 10.5577 11.5848Z" fill="#B7C0D2"/>
<path fill-rule="evenodd" clip-rule="evenodd" d="M3.56582 10.181C3.29737 9.93097 3.29567 9.52337 3.58515 9.29463C4.24959 8.76961 4.99877 8.34315 5.8064 8.03161C6.82609 7.63827 7.91898 7.43581 9.02269 7.43581C10.1264 7.43581 11.2193 7.63827 12.239 8.03161C13.0466 8.34315 13.7958 8.76961 14.4602 9.29463C14.7497 9.52337 14.748 9.93097 14.4796 10.181L13.6289 10.9731C13.3605 11.2231 12.9275 11.2197 12.6293 11.0008C12.2104 10.6934 11.7473 10.4404 11.2525 10.2495C10.5456 9.9768 9.78788 9.83644 9.02269 9.83644C8.2575 9.83644 7.4998 9.9768 6.79286 10.2495C6.29811 10.4404 5.83499 10.6934 5.41609 11.0008C5.11791 11.2197 4.68489 11.2231 4.41644 10.9731L3.56582 10.181Z" fill="#B7C0D2"/>
<path fill-rule="evenodd" clip-rule="evenodd" d="M0.200214 6.98298C-0.0682336 6.73298 -0.0694246 6.32624 0.212942 6.08991C1.31653 5.16626 2.58454 4.42557 3.96306 3.90091C5.55421 3.29532 7.26092 2.98958 8.98546 3.00027C10.71 3.01097 12.4185 3.33786 14.0139 3.96145C15.398 4.50247 16.6738 5.25776 17.7875 6.19336C18.0693 6.43018 18.0682 6.83686 17.7997 7.08686L16.9491 7.87903C16.6807 8.12903 16.2468 8.12732 15.9618 7.89374C15.0866 7.17635 14.0916 6.59533 13.0163 6.17501C11.73 5.67222 10.3544 5.40944 8.96829 5.40084C7.58227 5.39225 6.21296 5.63797 4.93825 6.12312C3.87656 6.52719 2.89745 7.09091 2.0388 7.79054C1.75308 8.02335 1.31928 8.02515 1.05083 7.77515L0.200214 6.98298Z" fill="#B7C0D2"/>
</svg>
