<svg width="180" height="32" viewBox="0 0 180 32" fill="none" xmlns="http://www.w3.org/2000/svg">
<g clip-path="url(#clip0_3712_22781)">
<path d="M25.2476 3.98243C27.6316 3.35768 29.8057 5.53184 29.181 7.91581L23.7115 28.7868C22.9373 31.7408 18.8711 32.0608 17.6444 29.2643L13.9583 20.8613C13.6335 20.1211 13.0423 19.5299 12.302 19.2051L3.89907 15.519C1.10258 14.2923 1.42262 10.2261 4.37659 9.45194L25.2476 3.98243Z" fill="#FC5761"/>
<path d="M51.6066 6.69978C53.3147 6.69978 54.8832 7.10936 56.3124 7.92851C57.759 8.73023 58.9006 9.83696 59.7372 11.2487C60.5737 12.643 60.992 14.1942 60.992 15.9022C60.992 17.6102 60.5737 19.1614 59.7372 20.5557C58.9006 21.9325 57.759 23.0218 56.3124 23.8236C54.8832 24.6079 53.3147 25 51.6066 25H44.3388V6.69978H51.6066ZM51.6066 21.7582C52.7046 21.7582 53.7068 21.5055 54.6131 21.0001C55.5194 20.4772 56.234 19.7627 56.7568 18.8564C57.2971 17.9501 57.5673 16.9566 57.5673 15.876C57.5673 14.7954 57.2971 13.802 56.7568 12.8957C56.234 11.972 55.5194 11.2487 54.6131 10.7258C53.7068 10.203 52.7046 9.94153 51.6066 9.94153H47.7636V21.7582H51.6066ZM64.8236 9.75853C64.2136 9.75853 63.7343 9.59296 63.3858 9.26181C63.0372 8.93066 62.8629 8.47751 62.8629 7.90236C62.8629 7.30979 63.0372 6.84792 63.3858 6.51678C63.7343 6.18563 64.2136 6.02006 64.8236 6.02006C65.4336 6.02006 65.9129 6.18563 66.2615 6.51678C66.6101 6.84792 66.7844 7.30979 66.7844 7.90236C66.7844 8.46009 66.6014 8.91323 66.2354 9.26181C65.8868 9.59296 65.4162 9.75853 64.8236 9.75853ZM63.1766 25V11.9284H66.4184V25H63.1766ZM77.4253 11.667L77.19 14.7257C77.0854 14.6909 76.9024 14.6734 76.641 14.6734C75.5604 14.6734 74.6628 14.9872 73.9482 15.6146C73.2511 16.242 72.9025 17.096 72.9025 18.1766V25H69.6607V11.9284H72.9025V14.1244C73.1988 13.4273 73.7042 12.8434 74.4188 12.3728C75.1334 11.9023 75.9961 11.667 77.007 11.667H77.4253ZM84.9953 11.5886C86.2502 11.5886 87.3744 11.9023 88.3678 12.5297C89.3787 13.1397 90.163 13.9676 90.7207 15.0133C91.2784 16.059 91.5573 17.218 91.5573 18.4904C91.5573 18.9086 91.5224 19.2921 91.4527 19.6406H81.3614C81.6229 20.5644 82.0847 21.2877 82.747 21.8105C83.4093 22.316 84.2546 22.5687 85.2829 22.5687C85.9104 22.5687 86.5116 22.4293 87.0868 22.1504C87.6794 21.8715 88.1238 21.5142 88.4201 21.0785L90.9037 22.5425C90.2937 23.4488 89.5007 24.146 88.5247 24.634C87.5661 25.1046 86.4594 25.3399 85.2045 25.3399C83.8102 25.3399 82.5727 25.0436 81.4922 24.451C80.4116 23.8584 79.575 23.0393 78.9824 21.9935C78.4073 20.9478 78.1197 19.7714 78.1197 18.4642C78.1197 17.1745 78.4073 16.0067 78.9824 14.961C79.575 13.9153 80.3941 13.0961 81.4399 12.5036C82.4856 11.8936 83.6708 11.5886 84.9953 11.5886ZM88.5247 17.1048C88.3852 16.2682 87.9931 15.6146 87.3482 15.144C86.7208 14.656 85.9278 14.412 84.9692 14.412C84.3069 14.412 83.6969 14.534 83.1392 14.778C82.5989 15.022 82.1632 15.3532 81.832 15.7715C81.5009 16.1898 81.3266 16.6342 81.3092 17.1048H88.5247ZM105.347 22.4641C104.702 23.353 103.891 24.0588 102.915 24.5817C101.939 25.1046 100.885 25.366 99.7519 25.366C98.5145 25.366 97.3642 25.061 96.301 24.451C95.2553 23.8236 94.4187 22.987 93.7913 21.9412C93.1813 20.8781 92.8763 19.7278 92.8763 18.4904C92.8763 17.2529 93.1813 16.1113 93.7913 15.0656C94.4187 14.0024 95.2553 13.1659 96.301 12.5559C97.3642 11.9284 98.5145 11.6147 99.7519 11.6147C100.867 11.6147 101.913 11.8761 102.889 12.399C103.865 12.9044 104.676 13.5929 105.32 14.4643L102.654 16.2682C101.835 15.3096 100.867 14.8303 99.7519 14.8303C99.0896 14.8303 98.4796 14.9959 97.9219 15.327C97.3642 15.6582 96.9198 16.1026 96.5886 16.6603C96.2575 17.218 96.0919 17.8281 96.0919 18.4904C96.0919 19.1526 96.2575 19.7627 96.5886 20.3204C96.9198 20.8781 97.3642 21.3225 97.9219 21.6537C98.4796 21.9674 99.0896 22.1243 99.7519 22.1243C100.867 22.1243 101.835 21.645 102.654 20.6864L105.347 22.4641ZM111.841 20.5295C111.841 21.1221 111.98 21.5317 112.259 21.7582C112.538 21.9848 112.982 22.0981 113.593 22.0981C113.959 22.0981 114.359 22.072 114.795 22.0197V25C113.976 25.0871 113.296 25.1307 112.756 25.1307C111.362 25.1307 110.316 24.817 109.619 24.1896C108.939 23.5447 108.599 22.3944 108.599 20.7387V14.8303H106.142V11.9284H108.599V8.7128L111.841 7.61479V11.9284H114.743V14.8303H111.841V20.5295ZM123.112 25.366C121.875 25.366 120.725 25.061 119.661 24.451C118.616 23.8236 117.779 22.987 117.152 21.9412C116.542 20.8781 116.237 19.7278 116.237 18.4904C116.237 17.2529 116.542 16.1113 117.152 15.0656C117.779 14.0024 118.616 13.1659 119.661 12.5559C120.725 11.9284 121.875 11.6147 123.112 11.6147C124.35 11.6147 125.491 11.9284 126.537 12.5559C127.6 13.1659 128.437 14.0024 129.047 15.0656C129.674 16.1113 129.988 17.2529 129.988 18.4904C129.988 19.7278 129.674 20.8781 129.047 21.9412C128.437 22.987 127.6 23.8236 126.537 24.451C125.491 25.061 124.35 25.366 123.112 25.366ZM123.086 22.1243C123.748 22.1243 124.358 21.9674 124.916 21.6537C125.474 21.3225 125.918 20.8781 126.249 20.3204C126.581 19.7627 126.746 19.1526 126.746 18.4904C126.746 17.8281 126.581 17.218 126.249 16.6603C125.918 16.1026 125.474 15.6582 124.916 15.327C124.358 14.9959 123.748 14.8303 123.086 14.8303C122.424 14.8303 121.814 14.9959 121.256 15.327C120.698 15.6582 120.254 16.1026 119.923 16.6603C119.609 17.218 119.452 17.8281 119.452 18.4904C119.452 19.1526 119.609 19.7627 119.923 20.3204C120.254 20.8781 120.698 21.3225 121.256 21.6537C121.814 21.9674 122.424 22.1243 123.086 22.1243ZM139.822 11.667L139.586 14.7257C139.482 14.6909 139.299 14.6734 139.037 14.6734C137.957 14.6734 137.059 14.9872 136.345 15.6146C135.647 16.242 135.299 17.096 135.299 18.1766V25H132.057V11.9284H135.299V14.1244C135.595 13.4273 136.101 12.8434 136.815 12.3728C137.53 11.9023 138.392 11.667 139.403 11.667H139.822ZM151.205 11.9284H154.603L150.028 25.0261C149.349 26.8213 148.407 28.1633 147.205 29.0522C146.02 29.9585 144.617 30.3506 142.996 30.2286V27.0915C143.1 27.1089 143.257 27.1176 143.466 27.1176C144.861 27.1176 145.95 26.2723 146.734 24.5817L140.983 11.9284H144.46L148.303 20.2419L151.205 11.9284ZM172.669 15.8237L178.604 25H174.525L170.29 18.4381L166.055 25H161.977L167.911 15.8237L162.003 6.69978H166.081L170.29 13.2094L174.499 6.69978H178.578L172.669 15.8237Z" fill="#111828"/>
</g>
<defs>
<clipPath id="clip0_3712_22781">
<rect width="180" height="32" fill="white"/>
</clipPath>
</defs>
</svg>
