<svg width="44" height="48" viewBox="0 0 44 48" fill="none" xmlns="http://www.w3.org/2000/svg">
<g clip-path="url(#clip0_3717_23495)">
<circle cx="22" cy="26.4301" r="21.081" fill="#F4F7FB"/>
<path d="M20.5405 18.5862L20.4253 18.3751C18.6549 15.1188 17.7286 11.4849 17.7281 7.79412V1.76455C17.7281 1.42671 17.5915 1.10266 17.3483 0.863492C17.1052 0.624321 16.7753 0.489557 16.431 0.48877H13.1094C12.7651 0.489557 12.4352 0.624321 12.1921 0.863492C11.9489 1.10266 11.8123 1.42671 11.8123 1.76455V7.78818C11.8118 11.4808 10.8855 15.1166 9.11509 18.3751L8.9969 18.5922C7.62033 21.1246 6.90009 23.9506 6.89972 26.8208V43.1562C6.90052 44.3088 7.36769 45.4139 8.19853 46.2286C9.02937 47.0433 10.1559 47.501 11.3305 47.501H18.2221C19.3946 47.4979 20.518 47.0388 21.3462 46.2244C22.1744 45.41 22.6399 44.3067 22.6407 43.1562V26.8327C22.6428 23.9562 21.9214 21.1236 20.5405 18.5862Z" fill="#111828"/>
<path d="M23.1657 18.2901C21.2937 22.7735 18.7612 32.6252 25.6489 36.0409C26.4171 36.4122 27.0645 36.9866 27.5182 37.6993C27.9719 38.412 28.2139 39.2348 28.2171 40.0751V40.7287C28.2171 41.922 27.7339 43.0665 26.874 43.9104C26.0141 44.7542 24.8478 45.2282 23.6316 45.2282C23.3249 45.2282 23.0307 45.3478 22.8138 45.5607C22.5969 45.7735 22.475 46.0622 22.475 46.3632C22.4746 46.5125 22.5043 46.6604 22.5623 46.7984C22.6202 46.9364 22.7054 47.0618 22.8128 47.1675C22.9202 47.2732 23.0479 47.357 23.1884 47.4142C23.3289 47.4714 23.4795 47.5009 23.6316 47.5009H34.595C34.7471 47.5009 34.8977 47.4714 35.0383 47.4142C35.1788 47.357 35.3064 47.2732 35.4138 47.1675C35.5213 47.0618 35.6064 46.9364 35.6644 46.7984C35.7223 46.6604 35.752 46.5125 35.7516 46.3632C35.7516 46.0622 35.6298 45.7735 35.4129 45.5607C35.196 45.3478 34.9018 45.2282 34.595 45.2282C33.3789 45.2282 32.2125 44.7542 31.3526 43.9104C30.4927 43.0665 30.0096 41.922 30.0096 40.7287V40.0751C30.0127 39.2348 30.2547 38.412 30.7084 37.6993C31.1622 36.9866 31.8095 36.4122 32.5777 36.0409C39.4655 32.6306 36.9329 22.7789 35.0609 18.2901C34.9981 18.1319 34.8881 17.9959 34.7454 17.9C34.6026 17.804 34.4337 17.7525 34.2606 17.7522H23.966C23.793 17.7525 23.624 17.804 23.4813 17.9C23.3385 17.9959 23.2285 18.1319 23.1657 18.2901Z" fill="#FC5761"/>
</g>
<defs>
<clipPath id="clip0_3717_23495">
<rect width="44" height="48" fill="white"/>
</clipPath>
</defs>
</svg>
