<svg width="54" height="48" viewBox="0 0 54 48" fill="none" xmlns="http://www.w3.org/2000/svg">
<circle cx="26.9994" cy="24" r="21" fill="#F4F7FB"/>
<path d="M15.9124 8.60191C16.1862 8.1144 16.5806 7.70945 17.0558 7.42788C17.5311 7.1463 18.0703 6.99805 18.6193 6.99805C19.1682 6.99805 19.7075 7.1463 20.1827 7.42788C20.6579 7.70945 21.0523 8.1144 21.3261 8.60191L28.8192 21.8976L36.3083 35.2141C36.5826 35.701 36.7271 36.2532 36.7272 36.8154C36.7274 37.3776 36.5832 37.9299 36.3091 38.4169C36.0351 38.9039 35.6408 39.3085 35.1658 39.59C34.6909 39.8715 34.1521 40.02 33.6034 40.0206H3.6351C3.08611 40.0207 2.54675 39.8727 2.07126 39.5915C1.59578 39.3103 1.20091 38.9058 0.926367 38.4187C0.651821 37.9316 0.507277 37.379 0.507248 36.8165C0.507219 36.2539 0.651697 35.7013 0.926194 35.2141L8.4193 21.8976L15.9124 8.60191Z" fill="#111828"/>
<path d="M38.6866 18.4106C38.9183 18.0011 39.2508 17.6612 39.6511 17.4249C40.0513 17.1886 40.5051 17.0642 40.967 17.0642C41.429 17.0642 41.8828 17.1886 42.283 17.4249C42.6832 17.6612 43.0158 18.0011 43.2474 18.4106L48.1941 27.1912L53.1408 35.9718C53.3716 36.3823 53.493 36.8478 53.4927 37.3215C53.4925 37.7953 53.3706 38.2607 53.1394 38.6709C52.9081 39.0811 52.5756 39.4218 52.1752 39.6588C51.7748 39.8957 51.3207 40.0206 50.8583 40.0208H31.0635C30.6012 40.0206 30.147 39.8957 29.7466 39.6588C29.3463 39.4218 29.0138 39.0811 28.7825 38.6709C28.5512 38.2607 28.4294 37.7953 28.4291 37.3215C28.4289 36.8478 28.5503 36.3823 28.7811 35.9718L33.7278 27.1912L38.6866 18.4106Z" fill="#111828"/>
<circle cx="33.0248" cy="11.5938" r="4.5957" fill="#FC5761"/>
</svg>
