<svg width="1256" height="696" viewBox="0 0 1256 696" fill="none" xmlns="http://www.w3.org/2000/svg">
<g clip-path="url(#clip0_3867_34905)">
<rect width="1256" height="696" fill="#111828"/>
<mask id="mask0_3867_34905" style="mask-type:alpha" maskUnits="userSpaceOnUse" x="0" y="0" width="1256" height="696">
<rect width="1256" height="696" fill="#111828"/>
</mask>
<g mask="url(#mask0_3867_34905)">
<g clip-path="url(#clip1_3867_34905)">
<path d="M24.0921 257.755C26.0487 251.522 26.5092 244.917 25.4365 238.474C24.3638 232.031 21.7879 225.93 17.9164 220.661C14.0449 215.393 8.98618 211.105 3.14782 208.143C-2.69055 205.181 -9.14524 203.628 -15.6959 203.61C-22.2465 203.591 -28.71 205.107 -34.5652 208.035C-40.4205 210.964 -45.5039 215.223 -49.4056 220.469C-53.3073 225.715 -55.9182 231.802 -57.0279 238.239C-58.1376 244.676 -57.715 251.282 -55.7943 257.526C-54.1905 262.495 -53.5972 267.733 -54.049 272.934C-54.5009 278.134 -55.9888 283.192 -58.4257 287.812C-62.4161 295.164 -64.4235 303.422 -64.2515 311.78C-64.0796 320.137 -61.7342 328.307 -57.4448 335.49C-53.1554 342.672 -47.069 348.621 -39.7814 352.755C-32.4938 356.888 -24.2547 359.064 -15.8705 359.069C-7.48623 359.075 0.755851 356.91 8.04901 352.787C15.3422 348.663 21.4365 342.722 25.7355 335.545C30.0346 328.369 32.391 320.202 32.5743 311.845C32.7575 303.487 30.7612 295.226 26.7807 287.869C24.3515 283.278 22.8627 278.251 22.4012 273.081C21.9396 267.911 22.5144 262.701 24.0921 257.755V257.755Z" fill="#FC5761"/>
<path d="M128.438 341.766H7.96484V503.858H128.438V341.766Z" fill="white"/>
<path d="M100.755 428.402H35.6562V503.859H100.755V428.402Z" fill="#0A1F48"/>
<path d="M128.438 341.766H7.96484L68.2014 281.709L128.438 341.766Z" fill="white"/>
<path d="M279.95 281.709H68.207L128.444 341.766V503.858H219.714H340.187V341.766L279.95 281.709Z" fill="#ABBDE3"/>
<path d="M82.9025 335.036L66.6563 318.838L50.4102 335.036V364.295H82.9025V335.036Z" fill="#0A1F48"/>
<path d="M231.662 634.239H-928.191L-703.291 410.008C-694.555 401.309 -684.186 394.412 -672.776 389.709C-661.365 385.007 -649.137 382.592 -636.791 382.603H-59.5952C-34.7075 382.61 -10.8404 392.467 6.76219 410.008L231.662 634.239Z" fill="#446089"/>
<path d="M351.654 434.903H168.312V626.795H351.654V434.903Z" fill="#D6E3FD"/>
<path d="M452.678 435.103V626.796H351.684V435.103L402.167 392.327L452.678 435.103Z" fill="white"/>
<path d="M402.165 392.327L351.882 434.932H168.312L218.624 392.327H402.165Z" fill="#0A1F48"/>
<path d="M231.323 473.516H199.488V496.643H231.323V473.516Z" fill="#0A1F48"/>
<path d="M312.725 473.516H280.891V496.643H312.725V473.516Z" fill="#0A1F48"/>
<path d="M425.789 623.374H365.924C350.438 623.375 335.104 620.334 320.797 614.423C306.491 608.512 293.494 599.847 282.548 588.925L228.804 535.341C201.677 508.342 164.91 493.183 126.58 493.193H-279.574C-288.284 493.186 -296.907 494.92 -304.933 498.293C-312.96 501.666 -320.226 506.609 -326.303 512.83C-332.38 519.051 -337.145 526.424 -340.315 534.513C-343.484 542.602 -344.995 551.242 -344.758 559.923V565.028C-344.506 574.071 -346.075 583.074 -349.373 591.503C-352.671 599.931 -357.63 607.615 -363.958 614.1C-370.286 620.584 -377.854 625.738 -386.214 629.256C-394.575 632.774 -403.557 634.584 -412.632 634.581H-930.592C-938.357 634.575 -946.048 636.095 -953.223 639.056C-960.399 642.016 -966.918 646.359 -972.408 651.834L-994.318 673.764C-1003.37 682.78 -1015.64 687.847 -1028.44 687.851H-1052.95C-1061.95 687.851 -1070.58 691.414 -1076.94 697.757C-1083.3 704.1 -1086.88 712.703 -1086.88 721.673V732.452H508.707V706.045C508.699 684.122 499.961 663.098 484.412 647.596C468.864 632.094 447.778 623.381 425.789 623.374V623.374Z" fill="#1D3860"/>
<path d="M131.87 656.254H308.06C314.126 656.254 320.133 657.445 325.738 659.759C331.342 662.074 336.435 665.466 340.724 669.742L359.058 687.993C363.313 692.246 368.369 695.62 373.935 697.92C379.501 700.22 385.468 701.401 391.493 701.397H530.672C544.181 701.402 557.134 706.757 566.683 716.283L582.9 732.452H112.992L131.87 656.254Z" fill="#1D3860"/>
<path d="M416.61 585.76H409.945V700.77H416.61V585.76Z" fill="#0A1F48"/>
<path d="M452.96 550.227C454.93 543.976 455.398 537.352 454.328 530.888C453.258 524.424 450.679 518.301 446.799 513.013C442.919 507.725 437.847 503.421 431.992 500.446C426.137 497.472 419.663 495.912 413.091 495.89C406.52 495.869 400.036 497.388 394.162 500.325C388.288 503.262 383.188 507.534 379.274 512.796C375.361 518.059 372.742 524.166 371.63 530.623C370.518 537.08 370.944 543.707 372.873 549.97C374.479 554.959 375.071 560.217 374.614 565.437C374.157 570.657 372.661 575.733 370.213 580.369C366.005 588.135 364.025 596.907 364.493 605.721C365.531 618.038 371.247 629.494 380.474 637.748C389.702 646.002 401.742 650.43 414.135 650.128C426.528 649.826 438.338 644.816 447.149 636.122C455.96 627.428 461.108 615.707 461.541 603.354C461.561 595.394 459.595 587.555 455.82 580.541C453.34 575.933 451.81 570.878 451.318 565.672C450.827 560.466 451.385 555.214 452.96 550.227Z" fill="#FC5761"/>
<path d="M88.1028 582.965V522.223L16.5684 450.93L-54.9375 522.223V732.424H48.8032V732.452H152.143V582.965H88.1028Z" fill="#ABBDE3"/>
<path d="M-117.544 450.93L-189.078 522.223H-54.9331L16.5728 450.93H-117.544Z" fill="#0A1F48"/>
<path d="M40.5134 620.608H33.9062V734.306H40.5134V620.608Z" fill="#0A1F48"/>
<path d="M53.0452 679.625C78.9503 670.898 92.8546 642.886 84.1013 617.058C75.348 591.23 47.2519 577.367 21.3468 586.094C-4.5583 594.821 -18.4627 622.834 -9.70939 648.662C-0.95612 674.49 27.1401 688.353 53.0452 679.625Z" fill="#FC5761"/>
</g>
<g clip-path="url(#clip2_3867_34905)">
<path d="M2021.22 634.239H861.363L1086.26 410.008C1095 401.309 1105.37 394.412 1116.78 389.709C1128.19 385.007 1140.42 382.592 1152.76 382.603H1729.96C1754.85 382.61 1778.71 392.467 1796.32 410.008L2021.22 634.239Z" fill="#446089"/>
<path d="M1357.5 345.045C1357.48 339.018 1355.9 333.096 1352.93 327.848C1349.96 322.599 1345.69 318.199 1340.52 315.068C1335.35 311.938 1329.47 310.182 1323.43 309.968C1317.38 309.754 1311.39 311.09 1306.01 313.848C1301.85 307.001 1295.95 301.367 1288.92 297.512C1281.88 293.656 1273.95 291.715 1265.92 291.882C1257.89 292.05 1250.05 294.321 1243.18 298.467C1236.31 302.612 1230.66 308.487 1226.78 315.502C1225.95 315.502 1225.15 315.644 1224.32 315.73C1219.53 313.124 1214.15 311.764 1208.69 311.773C1203.23 311.782 1197.86 313.161 1193.08 315.783C1188.29 318.405 1184.24 322.185 1181.31 326.775C1178.37 331.366 1176.64 336.619 1176.27 342.051C1165.57 342.707 1155.48 347.261 1147.92 354.847C1140.37 362.434 1135.87 372.525 1135.29 383.201H1395.57C1393.62 373.843 1388.99 365.252 1382.23 358.476C1375.47 351.701 1366.87 347.034 1357.5 345.045V345.045Z" fill="#CE4049"/>
<path d="M1395.63 257.07V383.173H1255.68V257.07L1325.64 226.642L1395.63 257.07Z" fill="white"/>
<path d="M1239.2 284.361H1233.45V383.173H1239.2V284.361Z" fill="#0A1F48"/>
<path d="M1236.34 337.945C1260.11 337.945 1279.38 318.73 1279.38 295.026C1279.38 271.323 1260.11 252.108 1236.34 252.108C1212.56 252.108 1193.29 271.323 1193.29 295.026C1193.29 318.73 1212.56 337.945 1236.34 337.945Z" fill="#FC5761"/>
<path d="M992.159 365.721H869.855V633.412H992.159V365.721Z" fill="#ABBDE3"/>
<path d="M992.161 633.383H1075.51V365.692H992.161V633.383Z" fill="#D6E3FD"/>
<path d="M992.159 428.316H869.855V437.755H992.159V428.316Z" fill="white"/>
<path d="M992.161 437.755H1075.51V428.316H992.161V437.755Z" fill="#ABBDE3"/>
<path d="M903.805 411.833V385.198H888.989V411.833H903.805Z" fill="#0A1F48"/>
<path d="M972.449 411.833V385.198H957.633V411.833H972.449Z" fill="#0A1F48"/>
<path d="M938.305 411.833V385.198H923.489V411.833H938.305Z" fill="#0A1F48"/>
<path d="M992.159 502.147H869.855V511.587H992.159V502.147Z" fill="white"/>
<path d="M992.161 511.586H1075.51V502.147H992.161V511.586Z" fill="#ABBDE3"/>
<path d="M903.805 485.664V459.029H888.989V485.664H903.805Z" fill="#0A1F48"/>
<path d="M972.449 485.664V459.029H957.633V485.664H972.449Z" fill="#0A1F48"/>
<path d="M938.305 485.664V459.029H923.489V485.664H938.305Z" fill="#0A1F48"/>
<path d="M992.159 579.857H869.855V589.296H992.159V579.857Z" fill="white"/>
<path d="M992.161 589.296H1075.51V579.857H992.161V589.296Z" fill="#ABBDE3"/>
<path d="M903.805 563.402V536.767H888.989V563.402H903.805Z" fill="#0A1F48"/>
<path d="M972.422 563.373V536.738H957.606V563.373H972.422Z" fill="#0A1F48"/>
<path d="M938.27 563.403V536.767H923.453V563.403H938.27Z" fill="#0A1F48"/>
<path d="M1168.21 396.548H1057.78V638.203H1168.21V396.548Z" fill="white"/>
<path d="M1168.18 638.231H1243.43V396.576H1168.18V638.231Z" fill="#ABBDE3"/>
<path d="M1097.82 414.799H1078.31V434.191H1097.82V414.799Z" fill="#0A1F48"/>
<path d="M1142.5 414.799H1122.99V434.191H1142.5V414.799Z" fill="#0A1F48"/>
<path d="M1097.82 459.599H1078.31V478.991H1097.82V459.599Z" fill="#0A1F48"/>
<path d="M1142.5 459.599H1122.99V478.991H1142.5V459.599Z" fill="#0A1F48"/>
<path d="M1097.82 504.429H1078.31V523.82H1097.82V504.429Z" fill="#0A1F48"/>
<path d="M1142.5 504.429H1122.99V523.82H1142.5V504.429Z" fill="#0A1F48"/>
<path d="M1097.82 549.257H1078.31V568.649H1097.82V549.257Z" fill="#0A1F48"/>
<path d="M1142.5 549.257H1122.99V568.649H1142.5V549.257Z" fill="#0A1F48"/>
<path d="M1097.82 594.058H1078.31V613.45H1097.82V594.058Z" fill="#0A1F48"/>
<path d="M1142.5 594.058H1122.99V613.45H1142.5V594.058Z" fill="#0A1F48"/>
<path d="M2215.34 623.374H2155.48C2139.99 623.375 2124.66 620.334 2110.35 614.423C2096.05 608.512 2083.05 599.848 2072.1 588.925L2018.36 535.341C1991.23 508.342 1954.46 493.183 1916.13 493.193H1509.98C1501.27 493.186 1492.65 494.92 1484.62 498.293C1476.6 501.666 1469.33 506.609 1463.25 512.83C1457.17 519.052 1452.41 526.424 1449.24 534.513C1446.07 542.602 1444.56 551.242 1444.8 559.923V565.028C1445.05 574.071 1443.48 583.074 1440.18 591.503C1436.88 599.931 1431.92 607.615 1425.6 614.1C1419.27 620.584 1411.7 625.738 1403.34 629.256C1394.98 632.774 1386 634.585 1376.92 634.581H858.963C851.197 634.575 843.507 636.096 836.332 639.056C829.156 642.016 822.637 646.359 817.146 651.834L795.237 673.764C786.183 682.78 773.911 687.847 761.114 687.851H736.602C727.605 687.851 718.977 691.415 712.615 697.757C706.254 704.1 702.68 712.703 702.68 721.673V732.452H2298.26V706.045C2298.25 684.122 2289.52 663.098 2273.97 647.596C2258.42 632.094 2237.33 623.381 2215.34 623.374V623.374Z" fill="#1D3860"/>
<path d="M1259.04 732.452V432.422H1181.87V539.733H1119.66V732.452H1259.04Z" fill="#D6E3FD"/>
<path d="M1241.83 447.251H1198.1V453.982H1241.83V447.251Z" fill="#0A1F48"/>
<path d="M1241.83 484.552H1198.1V491.282H1241.83V484.552Z" fill="#0A1F48"/>
<path d="M1241.83 521.824H1198.1V528.554H1241.83V521.824Z" fill="#0A1F48"/>
<path d="M1241.8 559.124H1136.77V565.854H1241.8V559.124Z" fill="#0A1F48"/>
<path d="M1241.8 596.396H1136.77V603.126H1241.8V596.396Z" fill="#0A1F48"/>
<path d="M1241.8 633.697H1136.77V640.427H1241.8V633.697Z" fill="#0A1F48"/>
<path d="M1241.8 670.969H1136.77V677.699H1241.8V670.969Z" fill="#0A1F48"/>
<path d="M1310.42 664.453C1330.44 644.496 1330.44 612.14 1310.42 592.183C1290.4 572.226 1257.95 572.226 1237.93 592.183C1217.92 612.139 1217.92 644.496 1237.93 664.453C1257.95 684.41 1290.4 684.41 1310.42 664.453Z" fill="#FC5761"/>
<path d="M1113.86 732.452H757.387L806.44 690.218C819.462 679.014 836.09 672.85 853.29 672.851H906.205C917.036 672.86 927.423 677.146 935.093 684.771L944.875 694.553C952.329 701.974 962.429 706.147 972.963 706.159H1067.35C1073.76 706.152 1080.11 707.409 1086.03 709.856C1091.94 712.303 1097.32 715.892 1101.84 720.418L1113.86 732.452Z" fill="#142949"/>
</g>
</g>
</g>
<defs>
<clipPath id="clip0_3867_34905">
<rect width="1256" height="696" fill="white"/>
</clipPath>
<clipPath id="clip1_3867_34905">
<rect width="1739.28" height="700.271" fill="white" transform="translate(-1180.01 18.9802)"/>
</clipPath>
<clipPath id="clip2_3867_34905">
<rect width="1492.42" height="700.929" fill="white" transform="translate(609.793 18.8209)"/>
</clipPath>
</defs>
</svg>
