<svg width="18" height="18" viewBox="0 0 18 18" fill="none" xmlns="http://www.w3.org/2000/svg">
<g clip-path="url(#clip0_3817_27077)">
<path fill-rule="evenodd" clip-rule="evenodd" d="M13.4395 7.84675C14.4828 8.89038 16.1743 8.89038 17.2175 7.84675C18.2608 6.80312 18.2608 5.11105 17.2175 4.06742C16.5969 3.44656 15.7468 3.19505 14.9403 3.3129C14.7978 3.33372 14.6672 3.20309 14.688 3.06054C14.8058 2.2538 14.5543 1.40354 13.9337 0.782724C12.8905 -0.260908 11.199 -0.260908 10.1557 0.782724C9.11241 1.82636 9.11241 3.51842 10.1557 4.56205C10.2022 4.60861 10.2041 4.68443 10.1576 4.73099L4.72666 10.1637C4.67983 10.2106 4.60354 10.2087 4.5567 10.1618C3.51429 9.11906 1.82422 9.11906 0.781806 10.1618C-0.260602 11.2046 -0.260602 12.8952 0.781806 13.938C1.40161 14.558 2.25038 14.8094 3.05584 14.6921C3.19822 14.6714 3.32866 14.8018 3.308 14.9442C3.19113 15.7496 3.44246 16.5982 4.06198 17.2179C5.10439 18.2607 6.79447 18.2607 7.83688 17.2179C8.87929 16.1752 8.87929 14.4845 7.83688 13.4418C7.7943 13.3992 7.79274 13.3298 7.83532 13.2872L13.2757 7.84499C13.3208 7.79983 13.3944 7.80159 13.4395 7.84675Z" fill="#B7C0D2"/>
</g>
<defs>
<clipPath id="clip0_3817_27077">
<rect width="18" height="18" fill="white"/>
</clipPath>
</defs>
</svg>
