<svg width="18" height="18" viewBox="0 0 18 18" fill="none" xmlns="http://www.w3.org/2000/svg">
<g clip-path="url(#clip0_3817_27079)">
<path d="M13.8457 0L17.9995 4.15385" stroke="#B7C0D2" stroke-width="1.5" stroke-linecap="round" stroke-linejoin="round"/>
<path d="M9 2.07692L15.9231 9" stroke="#B7C0D2" stroke-width="1.5" stroke-linecap="round" stroke-linejoin="round"/>
<path d="M10.0387 3.11538L2.27619 10.8779C2.21278 10.9416 2.16256 11.0172 2.12841 11.1004C2.09426 11.1835 2.07684 11.2726 2.07715 11.3625V15.9231H6.63773C6.72763 15.9234 6.8167 15.906 6.89986 15.8718C6.98302 15.8377 7.05862 15.7874 7.12235 15.724L14.8848 7.96154" fill="#B7C0D2"/>
<path d="M10.0387 3.11538L2.27619 10.8779C2.21278 10.9416 2.16256 11.0172 2.12841 11.1004C2.09426 11.1835 2.07684 11.2726 2.07715 11.3625V15.9231H6.63773C6.72763 15.9234 6.8167 15.906 6.89986 15.8718C6.98302 15.8377 7.05862 15.7874 7.12235 15.724L14.8848 7.96154" stroke="#B7C0D2" stroke-width="1.5" stroke-linecap="round" stroke-linejoin="round"/>
<path d="M5.96875 5.62259L9 8.65384" stroke="white" stroke-width="1.5" stroke-linecap="round" stroke-linejoin="round"/>
<path d="M3.53125 8.03127L6.57692 11.0769" stroke="white" stroke-width="1.5" stroke-linecap="round" stroke-linejoin="round"/>
<path d="M12.4619 5.53844L15.9235 2.0769" stroke="#B7C0D2" stroke-width="1.5" stroke-linecap="round" stroke-linejoin="round"/>
<path d="M2.07692 15.9231L0 18" stroke="#B7C0D2" stroke-width="1.5" stroke-linecap="round" stroke-linejoin="round"/>
</g>
<defs>
<clipPath id="clip0_3817_27079">
<rect width="17.9995" height="18" fill="white"/>
</clipPath>
</defs>
</svg>
