<svg width="18" height="18" viewBox="0 0 18 18" fill="none" xmlns="http://www.w3.org/2000/svg">
<path fill-rule="evenodd" clip-rule="evenodd" d="M3.59216 5.23096L0.445482 3.65577C0.199187 3.53247 0.0989845 3.23321 0.221379 2.98647L0.48771 2.44956C0.610736 2.20154 0.911881 2.10071 1.15945 2.22463L4.30287 3.7982C4.84378 4.06897 5.18567 4.62384 5.18567 5.23096V8.62146H3.59216L3.59216 5.23096Z" fill="#B7C0D2"/>
<path fill-rule="evenodd" clip-rule="evenodd" d="M11.8094 7.87107H4.38965V6.27027H11.8094C12.6895 6.27027 13.4029 6.98697 13.4029 7.87107V10.5224H15.5129C15.9356 10.5224 16.3409 10.691 16.6397 10.9912L17.6487 12.0049C17.8429 12.1999 17.8429 12.5153 17.6487 12.7104L17.2274 13.1336C17.032 13.3299 16.7142 13.3299 16.5187 13.1336L15.5129 12.1232H13.4029V14.5744H11.8094V12.1232H8.32361V10.5224H11.8094V7.87107Z" fill="#B7C0D2"/>
<ellipse cx="4.66291" cy="11.6729" rx="4.30744" ry="4.32715" fill="#B7C0D2"/>
<ellipse cx="12.6434" cy="14.1803" rx="1.81137" ry="1.81965" fill="#B7C0D2"/>
</svg>
